<?xml version="1.0" encoding="UTF-8" standalone="no"?>
<!-- Created with Inkscape (http://www.inkscape.org/) -->

<svg
   xmlns:dc="http://purl.org/dc/elements/1.1/"
   xmlns:cc="http://creativecommons.org/ns#"
   xmlns:rdf="http://www.w3.org/1999/02/22-rdf-syntax-ns#"
   xmlns:svg="http://www.w3.org/2000/svg"
   xmlns="http://www.w3.org/2000/svg"
   xmlns:sodipodi="http://sodipodi.sourceforge.net/DTD/sodipodi-0.dtd"
   xmlns:inkscape="http://www.inkscape.org/namespaces/inkscape"
   width="7440.0898"
   height="10520.36"
   id="svg2"
   version="1.1"
   inkscape:version="0.48.3.1 r9886"
   sodipodi:docname="jellyfish13.svg">
  <defs
     id="defs4" />
  <sodipodi:namedview
     id="base"
     pagecolor="#ffffff"
     bordercolor="#666666"
     borderopacity="1.0"
     inkscape:pageopacity="0.0"
     inkscape:pageshadow="2"
     inkscape:zoom="0.050107281"
     inkscape:cx="5583.5418"
     inkscape:cy="7318.323"
     inkscape:document-units="px"
     inkscape:current-layer="layer2"
     showgrid="false"
     inkscape:window-width="1680"
     inkscape:window-height="991"
     inkscape:window-x="0"
     inkscape:window-y="0"
     inkscape:window-maximized="1" />
  <metadata
     id="metadata7">
    <rdf:RDF>
      <cc:Work
         rdf:about="">
        <dc:format>image/svg+xml</dc:format>
        <dc:type
           rdf:resource="http://purl.org/dc/dcmitype/StillImage" />
        <dc:title></dc:title>
      </cc:Work>
    </rdf:RDF>
  </metadata>
  <g
     inkscape:label="jelly"
     inkscape:groupmode="layer"
     id="layer1"
     style="display:inline"
     transform="translate(0,9467.9978)">
    <path
       style="fill:#000000;fill-opacity:1;stroke:#000000;stroke-width:3.74999976;stroke-linecap:butt;stroke-linejoin:miter;stroke-miterlimit:4;stroke-opacity:1;stroke-dasharray:none"
       d="m 364.56592,-3802.0013 c -34.92688,-169.2926 266.79625,-220.2591 397.77693,-333.226 38.98225,-33.621 81.29184,-64.0592 115.48362,-102.531 79.55594,-89.5146 154.89043,-186.1881 205.30423,-294.777 55.8668,-120.334 87.5932,-252.7046 102.6521,-384.4915 14.5585,-127.408 -13.747,-256.2598 -12.8315,-384.4916 1.2825,-179.6282 10.221,-359.3189 25.663,-538.2883 17.7653,-205.8948 50.1795,-410.2707 76.989,-615.1865 12.3057,-94.0569 10.0828,-191.4484 38.4946,-281.9605 67.5291,-215.1275 173.2669,-421.4537 307.9564,-602.3701 84.8403,-113.9584 201.4084,-200.7463 307.9563,-294.7769 177.7116,-156.8338 339.3174,-343.3099 551.7551,-448.5735 130.105,-64.4675 282.5954,-67.1326 423.4399,-102.5312 197.1877,-49.5591 388.1081,-131.8302 590.2497,-153.7966 221.2717,-24.0451 448.5435,-15.7071 667.2388,25.6328 191.3901,36.1784 376.9635,106.3814 551.755,192.2457 224.6188,110.3417 435.7591,250.8936 628.7442,410.1244 137.592,113.5263 269.7866,238.4475 372.1139,384.4917 100.9068,144.0169 172.0548,308.5664 230.9673,474.2062 69.1126,194.3186 105.0726,399.3265 141.1467,602.3702 30.8677,173.7405 57.6428,349.1368 64.1575,525.4718 6.632,179.5105 -31.0671,358.7366 -25.663,538.2882 4.783,158.918 16.8806,318.9838 51.3261,474.2064 43.0261,193.8909 87.3663,395.3408 192.4726,563.9209 76.741,123.0852 188.9693,224.523 307.9564,307.5933 108.2232,75.5554 275.1782,64.9447 359.2823,166.613 33.699,40.7367 65.3045,108.2409 38.4946,153.7966 -58.3607,99.1671 -218.7118,97.4209 -333.6194,89.7148 -143.4561,-9.6208 -257.4716,-135.2361 -397.777,-166.6131 -96.0888,-21.4888 -236.3396,-91.7183 -295.1248,-12.8164 -62.1809,83.4597 41.2037,210.7776 102.6522,294.7769 113.5523,155.2247 316.5302,220.0826 461.9345,346.0423 137.0884,118.7562 306.8098,220.9032 384.9453,384.4917 70.3702,147.3305 69.7074,324.8206 51.3262,487.0227 -17.7993,157.0658 -34.8912,344.4705 -153.9783,448.5735 -98.4692,86.0794 -280.984,156.2741 -384.9454,76.8983 -149.8628,-114.4221 -0.3383,-379.4057 -38.4945,-563.9209 -31.1946,-150.8496 -68.4676,-307.5716 -153.9782,-435.7572 -99.0709,-148.5134 -284.6565,-220.721 -397.7769,-358.8588 -84.9888,-103.7846 -154.2727,-222.0293 -205.3042,-346.0425 -40.225,-97.7518 -11.5616,-224.5331 -76.9892,-307.5932 -62.6979,-79.5948 -175.3133,-103.3761 -269.4617,-140.9802 -28.9124,-11.548 -64.2853,-43.4315 -89.8206,-25.6329 -94.9631,66.1915 -33.2689,230.6288 -25.6631,346.0425 13.7741,209.0127 41.6133,424.4613 128.3152,615.1865 99.7341,219.3929 331.6157,359.6437 436.2715,576.7374 82.3597,170.8435 132.5564,361.6818 141.1466,551.1047 6.0773,134.01 38.093,310.3306 -64.1575,397.3079 -110.7148,94.1773 -305.6905,63.9298 -436.2715,0 -194.3596,-95.1547 -315.843,-312.5463 -397.7769,-512.6555 -83.1407,-203.0566 -64.1356,-434.6303 -76.9891,-653.6356 -13.0159,-221.77 27.1751,-445.9659 0,-666.4521 -17.2379,-139.8598 -85.4143,-270.2646 -102.6521,-410.1245 -8.3616,-67.8419 0,-136.7081 0,-205.0621 0,-38.4492 22.9786,-84.5 0,-115.3475 -53.3118,-71.5682 -179.4521,-121.7873 -256.6303,-76.8982 -132.7022,77.1833 -56.3166,302.3417 -102.6521,448.5735 -30.6768,96.8142 -87.2413,184.4098 -115.4836,281.9604 -20.511,70.8458 -30.694,144.543 -38.4945,217.8787 -12.209,114.7805 -40.1569,233.8889 -12.8316,346.0423 26.7197,109.6676 104.979,200.3034 166.8097,294.7769 81.9115,125.1555 182.9986,236.796 269.4618,358.8589 53.4424,75.4462 110.1653,149.2918 153.9781,230.6948 41.7517,77.5734 73.3787,160.4345 102.6522,243.5114 41.3502,117.3504 83.1776,235.9827 102.652,358.8588 18.7373,118.2238 14.6811,239.17721 12.8316,358.85882 -1.9849,128.43307 3.3348,259.35127 -25.663,384.49158 -22.9247,98.93209 -56.3996,199.32165 -115.4836,281.960442 -26.4232,36.95716 -62.0895,69.1983 -102.6521,89.7146995 -70.3601,35.5878905 -152.205,55.3238505 -230.9673,51.2655705 -94.5535,-4.87191 -195.3679,-30.84153 -269.4619,-89.7147 -70.6096,-56.104692 -123.7239,-142.270482 -141.1466,-230.694972 -25.934,-131.62282 49.6144,-263.94916 64.1577,-397.30793 16.2367,-148.88776 21.3841,-298.86611 25.663,-448.57351 2.6851,-93.9485 24.152,-191.1223 0,-281.9605 -26.5526,-99.8675 -115.6841,-173.1551 -153.9783,-269.1441 -66.8169,-167.4849 -85.0397,-350.4381 -128.3151,-525.4719 -29.5959,-119.705 -74.7374,-236.4815 -89.8205,-358.8588 -16.2007,-131.4437 -9.0799,-265.1828 0,-397.3078 8.5744,-124.7712 19.2832,-250.775 51.3261,-371.6753 23.5775,-88.9602 82.2279,-166.5928 102.652,-256.3277 14.254,-62.6262 13.2579,-128.023 12.8316,-192.2458 -0.7113,-107.1421 -1.1902,-216.0909 -25.663,-320.4097 -10.5097,-44.7988 -14.3895,-100.668 -51.3262,-128.1638 -37.8799,-28.198 -93.9522,-10.6781 -141.1466,-12.8163 -76.91,-3.4846 -153.9782,0 -230.9672,0 -34.2174,0 -74.8936,-19.9838 -102.6521,0 -32.9177,23.6976 -38.9592,74.8211 -38.4946,115.3473 2.029,177.0114 157.442,324.2103 179.6412,499.8391 17.2189,136.2262 -11.9305,275.4047 -38.4945,410.1244 -19.8705,100.7731 -70.9367,193.8147 -89.8206,294.7769 -21.2657,113.6964 -24.996,230.3808 -25.6631,346.0424 -0.7894,136.9726 -7.3749,277.1839 25.6631,410.1244 35.0496,141.0351 133.1176,259.6229 179.6412,397.3079 36.4961,108.009 58.7906,220.6899 76.989,333.226 21.9202,135.5508 26.1243,273.3739 38.4945,410.1244 8.8857,98.22956 24.6672,196.15216 25.6631,294.77685 1.2968,128.4418 -21.3836,256.11432 -25.6631,384.49158 -3.1314,93.93475 56.9411,207.13486 0,281.960542 C 3870.5431,3.9225215 3765.7109,22.732822 3687.928,4.4653915 3575.8964,-21.845438 3489.5504,-127.09127 3431.2977,-226.22959 c -97.6865,-166.24983 -109.388,-372.08302 -128.3151,-563.92098 -15.5257,-157.3642 -12.2717,-318.08033 12.8315,-474.20623 14.1617,-88.0761 65.4464,-167.8713 76.9891,-256.3278 17.1455,-131.3936 4.5854,-265.9499 -12.8315,-397.3079 -9.807,-73.9638 -28.2485,-146.919 -51.326,-217.8786 -44.42,-136.5842 -138.451,-256.5195 -166.8098,-397.308 -19.4032,-96.3287 -3.6359,-196.585 0,-294.7769 4.2802,-115.5844 27.1528,-230.3884 25.6631,-346.0424 -1.106,-85.8617 -16.0535,-170.9971 -25.6631,-256.3276 -7.709,-68.4544 -8.1008,-138.4471 -25.663,-205.0622 -20.0241,-75.9529 -24.4839,-174.1746 -89.8206,-217.8786 -35.5384,-23.7718 -94.7505,-26.4799 -128.3151,0 -72.4558,57.1624 -38.4266,180.575 -64.1575,269.1441 -40.3335,138.8327 -93.1096,273.7596 -141.1467,410.1243 -37.7205,107.0784 -93.4081,209.0584 -115.4836,320.4097 -18.297,92.2919 -21.8798,188.3117 -12.8317,281.9605 13.9511,144.393 57.4747,285.0738 102.6523,422.9407 51.8886,158.3471 150.0551,300.2537 192.4726,461.39 27.3858,104.0334 23.2223,213.9272 38.4946,320.4095 29.5157,205.7899 93.4579,407.49879 102.6522,615.18666 7.3904,166.94208 -32.0741,332.8568 -38.4946,499.83896 -4.2677,110.99348 20.1268,223.985032 0,333.226022 -17.396,94.418748 -26.4761,210.597818 -102.6522,269.144088 -64.7619,49.77371 -166.4252,51.88334 -243.7987,25.63279 C 2524.0219,338.23669 2472.3848,204.80992 2379.1136,132.62921 2315.3196,83.260232 2217.2413,72.402802 2173.8094,4.4653915 2099.5758,-111.653 2124.3524,-267.89962 2122.4833,-405.65899 c -2.3875,-175.97274 16.9523,-352.86444 51.326,-525.47185 20.0609,-100.73546 65.3384,-195.02146 89.8207,-294.77686 33.1546,-135.0908 65.2391,-271.53 76.989,-410.1243 22.0177,-259.7054 -3.2475,-521.3405 -12.8314,-781.7995 -5.5073,-149.6675 -30.4262,-298.8807 -25.663,-448.5736 4.5165,-141.9404 45.8412,-281.0343 51.326,-422.9407 3.7986,-98.2786 35.5064,-209.0912 -12.8316,-294.7769 -22.7113,-40.259 -70.4565,-87.5152 -115.4836,-76.8983 -33.5612,7.9134 -40.5019,57.0125 -51.326,89.7147 -33.8048,102.1328 -2.3763,219.0699 -38.4946,320.4096 -50.9378,142.9198 -190.7588,242.3368 -243.7987,384.4916 -30.2069,80.9591 -35.8069,169.971 -38.4946,256.3277 -3.0681,98.5821 21.3818,196.2398 25.6631,294.7769 5.7486,132.3114 -5.2909,264.9775 0,397.308 4.2806,107.0591 26.3951,213.2678 25.6631,320.4097 -0.9379,137.3044 32.5586,292.5799 -38.4946,410.1243 -60.7045,100.424 -183.4178,156.021 -295.1248,192.24574 -81.4644,26.41759 -176.7059,43.5704 -256.6304,12.81644 -73.378,-28.23498 -119.4561,-103.90898 -166.8096,-166.61308 -53.0368,-70.2295 -107.5574,-145.2047 -128.3152,-230.6949 -32.27467,-132.9217 -6.0206,-274.6518 12.8315,-410.1244 26.7064,-191.9139 83.1228,-379.0327 141.1467,-563.921 39.6805,-126.4385 107.5914,-243.4791 141.1466,-371.6752 21.8794,-83.5889 18.9032,-172.1744 38.4946,-256.3277 22.3649,-96.0666 68.0247,-185.7634 89.8206,-281.9605 27.6376,-121.9801 61.4218,-247.0176 51.3261,-371.6751 -4.6906,-57.9181 -1.3521,-136.8652 -51.3261,-166.6131 -56.2039,-33.4563 -127.3631,32.0096 -192.4728,38.4492 -25.538,2.5258 -55.5645,-14.1105 -76.989,0 -54.3882,35.8212 -57.1477,117.4496 -76.9891,179.4294 -30.6609,95.777 -67.667,194.284 -64.1576,294.7769 3.7276,106.7383 80.2676,201.2171 89.8206,307.5932 7.3004,81.2926 4.2053,167.54 -25.663,243.5113 -31.2676,79.5304 -83.2207,157.0455 -153.97816,205.0622 -80.67596,54.7476 -186.48874,95.1653 -282.2933,76.8984 -84.02617,-16.0212 -168.58501,-76.626 -205.30422,-153.7967 -45.93569,-96.5404 -13.83233,-216.8919 12.83151,-320.4096 35.74472,-138.7725 131.24568,-254.9055 192.47271,-384.4916 35.95695,-76.1024 71.12841,-152.6563 102.65211,-230.695 18.7319,-46.3718 81.31261,-100.9386 51.32605,-140.9802 -41.07076,-54.8425 -139.78452,33.0108 -205.30421,12.8164 -46.59905,-14.3626 -72.14319,-67.3837 -115.48363,-89.7147 -39.68579,-20.4479 -119.30257,5.2353 -128.31514,-38.4492 z"
       id="path2996"
       inkscape:connector-curvature="0"
       sodipodi:nodetypes="aaaaaaaaaaaaaaaaaaaaaaaaaaaaaaaaaaaaaaaaaaaaaaaaaaaaaaaaaaaaaaaaaaaaaaaaaaaaaaaaaaaaaaaaaaaaaaaaaaaaaaaaaaaaaaaaaaaaaaaaaaaaaaaaaaaaaaaaaaaaaaaaaaaaaaaaaaaaaaaaaaaaaaaaaaa"
       phase="1"
       label="jelly" />
  </g>
  <g
     inkscape:groupmode="layer"
     id="layer2"
     inkscape:label="eye"
     transform="translate(0,9467.9978)">
    <path
       style="fill:#ffffff;fill-opacity:1;stroke:#000000;stroke-width:3.74999976;stroke-miterlimit:4;stroke-opacity:1;stroke-dasharray:none;display:inline"
       d="m 2578.19,-7041.5243 c -318.8992,0 -577.5736,258.0524 -577.5736,576.5756 0,318.5232 258.6744,576.8928 577.5736,576.8928 318.8992,0 577.256,-258.3696 577.256,-576.8928 0,-318.5232 -258.3568,-576.5756 -577.256,-576.5756 z m -68.2674,77.7014 c 202.8822,0 367.3737,151.0461 367.3737,337.4457 0,186.3997 -164.4915,337.4458 -367.3737,337.4458 -202.8821,0 -367.3736,-151.0461 -367.3736,-337.4458 0,-186.3996 164.4915,-337.4457 367.3736,-337.4457 z m 356.8954,635.8823 c 67.9876,0 123.1988,43.3363 123.1988,96.7302 0,53.394 -55.2112,96.7303 -123.1988,96.7303 -67.9875,0 -123.1987,-43.3363 -123.1987,-96.7303 0,-53.3939 55.2112,-96.7302 123.1987,-96.7302 z m -394.6806,67.8697 c 99.1171,0 179.7178,65.5283 179.7178,146.2053 0,80.6772 -80.6007,146.2054 -179.7178,146.2054 -99.117,0 -179.4002,-65.5282 -179.4002,-146.2054 0,-80.677 80.2832,-146.2053 179.4002,-146.2053 z"
       id="path3766"
       phase="2"
       inkscape:connector-curvature="0" />
    <path
       style="fill:#ffffff;fill-opacity:1;stroke:#000000;stroke-width:3.74999976;stroke-miterlimit:4;stroke-opacity:1;stroke-dasharray:none;display:inline"
       d="m 4573.5021,-7021.8611 c -321.2244,0 -581.7014,265.8902 -581.7014,593.7017 0,327.8114 260.477,593.3843 581.7014,593.3843 321.2243,0 581.3839,-265.5729 581.3839,-593.3843 0,-327.8115 -260.1596,-593.7017 -581.3839,-593.7017 z m 15.5586,107.5133 c 195.9644,0 354.6727,148.2221 354.6727,331.1028 0,182.8808 -158.7083,331.1028 -354.6727,331.1028 -195.9645,0 -354.6727,-148.222 -354.6727,-331.1028 0,-182.8807 158.7082,-331.1028 354.6727,-331.1028 z m -325.7782,636.1994 c 61.0699,0 110.8154,48.6756 110.8154,108.7819 0,60.1064 -49.7455,108.7819 -110.8154,108.7819 -61.07,0 -110.4979,-48.6755 -110.4979,-108.7819 0,-60.1063 49.4279,-108.7819 110.4979,-108.7819 z m 407.064,86.2644 c 95.6582,0 173.3673,65.3194 173.3673,145.8882 0,80.5687 -77.7091,145.8882 -173.3673,145.8882 -95.6583,0 -173.0499,-65.3195 -173.0499,-145.8882 0,-80.5688 77.3916,-145.8882 173.0499,-145.8882 z"
       id="path3767"
       inkscape:connector-curvature="0"
       phase="2" />
    <path
       style="fill:#ffffff;fill-opacity:1;stroke:#000000;stroke-width:3.74999976;stroke-linecap:butt;stroke-linejoin:miter;stroke-miterlimit:4;stroke-opacity:1;stroke-dasharray:none;display:inline"
       d="m 3154.2567,-5629.2021 c 65.9244,23.656 130.1112,77.5584 201.7917,95.8966 70.1608,17.9494 144.1027,14.0608 216.2631,11.9939 56.2697,-1.6116 111.9422,-12.6555 167.9125,-18.9923 64.157,-7.2635 163.5632,-82.782 192.4686,-21.8115 63.5959,134.1443 -134.0961,294.5406 -289.864,329.7807 -107.0548,24.2193 -201.012,-28.5013 -277.9535,-170.2242 -76.9416,-141.7228 -263.2656,-245.5348 -210.6184,-226.6432 z"
       id="path3894"
       inkscape:connector-curvature="0"
       sodipodi:nodetypes="saaaasss"
       phase="2"
       label="eye" />
    <path
       style="fill:#000000;fill-opacity:1;stroke:none;display:inline"
       d="m 2512.7803,-6977.4603 c -211.7348,0 -383.5673,157.3932 -383.5673,351.4003 0,194.007 171.8325,351.4003 383.5673,351.4003 211.7348,0 383.2498,-157.3933 383.2498,-351.4003 0,-194.0071 -171.515,-351.4003 -383.2498,-351.4003 z"
       id="path3768"
       phase="3"
       inkscape:connector-curvature="0" />
    <path
       style="fill:#000000;fill-opacity:1;stroke:none;display:inline"
       d="m 2468.3558,-6271.736 c -101.501,0 -183.8738,69.5098 -183.8738,155.1893 0,85.6796 82.3728,155.1894 183.8738,155.1894 101.5009,0 183.7215,-69.5098 183.7215,-155.1894 0,-85.6795 -82.2206,-155.1893 -183.7215,-155.1893 z"
       id="path3769"
       phase="3"
       inkscape:connector-curvature="0" />
    <path
       style="fill:#000000;fill-opacity:1;stroke:none;display:inline"
       d="m 2867.5553,-6347.6887 c -71.7552,0 -129.9881,51.0826 -129.9881,114.0483 0,62.9658 58.2329,114.0484 129.9881,114.0484 71.7554,0 129.8806,-51.0826 129.8806,-114.0484 0,-62.9657 -58.1252,-114.0483 -129.8806,-114.0483 z"
       id="path3770"
       phase="3"
       inkscape:connector-curvature="0" />
    <path
       style="fill:#000000;fill-opacity:1;stroke:none;display:inline"
       d="m 4588.1088,-6917.3334 c -201.2364,0 -364.5489,148.8884 -364.5489,332.4121 0,183.5239 163.3125,332.4122 364.5489,332.4122 201.2363,0 364.247,-148.8883 364.247,-332.4122 0,-183.5237 -163.0107,-332.4121 -364.247,-332.4121 z"
       id="path3771"
       phase="3"
       inkscape:connector-curvature="0" />
    <path
       style="fill:#000000;fill-opacity:1;stroke:none;display:inline"
       d="m 4676.75,-6202.1127 c -101.5009,0 -183.8737,69.5097 -183.8737,155.1893 0,85.6795 82.3728,155.1894 183.8737,155.1894 101.501,0 183.7215,-69.5099 183.7215,-155.1894 0,-85.6796 -82.2205,-155.1893 -183.7215,-155.1893 z"
       id="path3772"
       phase="3"
       inkscape:connector-curvature="0" />
    <path
       style="fill:#000000;fill-opacity:1;stroke:none;display:inline"
       d="m 4261.6598,-6281.2302 c -66.5063,0 -120.479,51.0825 -120.479,114.0483 0,62.9658 53.9727,114.0483 120.479,114.0483 66.506,0 120.3792,-51.0825 120.3792,-114.0483 0,-62.9658 -53.8732,-114.0483 -120.3792,-114.0483 z"
       id="path3773"
       phase="3"
       inkscape:connector-curvature="0" />
  </g>
</svg>
