<?xml version="1.0" encoding="utf-8" standalone="no"?>
<!DOCTYPE svg PUBLIC "-//W3C//DTD SVG 1.1//EN"
  "http://www.w3.org/Graphics/SVG/1.1/DTD/svg11.dtd">
<!-- Created with matplotlib (http://matplotlib.org/) -->
<svg height="278.998129pt" version="1.1" viewBox="0 0 1024.74461 278.998129" width="1024.74461pt" xmlns="http://www.w3.org/2000/svg" xmlns:xlink="http://www.w3.org/1999/xlink">
 <defs>
  <style type="text/css">
*{stroke-linecap:butt;stroke-linejoin:round;}
  </style>
 </defs>
 <g id="figure_1">
  <g id="patch_1">
   <path d="M 0 278.998129 
L 1024.74461 278.998129 
L 1024.74461 0 
L 0 0 
z
" style="fill:#ffffff;"/>
  </g>
  <g id="axes_1">
   <g id="patch_2">
    <path d="M 64.085486 232.46 
L 393.812758 232.46 
L 393.812758 10.7 
L 64.085486 10.7 
z
" style="fill:#ffffff;"/>
   </g>
   <g id="matplotlib.axis_1">
    <g id="xtick_1">
     <g id="line2d_1">
      <defs>
       <path d="M 0 0 
L 0 3.5 
" id="mcf0a443741" style="stroke:#000000;stroke-width:0.8;"/>
      </defs>
      <g>
       <use style="stroke:#000000;stroke-width:0.8;" x="100.620326" xlink:href="#mcf0a443741" y="232.46"/>
      </g>
     </g>
     <g id="text_1">
      <!-- $10^{-2}$ -->
      <defs>
       <path d="M 26.59375 63.40625 
C 26.59375 65.5 26.5 65.5 25.09375 65.5 
C 21.203125 61.1875 15.296875 59.796875 9.703125 59.796875 
C 9.40625 59.796875 8.90625 59.796875 8.796875 59.5 
C 8.703125 59.296875 8.703125 59.09375 8.703125 57 
C 11.796875 57 17 57.59375 21 59.984375 
L 21 7.203125 
C 21 3.6875 20.796875 2.5 12.203125 2.5 
L 9.203125 2.5 
L 9.203125 0 
C 14 0 19 0 23.796875 0 
C 28.59375 0 33.59375 0 38.40625 0 
L 38.40625 2.5 
L 35.40625 2.5 
C 26.796875 2.5 26.59375 3.59375 26.59375 7.15625 
z
" id="CMR17-49"/>
       <path d="M 42 31.640625 
C 42 37.75 41.90625 48.125 37.703125 56.109375 
C 34 63.109375 28.09375 65.59375 22.90625 65.59375 
C 18.09375 65.59375 12 63.40625 8.203125 56.203125 
C 4.203125 48.71875 3.796875 39.4375 3.796875 31.640625 
C 3.796875 25.953125 3.90625 17.28125 7 9.671875 
C 11.296875 -0.609375 19 -2 22.90625 -2 
C 27.5 -2 34.5 -0.109375 38.59375 9.375 
C 41.59375 16.28125 42 24.359375 42 31.640625 
z
M 22.90625 -0.40625 
C 16.5 -0.40625 12.703125 5.078125 11.296875 12.6875 
C 10.203125 18.5625 10.203125 27.15625 10.203125 32.75 
C 10.203125 40.4375 10.203125 46.828125 11.5 52.921875 
C 13.40625 61.390625 19 64 22.90625 64 
C 27 64 32.296875 61.296875 34.203125 53.125 
C 35.5 47.4375 35.59375 40.734375 35.59375 32.75 
C 35.59375 26.25 35.59375 18.265625 34.40625 12.375 
C 32.296875 1.484375 26.40625 -0.40625 22.90625 -0.40625 
z
" id="CMR17-48"/>
       <path d="M 65.90625 23 
C 67.59375 23 69.40625 23 69.40625 25 
C 69.40625 27 67.59375 27 65.90625 27 
L 11.796875 27 
C 10.09375 27 8.296875 27 8.296875 25 
C 8.296875 23 10.09375 23 11.796875 23 
z
" id="CMSY10-0"/>
       <path d="M 41.703125 15.453125 
L 39.90625 15.453125 
C 38.90625 8.375 38.09375 7.171875 37.703125 6.5625 
C 37.203125 5.765625 30 5.765625 28.59375 5.765625 
L 9.40625 5.765625 
C 13 9.671875 20 16.75 28.5 24.953125 
C 34.59375 30.734375 41.703125 37.53125 41.703125 47.421875 
C 41.703125 59.21875 32.296875 66 21.796875 66 
C 10.796875 66 4.09375 56.3125 4.09375 47.34375 
C 4.09375 43.4375 7 42.9375 8.203125 42.9375 
C 9.203125 42.9375 12.203125 43.546875 12.203125 47.03125 
C 12.203125 50.109375 9.59375 51 8.203125 51 
C 7.59375 51 7 50.90625 6.59375 50.703125 
C 8.5 59.21875 14.296875 63.40625 20.40625 63.40625 
C 29.09375 63.40625 34.796875 56.515625 34.796875 47.421875 
C 34.796875 38.734375 29.703125 31.25 24 24.75 
L 4.09375 2.28125 
L 4.09375 0 
L 39.296875 0 
z
" id="CMR17-50"/>
      </defs>
      <g transform="translate(85.687531 250.529588)scale(0.16 -0.16)">
       <use transform="scale(0.996264)" xlink:href="#CMR17-49"/>
       <use transform="translate(45.690477 0)scale(0.996264)" xlink:href="#CMR17-48"/>
       <use transform="translate(91.380954 36.153639)scale(0.697382)" xlink:href="#CMSY10-0"/>
       <use transform="translate(145.621947 36.153639)scale(0.697382)" xlink:href="#CMR17-50"/>
      </g>
     </g>
    </g>
    <g id="xtick_2">
     <g id="line2d_2">
      <g>
       <use style="stroke:#000000;stroke-width:0.8;" x="239.72274" xlink:href="#mcf0a443741" y="232.46"/>
      </g>
     </g>
     <g id="text_2">
      <!-- $10^{-1}$ -->
      <g transform="translate(224.789946 250.529588)scale(0.16 -0.16)">
       <use transform="scale(0.996264)" xlink:href="#CMR17-49"/>
       <use transform="translate(45.690477 0)scale(0.996264)" xlink:href="#CMR17-48"/>
       <use transform="translate(91.380954 36.153639)scale(0.697382)" xlink:href="#CMSY10-0"/>
       <use transform="translate(145.621947 36.153639)scale(0.697382)" xlink:href="#CMR17-49"/>
      </g>
     </g>
    </g>
    <g id="xtick_3">
     <g id="line2d_3">
      <g>
       <use style="stroke:#000000;stroke-width:0.8;" x="378.825155" xlink:href="#mcf0a443741" y="232.46"/>
      </g>
     </g>
     <g id="text_3">
      <!-- $10^{0}$ -->
      <g transform="translate(368.231633 250.529588)scale(0.16 -0.16)">
       <use transform="scale(0.996264)" xlink:href="#CMR17-49"/>
       <use transform="translate(45.690477 0)scale(0.996264)" xlink:href="#CMR17-48"/>
       <use transform="translate(91.380954 36.153639)scale(0.697382)" xlink:href="#CMR17-48"/>
      </g>
     </g>
    </g>
    <g id="xtick_4">
     <g id="line2d_4">
      <defs>
       <path d="M 0 0 
L 0 2 
" id="mdd02e941ab" style="stroke:#000000;stroke-width:0.6;"/>
      </defs>
      <g>
       <use style="stroke:#000000;stroke-width:0.6;" x="69.760629" xlink:href="#mdd02e941ab" y="232.46"/>
      </g>
     </g>
    </g>
    <g id="xtick_5">
     <g id="line2d_5">
      <g>
       <use style="stroke:#000000;stroke-width:0.6;" x="79.073089" xlink:href="#mdd02e941ab" y="232.46"/>
      </g>
     </g>
    </g>
    <g id="xtick_6">
     <g id="line2d_6">
      <g>
       <use style="stroke:#000000;stroke-width:0.6;" x="87.139909" xlink:href="#mdd02e941ab" y="232.46"/>
      </g>
     </g>
    </g>
    <g id="xtick_7">
     <g id="line2d_7">
      <g>
       <use style="stroke:#000000;stroke-width:0.6;" x="94.255348" xlink:href="#mdd02e941ab" y="232.46"/>
      </g>
     </g>
    </g>
    <g id="xtick_8">
     <g id="line2d_8">
      <g>
       <use style="stroke:#000000;stroke-width:0.6;" x="142.494325" xlink:href="#mdd02e941ab" y="232.46"/>
      </g>
     </g>
    </g>
    <g id="xtick_9">
     <g id="line2d_9">
      <g>
       <use style="stroke:#000000;stroke-width:0.6;" x="166.989044" xlink:href="#mdd02e941ab" y="232.46"/>
      </g>
     </g>
    </g>
    <g id="xtick_10">
     <g id="line2d_10">
      <g>
       <use style="stroke:#000000;stroke-width:0.6;" x="184.368324" xlink:href="#mdd02e941ab" y="232.46"/>
      </g>
     </g>
    </g>
    <g id="xtick_11">
     <g id="line2d_11">
      <g>
       <use style="stroke:#000000;stroke-width:0.6;" x="197.848741" xlink:href="#mdd02e941ab" y="232.46"/>
      </g>
     </g>
    </g>
    <g id="xtick_12">
     <g id="line2d_12">
      <g>
       <use style="stroke:#000000;stroke-width:0.6;" x="208.863044" xlink:href="#mdd02e941ab" y="232.46"/>
      </g>
     </g>
    </g>
    <g id="xtick_13">
     <g id="line2d_13">
      <g>
       <use style="stroke:#000000;stroke-width:0.6;" x="218.175504" xlink:href="#mdd02e941ab" y="232.46"/>
      </g>
     </g>
    </g>
    <g id="xtick_14">
     <g id="line2d_14">
      <g>
       <use style="stroke:#000000;stroke-width:0.6;" x="226.242323" xlink:href="#mdd02e941ab" y="232.46"/>
      </g>
     </g>
    </g>
    <g id="xtick_15">
     <g id="line2d_15">
      <g>
       <use style="stroke:#000000;stroke-width:0.6;" x="233.357763" xlink:href="#mdd02e941ab" y="232.46"/>
      </g>
     </g>
    </g>
    <g id="xtick_16">
     <g id="line2d_16">
      <g>
       <use style="stroke:#000000;stroke-width:0.6;" x="281.59674" xlink:href="#mdd02e941ab" y="232.46"/>
      </g>
     </g>
    </g>
    <g id="xtick_17">
     <g id="line2d_17">
      <g>
       <use style="stroke:#000000;stroke-width:0.6;" x="306.091459" xlink:href="#mdd02e941ab" y="232.46"/>
      </g>
     </g>
    </g>
    <g id="xtick_18">
     <g id="line2d_18">
      <g>
       <use style="stroke:#000000;stroke-width:0.6;" x="323.470739" xlink:href="#mdd02e941ab" y="232.46"/>
      </g>
     </g>
    </g>
    <g id="xtick_19">
     <g id="line2d_19">
      <g>
       <use style="stroke:#000000;stroke-width:0.6;" x="336.951156" xlink:href="#mdd02e941ab" y="232.46"/>
      </g>
     </g>
    </g>
    <g id="xtick_20">
     <g id="line2d_20">
      <g>
       <use style="stroke:#000000;stroke-width:0.6;" x="347.965458" xlink:href="#mdd02e941ab" y="232.46"/>
      </g>
     </g>
    </g>
    <g id="xtick_21">
     <g id="line2d_21">
      <g>
       <use style="stroke:#000000;stroke-width:0.6;" x="357.277918" xlink:href="#mdd02e941ab" y="232.46"/>
      </g>
     </g>
    </g>
    <g id="xtick_22">
     <g id="line2d_22">
      <g>
       <use style="stroke:#000000;stroke-width:0.6;" x="365.344738" xlink:href="#mdd02e941ab" y="232.46"/>
      </g>
     </g>
    </g>
    <g id="xtick_23">
     <g id="line2d_23">
      <g>
       <use style="stroke:#000000;stroke-width:0.6;" x="372.460178" xlink:href="#mdd02e941ab" y="232.46"/>
      </g>
     </g>
    </g>
    <g id="text_4">
     <!-- h -->
     <defs>
      <path d="M 41.5 30.203125 
C 41.5 35.296875 40.5 43.59375 28.703125 43.59375 
C 20.5 43.59375 16.5 37 15.296875 33.703125 
L 15.203125 33.703125 
L 15.203125 68.6875 
L 3.296875 67.59375 
L 3.296875 65 
C 9.203125 65 10.09375 64.40625 10.09375 59.640625 
L 10.09375 6.65625 
C 10.09375 2.875 9.703125 2.390625 3.296875 2.390625 
L 3.296875 -0.203125 
C 5.703125 0 10.09375 0 12.703125 0 
C 15.296875 0 19.796875 0 22.203125 -0.203125 
L 22.203125 2.390625 
C 15.796875 2.390625 15.40625 2.78125 15.40625 6.6875 
L 15.40625 25.90625 
C 15.40625 35.109375 21 42 28 42 
C 35.40625 42 36.203125 35.40625 36.203125 30.59375 
L 36.203125 6.6875 
C 36.203125 2.875 35.796875 2.390625 29.40625 2.390625 
L 29.40625 -0.203125 
C 31.796875 0 36.203125 0 38.796875 0 
C 41.40625 0 45.90625 0 48.296875 -0.203125 
L 48.296875 2.390625 
C 41.90625 2.390625 41.5 2.78125 41.5 6.6875 
z
" id="CMR17-104"/>
     </defs>
     <g transform="translate(224.613574 268.698653)scale(0.16 -0.16)">
      <use transform="scale(0.996264)" xlink:href="#CMR17-104"/>
     </g>
    </g>
   </g>
   <g id="matplotlib.axis_2">
    <g id="ytick_1">
     <g id="line2d_24">
      <defs>
       <path d="M 0 0 
L -3.5 0 
" id="m1ae70dbfd1" style="stroke:#000000;stroke-width:0.8;"/>
      </defs>
      <g>
       <use style="stroke:#000000;stroke-width:0.8;" x="64.085486" xlink:href="#m1ae70dbfd1" y="193.501805"/>
      </g>
     </g>
     <g id="text_5">
      <!-- $10^{-6}$ -->
      <defs>
       <path d="M 10.59375 34 
C 10.59375 57.65625 21.796875 63 28.296875 63 
C 30.40625 63 35.5 62.640625 37.5 59 
C 35.90625 59 32.90625 59 32.90625 55.515625 
C 32.90625 52.828125 35.09375 51.921875 36.5 51.921875 
C 37.40625 51.921875 40.09375 52.3125 40.09375 55.625 
C 40.09375 61.78125 35.09375 65.296875 28.203125 65.296875 
C 16.296875 65.296875 3.796875 52.96875 3.796875 31 
C 3.796875 3.953125 15.09375 -2 23.09375 -2 
C 32.796875 -2 42 6.671875 42 20.046875 
C 42 32.515625 33.90625 41.59375 23.703125 41.59375 
C 17.59375 41.59375 13.09375 37.609375 10.59375 30.625 
z
M 23.09375 0.390625 
C 10.796875 0.390625 10.796875 18.75 10.796875 22.4375 
C 10.796875 29.625 14.203125 40 23.5 40 
C 25.203125 40 30.09375 40 33.40625 33.125 
C 35.203125 29.21875 35.203125 25.140625 35.203125 20.140625 
C 35.203125 14.75 35.203125 10.78125 33.09375 6.78125 
C 30.90625 2.671875 27.703125 0.390625 23.09375 0.390625 
z
" id="CMR17-54"/>
      </defs>
      <g transform="translate(27.219897 199.036599)scale(0.16 -0.16)">
       <use transform="scale(0.996264)" xlink:href="#CMR17-49"/>
       <use transform="translate(45.690477 0)scale(0.996264)" xlink:href="#CMR17-48"/>
       <use transform="translate(91.380954 36.153639)scale(0.697382)" xlink:href="#CMSY10-0"/>
       <use transform="translate(145.621947 36.153639)scale(0.697382)" xlink:href="#CMR17-54"/>
      </g>
     </g>
    </g>
    <g id="ytick_2">
     <g id="line2d_25">
      <g>
       <use style="stroke:#000000;stroke-width:0.8;" x="64.085486" xlink:href="#m1ae70dbfd1" y="138.178513"/>
      </g>
     </g>
     <g id="text_6">
      <!-- $10^{-4}$ -->
      <defs>
       <path d="M 33.59375 64.40625 
C 33.59375 66.5 33.5 66.5 31.703125 66.5 
L 2 19.59375 
L 2 17 
L 27.796875 17 
L 27.796875 7.140625 
C 27.796875 3.5 27.59375 2.5 20.59375 2.5 
L 18.703125 2.5 
L 18.703125 0 
C 21.90625 0 27.296875 0 30.703125 0 
C 34.09375 0 39.5 0 42.703125 0 
L 42.703125 2.5 
L 40.796875 2.5 
C 33.796875 2.5 33.59375 3.5 33.59375 7.140625 
L 33.59375 17 
L 43.796875 17 
L 43.796875 19.59375 
L 33.59375 19.59375 
z
M 28.09375 57.859375 
L 28.09375 19.59375 
L 4 19.59375 
z
" id="CMR17-52"/>
      </defs>
      <g transform="translate(27.219897 143.713307)scale(0.16 -0.16)">
       <use transform="scale(0.996264)" xlink:href="#CMR17-49"/>
       <use transform="translate(45.690477 0)scale(0.996264)" xlink:href="#CMR17-48"/>
       <use transform="translate(91.380954 36.153639)scale(0.697382)" xlink:href="#CMSY10-0"/>
       <use transform="translate(145.621947 36.153639)scale(0.697382)" xlink:href="#CMR17-52"/>
      </g>
     </g>
    </g>
    <g id="ytick_3">
     <g id="line2d_26">
      <g>
       <use style="stroke:#000000;stroke-width:0.8;" x="64.085486" xlink:href="#m1ae70dbfd1" y="82.855222"/>
      </g>
     </g>
     <g id="text_7">
      <!-- $10^{-2}$ -->
      <g transform="translate(27.219897 88.390016)scale(0.16 -0.16)">
       <use transform="scale(0.996264)" xlink:href="#CMR17-49"/>
       <use transform="translate(45.690477 0)scale(0.996264)" xlink:href="#CMR17-48"/>
       <use transform="translate(91.380954 36.153639)scale(0.697382)" xlink:href="#CMSY10-0"/>
       <use transform="translate(145.621947 36.153639)scale(0.697382)" xlink:href="#CMR17-50"/>
      </g>
     </g>
    </g>
    <g id="ytick_4">
     <g id="line2d_27">
      <g>
       <use style="stroke:#000000;stroke-width:0.8;" x="64.085486" xlink:href="#m1ae70dbfd1" y="27.53193"/>
      </g>
     </g>
     <g id="text_8">
      <!-- $10^{0}$ -->
      <g transform="translate(35.898442 33.066724)scale(0.16 -0.16)">
       <use transform="scale(0.996264)" xlink:href="#CMR17-49"/>
       <use transform="translate(45.690477 0)scale(0.996264)" xlink:href="#CMR17-48"/>
       <use transform="translate(91.380954 36.153639)scale(0.697382)" xlink:href="#CMR17-48"/>
      </g>
     </g>
    </g>
    <g id="text_9">
     <!-- $\|\boldsymbol{u} - \boldsymbol{u}_h\|_{L_2}$ -->
     <defs>
      <path d="M 17.234375 71.59375 
C 17.234375 73.203125 17.234375 75 15.234375 75 
C 13.234375 75 13.234375 72.796875 13.234375 71.296875 
L 13.234375 -21.296875 
C 13.234375 -22.90625 13.234375 -25 15.234375 -25 
C 17.234375 -25 17.234375 -23.203125 17.234375 -21.59375 
z
M 36.734375 71.296875 
C 36.734375 72.90625 36.734375 75 34.734375 75 
C 32.734375 75 32.734375 73.203125 32.734375 71.59375 
L 32.734375 -21.59375 
C 32.734375 -23.203125 32.734375 -25 34.734375 -25 
C 36.734375 -25 36.734375 -22.796875 36.734375 -21.296875 
z
" id="CMSY10-107"/>
      <path d="M 56.296875 31.5 
C 57 34.296875 58.203125 39.09375 58.203125 39.796875 
C 58.203125 41.890625 56.59375 44.203125 53.5 44.203125 
C 51.90625 44.203125 48.203125 43.296875 46.90625 38.890625 
C 46.5 37.5 42 19.390625 41.203125 16.09375 
C 40.59375 13.78125 39.90625 10.890625 39.703125 9.09375 
C 37.90625 6.6875 34 2.578125 28.90625 2.578125 
C 23 2.578125 22.90625 7.59375 22.90625 9.875 
C 22.90625 15.984375 26 23.78125 28.796875 31 
C 29.796875 33.578125 30.09375 34.296875 30.09375 35.984375 
C 30.09375 41.796875 24.296875 45 18.796875 45 
C 8.203125 45 3.203125 31.390625 3.203125 29.390625 
C 3.203125 28 4.703125 28 5.59375 28 
C 6.796875 28 7.5 28 7.90625 29.296875 
C 11.203125 40.421875 16.59375 41.40625 18.203125 41.40625 
C 18.90625 41.40625 19.90625 41.40625 19.90625 39.3125 
C 19.90625 37.015625 18.703125 34.21875 18.296875 33 
C 14.09375 22.5 12.203125 16.890625 12.203125 12 
C 12.203125 0.59375 22.203125 -1 28.09375 -1 
C 31 -1 35.40625 -0.59375 40.796875 4.484375 
C 44 -0.40625 49.796875 -1 52.203125 -1 
C 55.90625 -1 58.796875 1.09375 60.90625 4.6875 
C 63.40625 8.6875 64.703125 14.09375 64.703125 14.59375 
C 64.703125 15.984375 63.203125 15.984375 62.296875 15.984375 
C 61.203125 15.984375 60.796875 15.984375 60.296875 15.484375 
C 60.09375 15.296875 60.09375 15.09375 59.5 12.59375 
C 57.5 4.796875 55.296875 2.578125 52.703125 2.578125 
C 51.203125 2.578125 50.40625 3.578125 50.40625 6.28125 
C 50.40625 7.984375 50.796875 9.578125 51.796875 13.578125 
C 52.5 16.390625 53.5 20.390625 54 22.59375 
z
" id="CMMIB10-117"/>
      <path d="M 28.09375 66.515625 
C 28.203125 66.921875 28.40625 67.515625 28.40625 68 
C 28.40625 69 27.40625 69 27.203125 69 
C 27.09375 69 22.203125 68.5625 21.703125 68.4375 
C 20 68.328125 18.5 68.09375 16.703125 68.09375 
C 14.203125 67.890625 13.5 67.796875 13.5 66 
C 13.5 65 14.296875 65 15.703125 65 
C 20.59375 65 20.703125 64.109375 20.703125 63.125 
C 20.703125 62.53125 20.5 61.734375 20.40625 61.4375 
L 5.90625 3.875 
C 5.5 2.375 5.5 2.1875 5.5 1.578125 
C 5.5 -0.59375 7.203125 -1 8.203125 -1 
C 9.90625 -1 11.203125 0.296875 11.703125 1.390625 
L 16.203125 19.453125 
C 16.703125 21.65625 17.296875 23.75 17.796875 25.9375 
C 18.90625 30.140625 18.90625 30.234375 20.796875 33.125 
C 22.703125 36.015625 27.203125 42.015625 34.90625 42.015625 
C 38.90625 42.015625 40.296875 39.015625 40.296875 35.03125 
C 40.296875 29.4375 36.40625 18.5625 34.203125 12.578125 
C 33.296875 10.171875 32.796875 8.875 32.796875 7.078125 
C 32.796875 2.59375 35.90625 -1 40.703125 -1 
C 50 -1 53.5 13.671875 53.5 14.265625 
C 53.5 14.765625 53.09375 15.171875 52.5 15.171875 
C 51.59375 15.171875 51.5 14.875 51 13.171875 
C 48.703125 5.1875 45 1 41 1 
C 40 1 38.40625 1 38.40625 4.203125 
C 38.40625 6.8125 39.59375 10 40 11.09375 
C 41.796875 15.90625 46.296875 27.703125 46.296875 33.515625 
C 46.296875 39.5 42.796875 44 35.203125 44 
C 29.5 44 24.5 41.3125 20.40625 36.125 
z
" id="CMMI12-104"/>
      <path d="M 36.703125 60.328125 
C 37.59375 64.109375 37.90625 65.109375 46.703125 65.109375 
C 49.40625 65.109375 50.09375 65.109375 50.09375 67 
C 50.09375 68 49 68 48.59375 68 
C 46.59375 68 44.296875 68 42.296875 68 
L 28.90625 68 
C 27 68 24.796875 68 22.90625 68 
C 22.09375 68 21 68 21 66.109375 
C 21 65.109375 21.90625 65.109375 23.40625 65.109375 
C 29.5 65.109375 29.5 64.3125 29.5 63.21875 
C 29.5 63.03125 29.5 62.421875 29.09375 60.921875 
L 15.59375 7.375 
C 14.703125 3.890625 14.5 2.890625 7.5 2.890625 
C 5.59375 2.890625 4.59375 2.890625 4.59375 1.09375 
C 4.59375 0 5.203125 0 7.203125 0 
L 52 0 
C 54.203125 0 54.296875 0.09375 55 1.890625 
L 62.703125 23.09375 
C 62.90625 23.59375 63.09375 24.1875 63.09375 24.484375 
C 63.09375 25.078125 62.59375 25.484375 62.09375 25.484375 
C 62 25.484375 61.5 25.484375 61.296875 25.078125 
C 61.09375 24.984375 61.09375 24.78125 60.296875 22.890625 
C 57.09375 14.140625 52.59375 2.890625 35.703125 2.890625 
L 26.09375 2.890625 
C 24.703125 2.890625 24.5 2.890625 23.90625 3 
C 22.796875 3.09375 22.703125 3.296875 22.703125 4.09375 
C 22.703125 4.796875 22.90625 5.390625 23.09375 6.265625 
z
" id="CMMI12-76"/>
     </defs>
     <g transform="translate(20.12042 159.524409)rotate(-90)scale(0.16 -0.16)">
      <use transform="translate(0 25.404611)scale(0.996264)" xlink:href="#CMSY10-107"/>
      <use transform="translate(49.813383 25.404611)scale(0.996264)" xlink:href="#CMMIB10-117"/>
      <use transform="translate(139.799847 25.404611)scale(0.996264)" xlink:href="#CMSY10-0"/>
      <use transform="translate(239.426522 25.404611)scale(0.996264)" xlink:href="#CMMIB10-117"/>
      <use transform="translate(307.273779 10.460696)scale(0.697382)" xlink:href="#CMMI12-104"/>
      <use transform="translate(347.079966 25.404611)scale(0.996264)" xlink:href="#CMSY10-107"/>
      <use transform="translate(396.893349 10.460696)scale(0.697382)" xlink:href="#CMMI12-76"/>
      <use transform="translate(443.352762 0)scale(0.498132)" xlink:href="#CMR17-50"/>
     </g>
    </g>
   </g>
   <g id="line2d_28">
    <path clip-path="url(#p0f97a48034)" d="M 79.073089 87.140065 
L 132.783916 76.45923 
L 160.759518 70.896054 
L 179.806806 67.108346 
L 194.26636 64.232947 
L 205.924713 61.914588 
L 215.693042 59.972077 
L 224.09952 58.30038 
L 231.477824 56.833144 
L 238.052272 55.525762 
L 243.980942 54.346798 
L 249.379426 53.273265 
L 254.334816 52.287846 
L 258.914363 51.377166 
L 263.171082 50.530682 
L 267.147505 49.739938 
L 270.878277 48.998044 
L 274.39199 48.299314 
L 277.71252 47.638999 
L 280.860006 47.013096 
L 283.851594 46.418195 
L 286.702002 45.851368 
L 289.423956 45.310085 
L 292.028537 44.792143 
L 294.52545 44.295611 
L 296.923244 43.818791 
L 299.22949 43.360175 
L 301.45092 42.918425 
L 303.593554 42.492345 
L 305.66279 42.080861 
L 307.663491 41.683005 
L 309.600051 41.297905 
L 311.476456 40.924766 
L 313.29633 40.562869 
L 315.062981 40.211557 
L 316.779433 39.870226 
L 318.44846 39.538327 
L 320.072613 39.215351 
L 321.654241 38.900831 
L 323.195516 38.594336 
L 324.698444 38.295467 
L 326.164887 38.003852 
L 327.596576 37.719149 
L 328.995119 37.441038 
L 330.362017 37.169219 
L 331.69867 36.903415 
L 333.006387 36.643364 
L 334.286395 36.388824 
L 335.539844 36.139566 
L 336.767813 35.895374 
L 337.971318 35.656048 
L 339.151315 35.421396 
L 340.308704 35.191239 
L 341.444335 34.96541 
L 342.559012 34.743747 
L 343.653493 34.526101 
L 344.728498 34.312327 
L 345.784708 34.102291 
L 346.822768 33.895865 
L 347.843292 33.692925 
L 348.846862 33.493357 
L 349.834032 33.29705 
L 350.805331 33.1039 
L 351.76126 32.913806 
L 352.702297 32.726673 
L 353.628901 32.54241 
L 354.541506 32.360931 
L 355.440531 32.182153 
L 356.326372 32.005996 
L 357.199411 31.832385 
L 358.060013 31.661247 
L 358.908527 31.492513 
L 359.745288 31.326117 
L 360.570617 31.161993 
L 361.384823 31.000082 
L 362.1882 30.840324 
L 362.981034 30.682662 
L 363.763598 30.527043 
L 364.536154 30.373414 
L 365.298955 30.221725 
L 366.052244 30.071927 
L 366.796255 29.923974 
L 367.531215 29.777822 
L 368.257341 29.633426 
L 368.974843 29.490745 
L 369.683923 29.349738 
L 370.384776 29.210368 
L 371.077592 29.072596 
L 371.762552 28.936386 
L 372.439834 28.801703 
L 373.109606 28.668513 
L 373.772034 28.536784 
L 374.427276 28.406484 
L 375.075488 28.277582 
L 375.716819 28.150048 
L 376.351413 28.023854 
L 376.979409 27.898972 
L 377.600945 27.775374 
L 378.216151 27.653035 
L 378.825155 27.53193 
" style="fill:none;stroke:#808080;stroke-dasharray:5.55,2.4;stroke-dashoffset:0;stroke-width:1.5;"/>
   </g>
   <g id="line2d_29">
    <path clip-path="url(#p0f97a48034)" d="M 79.073089 146.7482 
L 132.783916 125.38653 
L 160.759518 114.260179 
L 179.806806 106.684763 
L 194.26636 100.933963 
L 205.924713 96.297246 
L 215.693042 92.412223 
L 224.09952 89.06883 
L 231.477824 86.134359 
L 238.052272 83.519594 
L 243.980942 81.161666 
L 249.379426 79.014601 
L 254.334816 77.043762 
L 258.914363 75.222401 
L 263.171082 73.529435 
L 267.147505 71.947947 
L 270.878277 70.464158 
L 274.39199 69.066697 
L 277.71252 67.746069 
L 280.860006 66.494262 
L 283.851594 65.304459 
L 286.702002 64.170805 
L 289.423956 63.08824 
L 292.028537 62.052356 
L 294.52545 61.059293 
L 296.923244 60.105651 
L 299.22949 59.18842 
L 301.45092 58.304921 
L 303.593554 57.452761 
L 305.66279 56.629792 
L 307.663491 55.834081 
L 309.600051 55.063879 
L 311.476456 54.317602 
L 313.29633 53.593809 
L 315.062981 52.891183 
L 316.779433 52.208522 
L 318.44846 51.544723 
L 320.072613 50.898771 
L 321.654241 50.269732 
L 323.195516 49.656742 
L 324.698444 49.059003 
L 326.164887 48.475775 
L 327.596576 47.906369 
L 328.995119 47.350145 
L 330.362017 46.806508 
L 331.69867 46.274899 
L 333.006387 45.754799 
L 334.286395 45.245719 
L 335.539844 44.747202 
L 336.767813 44.258819 
L 337.971318 43.780165 
L 339.151315 43.310861 
L 340.308704 42.850549 
L 341.444335 42.39889 
L 342.559012 41.955565 
L 343.653493 41.520272 
L 344.728498 41.092725 
L 345.784708 40.672653 
L 346.822768 40.2598 
L 347.843292 39.853921 
L 348.846862 39.454785 
L 349.834032 39.062171 
L 350.805331 38.67587 
L 351.76126 38.295681 
L 352.702297 37.921415 
L 353.628901 37.55289 
L 354.541506 37.189932 
L 355.440531 36.832375 
L 356.326372 36.480062 
L 357.199411 36.13284 
L 358.060013 35.790565 
L 358.908527 35.453097 
L 359.745288 35.120303 
L 360.570617 34.792056 
L 361.384823 34.468234 
L 362.1882 34.148717 
L 362.981034 33.833394 
L 363.763598 33.522156 
L 364.536154 33.214898 
L 365.298955 32.91152 
L 366.052244 32.611924 
L 366.796255 32.316019 
L 367.531215 32.023713 
L 368.257341 31.734921 
L 368.974843 31.449559 
L 369.683923 31.167547 
L 370.384776 30.888806 
L 371.077592 30.613262 
L 371.762552 30.340842 
L 372.439834 30.071476 
L 373.109606 29.805097 
L 373.772034 29.541639 
L 374.427276 29.281038 
L 375.075488 29.023233 
L 375.716819 28.768166 
L 376.351413 28.515778 
L 376.979409 28.266013 
L 377.600945 28.018818 
L 378.216151 27.774141 
L 378.825155 27.53193 
" style="fill:none;stroke:#808080;stroke-dasharray:9.6,2.4,1.5,2.4;stroke-dashoffset:0;stroke-width:1.5;"/>
   </g>
   <g id="line2d_30">
    <path clip-path="url(#p0f97a48034)" d="M 79.073089 206.356334 
L 132.783916 174.31383 
L 160.759518 157.624303 
L 179.806806 146.261179 
L 194.26636 137.63498 
L 205.924713 130.679904 
L 215.693042 124.85237 
L 224.09952 119.837281 
L 231.477824 115.435573 
L 238.052272 111.513426 
L 243.980942 107.976534 
L 249.379426 104.755936 
L 254.334816 101.799677 
L 258.914363 99.067637 
L 263.171082 96.528187 
L 267.147505 94.155955 
L 270.878277 91.930273 
L 274.39199 89.834081 
L 277.71252 87.853138 
L 280.860006 85.975428 
L 283.851594 84.190724 
L 286.702002 82.490243 
L 289.423956 80.866395 
L 292.028537 79.312569 
L 294.52545 77.822974 
L 296.923244 76.392512 
L 299.22949 75.016665 
L 301.45092 73.691416 
L 303.593554 72.413176 
L 305.66279 71.178723 
L 307.663491 69.985156 
L 309.600051 68.829854 
L 311.476456 67.710439 
L 313.29633 66.624748 
L 315.062981 65.57081 
L 316.779433 64.546818 
L 318.44846 63.55112 
L 320.072613 62.582192 
L 321.654241 61.638633 
L 323.195516 60.719148 
L 324.698444 59.82254 
L 326.164887 58.947697 
L 327.596576 58.093588 
L 328.995119 57.259253 
L 330.362017 56.443797 
L 331.69867 55.646384 
L 333.006387 54.866233 
L 334.286395 54.102613 
L 335.539844 53.354838 
L 336.767813 52.622263 
L 337.971318 51.904283 
L 339.151315 51.200327 
L 340.308704 50.509858 
L 341.444335 49.83237 
L 342.559012 49.167382 
L 343.653493 48.514442 
L 344.728498 47.873122 
L 345.784708 47.243014 
L 346.822768 46.623734 
L 347.843292 46.014916 
L 348.846862 45.416212 
L 349.834032 44.827291 
L 350.805331 44.247839 
L 351.76126 43.677557 
L 352.702297 43.116158 
L 353.628901 42.56337 
L 354.541506 42.018933 
L 355.440531 41.482598 
L 356.326372 40.954128 
L 357.199411 40.433295 
L 358.060013 39.919882 
L 358.908527 39.41368 
L 359.745288 38.91449 
L 360.570617 38.42212 
L 361.384823 37.936386 
L 362.1882 37.457111 
L 362.981034 36.984127 
L 363.763598 36.517269 
L 364.536154 36.056382 
L 365.298955 35.601315 
L 366.052244 35.151922 
L 366.796255 34.708063 
L 367.531215 34.269605 
L 368.257341 33.836417 
L 368.974843 33.408374 
L 369.683923 32.985355 
L 370.384776 32.567244 
L 371.077592 32.153928 
L 371.762552 31.745298 
L 372.439834 31.341249 
L 373.109606 30.94168 
L 373.772034 30.546493 
L 374.427276 30.155592 
L 375.075488 29.768885 
L 375.716819 29.386284 
L 376.351413 29.007701 
L 376.979409 28.633055 
L 377.600945 28.262262 
L 378.216151 27.895246 
L 378.825155 27.53193 
" style="fill:none;stroke:#808080;stroke-dasharray:1.5,2.475;stroke-dashoffset:0;stroke-width:1.5;"/>
   </g>
   <g id="line2d_31">
    <path clip-path="url(#p0f97a48034)" d="M 378.825155 53.053971 
L 336.951156 74.337589 
L 295.077156 98.02028 
L 253.203157 122.623177 
L 211.329158 147.485087 
L 169.455159 172.430521 
L 127.581159 197.401641 
L 85.70716 222.38 
" style="fill:none;stroke:#1f77b4;stroke-linecap:square;stroke-width:1.5;"/>
    <defs>
     <path d="M 0 3 
C 0.795609 3 1.55874 2.683901 2.12132 2.12132 
C 2.683901 1.55874 3 0.795609 3 0 
C 3 -0.795609 2.683901 -1.55874 2.12132 -2.12132 
C 1.55874 -2.683901 0.795609 -3 0 -3 
C -0.795609 -3 -1.55874 -2.683901 -2.12132 -2.12132 
C -2.683901 -1.55874 -3 -0.795609 -3 0 
C -3 0.795609 -2.683901 1.55874 -2.12132 2.12132 
C -1.55874 2.683901 -0.795609 3 0 3 
z
" id="mc0f3c349ab" style="stroke:#1f77b4;"/>
    </defs>
    <g clip-path="url(#p0f97a48034)">
     <use style="fill:#1f77b4;stroke:#1f77b4;" x="378.825155" xlink:href="#mc0f3c349ab" y="53.053971"/>
     <use style="fill:#1f77b4;stroke:#1f77b4;" x="336.951156" xlink:href="#mc0f3c349ab" y="74.337589"/>
     <use style="fill:#1f77b4;stroke:#1f77b4;" x="295.077156" xlink:href="#mc0f3c349ab" y="98.02028"/>
     <use style="fill:#1f77b4;stroke:#1f77b4;" x="253.203157" xlink:href="#mc0f3c349ab" y="122.623177"/>
     <use style="fill:#1f77b4;stroke:#1f77b4;" x="211.329158" xlink:href="#mc0f3c349ab" y="147.485087"/>
     <use style="fill:#1f77b4;stroke:#1f77b4;" x="169.455159" xlink:href="#mc0f3c349ab" y="172.430521"/>
     <use style="fill:#1f77b4;stroke:#1f77b4;" x="127.581159" xlink:href="#mc0f3c349ab" y="197.401641"/>
     <use style="fill:#1f77b4;stroke:#1f77b4;" x="85.70716" xlink:href="#mc0f3c349ab" y="222.38"/>
    </g>
   </g>
   <g id="line2d_32">
    <path clip-path="url(#p0f97a48034)" d="M 378.825155 46.871197 
L 336.951156 67.379008 
L 295.077156 91.031279 
L 253.203157 115.792895 
L 211.329158 140.715214 
L 169.455159 165.676241 
L 127.581159 190.651108 
L 85.70716 215.630369 
" style="fill:none;stroke:#ff7f0e;stroke-linecap:square;stroke-width:1.5;"/>
    <defs>
     <path d="M -1.5 3 
L 0 1.5 
L 1.5 3 
L 3 1.5 
L 1.5 0 
L 3 -1.5 
L 1.5 -3 
L 0 -1.5 
L -1.5 -3 
L -3 -1.5 
L -1.5 0 
L -3 1.5 
z
" id="m71c91310aa" style="stroke:#ff7f0e;stroke-linejoin:miter;"/>
    </defs>
    <g clip-path="url(#p0f97a48034)">
     <use style="fill:#ff7f0e;stroke:#ff7f0e;stroke-linejoin:miter;" x="378.825155" xlink:href="#m71c91310aa" y="46.871197"/>
     <use style="fill:#ff7f0e;stroke:#ff7f0e;stroke-linejoin:miter;" x="336.951156" xlink:href="#m71c91310aa" y="67.379008"/>
     <use style="fill:#ff7f0e;stroke:#ff7f0e;stroke-linejoin:miter;" x="295.077156" xlink:href="#m71c91310aa" y="91.031279"/>
     <use style="fill:#ff7f0e;stroke:#ff7f0e;stroke-linejoin:miter;" x="253.203157" xlink:href="#m71c91310aa" y="115.792895"/>
     <use style="fill:#ff7f0e;stroke:#ff7f0e;stroke-linejoin:miter;" x="211.329158" xlink:href="#m71c91310aa" y="140.715214"/>
     <use style="fill:#ff7f0e;stroke:#ff7f0e;stroke-linejoin:miter;" x="169.455159" xlink:href="#m71c91310aa" y="165.676241"/>
     <use style="fill:#ff7f0e;stroke:#ff7f0e;stroke-linejoin:miter;" x="127.581159" xlink:href="#m71c91310aa" y="190.651108"/>
     <use style="fill:#ff7f0e;stroke:#ff7f0e;stroke-linejoin:miter;" x="85.70716" xlink:href="#m71c91310aa" y="215.630369"/>
    </g>
   </g>
   <g id="line2d_33">
    <path clip-path="url(#p0f97a48034)" d="M 378.825155 37.597513 
L 336.951156 57.802951 
L 295.077156 81.641233 
L 253.203157 106.878239 
L 211.329158 132.032181 
L 169.455159 157.062919 
L 127.581159 182.056062 
L 85.70716 207.039957 
" style="fill:none;stroke:#2ca02c;stroke-linecap:square;stroke-width:1.5;"/>
    <defs>
     <path d="M -1 3 
L 1 3 
L 1 1 
L 3 1 
L 3 -1 
L 1 -1 
L 1 -3 
L -1 -3 
L -1 -1 
L -3 -1 
L -3 1 
L -1 1 
z
" id="m36d30fe56a" style="stroke:#2ca02c;stroke-linejoin:miter;"/>
    </defs>
    <g clip-path="url(#p0f97a48034)">
     <use style="fill:#2ca02c;stroke:#2ca02c;stroke-linejoin:miter;" x="378.825155" xlink:href="#m36d30fe56a" y="37.597513"/>
     <use style="fill:#2ca02c;stroke:#2ca02c;stroke-linejoin:miter;" x="336.951156" xlink:href="#m36d30fe56a" y="57.802951"/>
     <use style="fill:#2ca02c;stroke:#2ca02c;stroke-linejoin:miter;" x="295.077156" xlink:href="#m36d30fe56a" y="81.641233"/>
     <use style="fill:#2ca02c;stroke:#2ca02c;stroke-linejoin:miter;" x="253.203157" xlink:href="#m36d30fe56a" y="106.878239"/>
     <use style="fill:#2ca02c;stroke:#2ca02c;stroke-linejoin:miter;" x="211.329158" xlink:href="#m36d30fe56a" y="132.032181"/>
     <use style="fill:#2ca02c;stroke:#2ca02c;stroke-linejoin:miter;" x="169.455159" xlink:href="#m36d30fe56a" y="157.062919"/>
     <use style="fill:#2ca02c;stroke:#2ca02c;stroke-linejoin:miter;" x="127.581159" xlink:href="#m36d30fe56a" y="182.056062"/>
     <use style="fill:#2ca02c;stroke:#2ca02c;stroke-linejoin:miter;" x="85.70716" xlink:href="#m36d30fe56a" y="207.039957"/>
    </g>
   </g>
   <g id="line2d_34">
    <path clip-path="url(#p0f97a48034)" d="M 378.825155 20.78 
L 336.951156 40.690064 
L 295.077156 65.543815 
L 253.203157 90.529388 
L 211.329158 115.593608 
L 169.455159 140.60678 
L 127.581159 165.596559 
L 85.70716 190.579751 
" style="fill:none;stroke:#d62728;stroke-linecap:square;stroke-width:1.5;"/>
    <defs>
     <path d="M -0 3 
L 3 -3 
L -3 -3 
z
" id="mdf6efa020a" style="stroke:#d62728;stroke-linejoin:miter;"/>
    </defs>
    <g clip-path="url(#p0f97a48034)">
     <use style="fill:#d62728;stroke:#d62728;stroke-linejoin:miter;" x="378.825155" xlink:href="#mdf6efa020a" y="20.78"/>
     <use style="fill:#d62728;stroke:#d62728;stroke-linejoin:miter;" x="336.951156" xlink:href="#mdf6efa020a" y="40.690064"/>
     <use style="fill:#d62728;stroke:#d62728;stroke-linejoin:miter;" x="295.077156" xlink:href="#mdf6efa020a" y="65.543815"/>
     <use style="fill:#d62728;stroke:#d62728;stroke-linejoin:miter;" x="253.203157" xlink:href="#mdf6efa020a" y="90.529388"/>
     <use style="fill:#d62728;stroke:#d62728;stroke-linejoin:miter;" x="211.329158" xlink:href="#mdf6efa020a" y="115.593608"/>
     <use style="fill:#d62728;stroke:#d62728;stroke-linejoin:miter;" x="169.455159" xlink:href="#mdf6efa020a" y="140.60678"/>
     <use style="fill:#d62728;stroke:#d62728;stroke-linejoin:miter;" x="127.581159" xlink:href="#mdf6efa020a" y="165.596559"/>
     <use style="fill:#d62728;stroke:#d62728;stroke-linejoin:miter;" x="85.70716" xlink:href="#mdf6efa020a" y="190.579751"/>
    </g>
   </g>
   <g id="patch_3">
    <path d="M 64.085486 232.46 
L 64.085486 10.7 
" style="fill:none;stroke:#000000;stroke-linecap:square;stroke-linejoin:miter;stroke-width:0.8;"/>
   </g>
   <g id="patch_4">
    <path d="M 393.812758 232.46 
L 393.812758 10.7 
" style="fill:none;stroke:#000000;stroke-linecap:square;stroke-linejoin:miter;stroke-width:0.8;"/>
   </g>
   <g id="patch_5">
    <path d="M 64.085486 232.46 
L 393.812758 232.46 
" style="fill:none;stroke:#000000;stroke-linecap:square;stroke-linejoin:miter;stroke-width:0.8;"/>
   </g>
   <g id="patch_6">
    <path d="M 64.085486 10.7 
L 393.812758 10.7 
" style="fill:none;stroke:#000000;stroke-linecap:square;stroke-linejoin:miter;stroke-width:0.8;"/>
   </g>
  </g>
  <g id="axes_2">
   <g id="patch_7">
    <path d="M 459.758213 232.46 
L 789.485486 232.46 
L 789.485486 10.7 
L 459.758213 10.7 
z
" style="fill:#ffffff;"/>
   </g>
   <g id="matplotlib.axis_3">
    <g id="xtick_24">
     <g id="line2d_35">
      <g>
       <use style="stroke:#000000;stroke-width:0.8;" x="496.293053" xlink:href="#mcf0a443741" y="232.46"/>
      </g>
     </g>
     <g id="text_10">
      <!-- $10^{-2}$ -->
      <g transform="translate(481.360258 250.529588)scale(0.16 -0.16)">
       <use transform="scale(0.996264)" xlink:href="#CMR17-49"/>
       <use transform="translate(45.690477 0)scale(0.996264)" xlink:href="#CMR17-48"/>
       <use transform="translate(91.380954 36.153639)scale(0.697382)" xlink:href="#CMSY10-0"/>
       <use transform="translate(145.621947 36.153639)scale(0.697382)" xlink:href="#CMR17-50"/>
      </g>
     </g>
    </g>
    <g id="xtick_25">
     <g id="line2d_36">
      <g>
       <use style="stroke:#000000;stroke-width:0.8;" x="635.395468" xlink:href="#mcf0a443741" y="232.46"/>
      </g>
     </g>
     <g id="text_11">
      <!-- $10^{-1}$ -->
      <g transform="translate(620.462673 250.529588)scale(0.16 -0.16)">
       <use transform="scale(0.996264)" xlink:href="#CMR17-49"/>
       <use transform="translate(45.690477 0)scale(0.996264)" xlink:href="#CMR17-48"/>
       <use transform="translate(91.380954 36.153639)scale(0.697382)" xlink:href="#CMSY10-0"/>
       <use transform="translate(145.621947 36.153639)scale(0.697382)" xlink:href="#CMR17-49"/>
      </g>
     </g>
    </g>
    <g id="xtick_26">
     <g id="line2d_37">
      <g>
       <use style="stroke:#000000;stroke-width:0.8;" x="774.497882" xlink:href="#mcf0a443741" y="232.46"/>
      </g>
     </g>
     <g id="text_12">
      <!-- $10^{0}$ -->
      <g transform="translate(763.904361 250.529588)scale(0.16 -0.16)">
       <use transform="scale(0.996264)" xlink:href="#CMR17-49"/>
       <use transform="translate(45.690477 0)scale(0.996264)" xlink:href="#CMR17-48"/>
       <use transform="translate(91.380954 36.153639)scale(0.697382)" xlink:href="#CMR17-48"/>
      </g>
     </g>
    </g>
    <g id="xtick_27">
     <g id="line2d_38">
      <g>
       <use style="stroke:#000000;stroke-width:0.6;" x="465.433356" xlink:href="#mdd02e941ab" y="232.46"/>
      </g>
     </g>
    </g>
    <g id="xtick_28">
     <g id="line2d_39">
      <g>
       <use style="stroke:#000000;stroke-width:0.6;" x="474.745816" xlink:href="#mdd02e941ab" y="232.46"/>
      </g>
     </g>
    </g>
    <g id="xtick_29">
     <g id="line2d_40">
      <g>
       <use style="stroke:#000000;stroke-width:0.6;" x="482.812636" xlink:href="#mdd02e941ab" y="232.46"/>
      </g>
     </g>
    </g>
    <g id="xtick_30">
     <g id="line2d_41">
      <g>
       <use style="stroke:#000000;stroke-width:0.6;" x="489.928075" xlink:href="#mdd02e941ab" y="232.46"/>
      </g>
     </g>
    </g>
    <g id="xtick_31">
     <g id="line2d_42">
      <g>
       <use style="stroke:#000000;stroke-width:0.6;" x="538.167052" xlink:href="#mdd02e941ab" y="232.46"/>
      </g>
     </g>
    </g>
    <g id="xtick_32">
     <g id="line2d_43">
      <g>
       <use style="stroke:#000000;stroke-width:0.6;" x="562.661771" xlink:href="#mdd02e941ab" y="232.46"/>
      </g>
     </g>
    </g>
    <g id="xtick_33">
     <g id="line2d_44">
      <g>
       <use style="stroke:#000000;stroke-width:0.6;" x="580.041051" xlink:href="#mdd02e941ab" y="232.46"/>
      </g>
     </g>
    </g>
    <g id="xtick_34">
     <g id="line2d_45">
      <g>
       <use style="stroke:#000000;stroke-width:0.6;" x="593.521468" xlink:href="#mdd02e941ab" y="232.46"/>
      </g>
     </g>
    </g>
    <g id="xtick_35">
     <g id="line2d_46">
      <g>
       <use style="stroke:#000000;stroke-width:0.6;" x="604.535771" xlink:href="#mdd02e941ab" y="232.46"/>
      </g>
     </g>
    </g>
    <g id="xtick_36">
     <g id="line2d_47">
      <g>
       <use style="stroke:#000000;stroke-width:0.6;" x="613.848231" xlink:href="#mdd02e941ab" y="232.46"/>
      </g>
     </g>
    </g>
    <g id="xtick_37">
     <g id="line2d_48">
      <g>
       <use style="stroke:#000000;stroke-width:0.6;" x="621.915051" xlink:href="#mdd02e941ab" y="232.46"/>
      </g>
     </g>
    </g>
    <g id="xtick_38">
     <g id="line2d_49">
      <g>
       <use style="stroke:#000000;stroke-width:0.6;" x="629.03049" xlink:href="#mdd02e941ab" y="232.46"/>
      </g>
     </g>
    </g>
    <g id="xtick_39">
     <g id="line2d_50">
      <g>
       <use style="stroke:#000000;stroke-width:0.6;" x="677.269467" xlink:href="#mdd02e941ab" y="232.46"/>
      </g>
     </g>
    </g>
    <g id="xtick_40">
     <g id="line2d_51">
      <g>
       <use style="stroke:#000000;stroke-width:0.6;" x="701.764186" xlink:href="#mdd02e941ab" y="232.46"/>
      </g>
     </g>
    </g>
    <g id="xtick_41">
     <g id="line2d_52">
      <g>
       <use style="stroke:#000000;stroke-width:0.6;" x="719.143466" xlink:href="#mdd02e941ab" y="232.46"/>
      </g>
     </g>
    </g>
    <g id="xtick_42">
     <g id="line2d_53">
      <g>
       <use style="stroke:#000000;stroke-width:0.6;" x="732.623883" xlink:href="#mdd02e941ab" y="232.46"/>
      </g>
     </g>
    </g>
    <g id="xtick_43">
     <g id="line2d_54">
      <g>
       <use style="stroke:#000000;stroke-width:0.6;" x="743.638186" xlink:href="#mdd02e941ab" y="232.46"/>
      </g>
     </g>
    </g>
    <g id="xtick_44">
     <g id="line2d_55">
      <g>
       <use style="stroke:#000000;stroke-width:0.6;" x="752.950646" xlink:href="#mdd02e941ab" y="232.46"/>
      </g>
     </g>
    </g>
    <g id="xtick_45">
     <g id="line2d_56">
      <g>
       <use style="stroke:#000000;stroke-width:0.6;" x="761.017465" xlink:href="#mdd02e941ab" y="232.46"/>
      </g>
     </g>
    </g>
    <g id="xtick_46">
     <g id="line2d_57">
      <g>
       <use style="stroke:#000000;stroke-width:0.6;" x="768.132905" xlink:href="#mdd02e941ab" y="232.46"/>
      </g>
     </g>
    </g>
    <g id="text_13">
     <!-- h -->
     <g transform="translate(620.286301 268.698653)scale(0.16 -0.16)">
      <use transform="scale(0.996264)" xlink:href="#CMR17-104"/>
     </g>
    </g>
   </g>
   <g id="matplotlib.axis_4">
    <g id="ytick_5">
     <g id="line2d_58">
      <g>
       <use style="stroke:#000000;stroke-width:0.8;" x="459.758213" xlink:href="#m1ae70dbfd1" y="181.898978"/>
      </g>
     </g>
     <g id="text_14">
      <!-- $10^{-5}$ -->
      <defs>
       <path d="M 11.40625 57.6875 
C 12.40625 57.28125 16.5 56 20.703125 56 
C 30 56 35.09375 61.109375 38 64.0625 
C 38 64.953125 38 65.5 37.40625 65.5 
C 37.296875 65.5 37.09375 65.5 36.296875 65.046875 
C 32.796875 63.40625 28.703125 62.078125 23.703125 62.078125 
C 20.703125 62.078125 16.203125 62.484375 11.296875 64.671875 
C 10.203125 65.171875 10 65.171875 9.90625 65.171875 
C 9.40625 65.171875 9.296875 65.0625 9.296875 63.078125 
L 9.296875 34.421875 
C 9.296875 32.640625 9.296875 32.140625 10.296875 32.140625 
C 10.796875 32.140625 11 32.34375 11.5 33.03125 
C 14.703125 37.515625 19.09375 39.40625 24.09375 39.40625 
C 27.59375 39.40625 35.09375 37.21875 35.09375 20.140625 
C 35.09375 16.953125 35.09375 11.171875 32.09375 6.578125 
C 29.59375 2.484375 25.703125 0.390625 21.40625 0.390625 
C 14.796875 0.390625 8.09375 5 6.296875 12.71875 
C 6.703125 12.609375 7.5 12.421875 7.90625 12.421875 
C 9.203125 12.421875 11.703125 13.125 11.703125 16.21875 
C 11.703125 18.90625 9.796875 20 7.90625 20 
C 5.59375 20 4.09375 18.59375 4.09375 15.796875 
C 4.09375 7.09375 11 -2 21.59375 -2 
C 31.90625 -2 41.703125 6.875 41.703125 19.75 
C 41.703125 31.71875 33.90625 41 24.203125 41 
C 19.09375 41 14.796875 39.109375 11.40625 35.53125 
z
" id="CMR17-53"/>
      </defs>
      <g transform="translate(422.892624 187.433772)scale(0.16 -0.16)">
       <use transform="scale(0.996264)" xlink:href="#CMR17-49"/>
       <use transform="translate(45.690477 0)scale(0.996264)" xlink:href="#CMR17-48"/>
       <use transform="translate(91.380954 36.153639)scale(0.697382)" xlink:href="#CMSY10-0"/>
       <use transform="translate(145.621947 36.153639)scale(0.697382)" xlink:href="#CMR17-53"/>
      </g>
     </g>
    </g>
    <g id="ytick_6">
     <g id="line2d_59">
      <g>
       <use style="stroke:#000000;stroke-width:0.8;" x="459.758213" xlink:href="#m1ae70dbfd1" y="130.053935"/>
      </g>
     </g>
     <g id="text_15">
      <!-- $10^{-3}$ -->
      <defs>
       <path d="M 22.09375 33.703125 
C 31 33.703125 34.90625 25.96875 34.90625 17.03125 
C 34.90625 5 28.5 0.390625 22.703125 0.390625 
C 17.40625 0.390625 8.796875 3.03125 6.09375 10.828125 
C 6.59375 10.625 7.09375 10.625 7.59375 10.625 
C 10 10.625 11.796875 12.21875 11.796875 14.8125 
C 11.796875 17.703125 9.59375 19 7.59375 19 
C 5.90625 19 3.296875 18.203125 3.296875 14.46875 
C 3.296875 5.234375 12.296875 -2 22.90625 -2 
C 34 -2 42.5 6.71875 42.5 16.953125 
C 42.5 26.671875 34.5 33.703125 25 34.796875 
C 32.59375 36.375 39.90625 43.0625 39.90625 52.015625 
C 39.90625 59.6875 32 65.296875 23 65.296875 
C 13.90625 65.296875 5.90625 59.828125 5.90625 52.015625 
C 5.90625 48.59375 8.5 48 9.796875 48 
C 11.90625 48 13.703125 49.296875 13.703125 51.890625 
C 13.703125 54.46875 11.90625 55.765625 9.796875 55.765625 
C 9.40625 55.765625 8.90625 55.765625 8.5 55.578125 
C 11.40625 61.859375 19.296875 63 22.796875 63 
C 26.296875 63 32.90625 61.328125 32.90625 51.875 
C 32.90625 49.109375 32.5 44.1875 29.09375 39.84375 
C 26.09375 36 22.703125 36 19.40625 35.6875 
C 18.90625 35.6875 16.59375 35.453125 16.203125 35.453125 
C 15.5 35.359375 15.09375 35.265625 15.09375 34.5 
C 15.09375 33.796875 15.203125 33.703125 17.203125 33.703125 
z
" id="CMR17-51"/>
      </defs>
      <g transform="translate(422.892624 135.588729)scale(0.16 -0.16)">
       <use transform="scale(0.996264)" xlink:href="#CMR17-49"/>
       <use transform="translate(45.690477 0)scale(0.996264)" xlink:href="#CMR17-48"/>
       <use transform="translate(91.380954 36.153639)scale(0.697382)" xlink:href="#CMSY10-0"/>
       <use transform="translate(145.621947 36.153639)scale(0.697382)" xlink:href="#CMR17-51"/>
      </g>
     </g>
    </g>
    <g id="ytick_7">
     <g id="line2d_60">
      <g>
       <use style="stroke:#000000;stroke-width:0.8;" x="459.758213" xlink:href="#m1ae70dbfd1" y="78.208892"/>
      </g>
     </g>
     <g id="text_16">
      <!-- $10^{-1}$ -->
      <g transform="translate(422.892624 83.743686)scale(0.16 -0.16)">
       <use transform="scale(0.996264)" xlink:href="#CMR17-49"/>
       <use transform="translate(45.690477 0)scale(0.996264)" xlink:href="#CMR17-48"/>
       <use transform="translate(91.380954 36.153639)scale(0.697382)" xlink:href="#CMSY10-0"/>
       <use transform="translate(145.621947 36.153639)scale(0.697382)" xlink:href="#CMR17-49"/>
      </g>
     </g>
    </g>
    <g id="ytick_8">
     <g id="line2d_61">
      <g>
       <use style="stroke:#000000;stroke-width:0.8;" x="459.758213" xlink:href="#m1ae70dbfd1" y="26.363849"/>
      </g>
     </g>
     <g id="text_17">
      <!-- $10^{1}$ -->
      <g transform="translate(431.57117 31.898643)scale(0.16 -0.16)">
       <use transform="scale(0.996264)" xlink:href="#CMR17-49"/>
       <use transform="translate(45.690477 0)scale(0.996264)" xlink:href="#CMR17-48"/>
       <use transform="translate(91.380954 36.153639)scale(0.697382)" xlink:href="#CMR17-49"/>
      </g>
     </g>
    </g>
    <g id="text_18">
     <!-- $\|p - p_h\|_{L_2}$ -->
     <defs>
      <path d="M 4.296875 -12.328125 
C 3.59375 -15.3125 3.203125 -16.109375 -0.90625 -16.109375 
C -2.09375 -16.109375 -3.09375 -16.109375 -3.09375 -18 
C -3.09375 -18.203125 -3 -19 -1.90625 -19 
C -0.59375 -19 0.796875 -19 2.09375 -19 
L 6.40625 -19 
C 8.5 -19 13.59375 -19 15.703125 -19 
C 16.296875 -19 17.5 -19 17.5 -17.203125 
C 17.5 -16.109375 16.796875 -16.109375 15.09375 -16.109375 
C 10.5 -16.109375 10.203125 -15.421875 10.203125 -14.640625 
C 10.203125 -13.453125 14.703125 3.421875 15.296875 5.6875 
C 16.40625 2.890625 19.09375 -1 24.296875 -1 
C 35.59375 -1 47.796875 13.671875 47.796875 28.34375 
C 47.796875 37.515625 42.59375 44 35.09375 44 
C 28.703125 44 23.296875 37.8125 22.203125 36.421875 
C 21.40625 41.40625 17.5 44 13.5 44 
C 10.59375 44 8.296875 42.609375 6.40625 38.8125 
C 4.59375 35.21875 3.203125 29.140625 3.203125 28.734375 
C 3.203125 28.34375 3.59375 27.84375 4.296875 27.84375 
C 5.09375 27.84375 5.203125 27.9375 5.796875 30.234375 
C 7.296875 36.125 9.203125 42.015625 13.203125 42.015625 
C 15.5 42.015625 16.296875 40.421875 16.296875 37.453125 
C 16.296875 35.078125 16 34.078125 15.59375 32.296875 
z
M 21.59375 31.140625 
C 22.296875 33.921875 25.09375 36.828125 26.703125 38.21875 
C 27.796875 39.21875 31.09375 42.015625 34.90625 42.015625 
C 39.296875 42.015625 41.296875 37.625 41.296875 32.4375 
C 41.296875 27.640625 38.5 16.359375 36 11.171875 
C 33.5 5.78125 28.90625 1 24.296875 1 
C 17.5 1 16.40625 9.578125 16.40625 9.984375 
C 16.40625 10.28125 16.59375 11.078125 16.703125 11.578125 
z
" id="CMMI12-112"/>
     </defs>
     <g transform="translate(415.793148 156.502371)rotate(-90)scale(0.16 -0.16)">
      <use transform="translate(0 25.404611)scale(0.996264)" xlink:href="#CMSY10-107"/>
      <use transform="translate(49.813383 25.404611)scale(0.996264)" xlink:href="#CMMI12-112"/>
      <use transform="translate(120.912104 25.404611)scale(0.996264)" xlink:href="#CMSY10-0"/>
      <use transform="translate(220.538779 25.404611)scale(0.996264)" xlink:href="#CMMI12-112"/>
      <use transform="translate(269.498293 10.460696)scale(0.697382)" xlink:href="#CMMI12-104"/>
      <use transform="translate(309.304479 25.404611)scale(0.996264)" xlink:href="#CMSY10-107"/>
      <use transform="translate(359.117862 10.460696)scale(0.697382)" xlink:href="#CMMI12-76"/>
      <use transform="translate(405.577276 0)scale(0.498132)" xlink:href="#CMR17-50"/>
     </g>
    </g>
   </g>
   <g id="line2d_62">
    <path clip-path="url(#pe10a631e74)" d="M 474.745816 110.659015 
L 528.456644 100.649699 
L 556.432246 95.436287 
L 575.479534 91.886717 
L 589.939087 89.192098 
L 601.597441 87.019497 
L 611.365769 85.199114 
L 619.772247 83.632519 
L 627.150551 82.257531 
L 633.725 81.032345 
L 639.653669 79.927504 
L 645.052153 78.921466 
L 650.007543 77.998001 
L 654.587091 77.144577 
L 658.843809 76.351313 
L 662.820232 75.610284 
L 666.551004 74.915034 
L 670.064717 74.260233 
L 673.385247 73.641434 
L 676.532733 73.054882 
L 679.524321 72.497383 
L 682.374729 71.966193 
L 685.096684 71.458941 
L 687.701265 70.973563 
L 690.198177 70.508249 
L 692.595972 70.061407 
L 694.902217 69.631625 
L 697.123648 69.217649 
L 699.266281 68.818357 
L 701.335518 68.432743 
L 703.336218 68.059901 
L 705.272779 67.699012 
L 707.149183 67.349333 
L 708.969058 67.010189 
L 710.735708 66.680964 
L 712.45216 66.361094 
L 714.121187 66.050061 
L 715.74534 65.747391 
L 717.326969 65.452645 
L 718.868243 65.16542 
L 720.371171 64.885341 
L 721.837615 64.612061 
L 723.269303 64.345258 
L 724.667846 64.084631 
L 726.034744 63.829902 
L 727.371397 63.580809 
L 728.679114 63.337109 
L 729.959122 63.098572 
L 731.212571 62.864985 
L 732.44054 62.636146 
L 733.644045 62.411866 
L 734.824042 62.191967 
L 735.981431 61.976281 
L 737.117062 61.76465 
L 738.231739 61.556923 
L 739.326221 61.35296 
L 740.401226 61.152627 
L 741.457435 60.955797 
L 742.495495 60.762348 
L 743.516019 60.572168 
L 744.519589 60.385147 
L 745.50676 60.201182 
L 746.478058 60.020175 
L 747.433987 59.842032 
L 748.375025 59.666665 
L 749.301628 59.493987 
L 750.214234 59.323918 
L 751.113258 59.156379 
L 751.999099 58.991298 
L 752.872138 58.828602 
L 753.73274 58.668224 
L 754.581254 58.510099 
L 755.418015 58.354164 
L 756.243344 58.200359 
L 757.05755 58.048627 
L 757.860928 57.898913 
L 758.653762 57.751164 
L 759.436325 57.605329 
L 760.208881 57.461359 
L 760.971682 57.319206 
L 761.724971 57.178827 
L 762.468983 57.040176 
L 763.203943 56.903212 
L 763.930069 56.767894 
L 764.64757 56.634184 
L 765.35665 56.502043 
L 766.057504 56.371435 
L 766.750319 56.242325 
L 767.43528 56.114678 
L 768.112561 55.988463 
L 768.782333 55.863647 
L 769.444761 55.7402 
L 770.100004 55.618092 
L 770.748216 55.497294 
L 771.389546 55.377778 
L 772.02414 55.259518 
L 772.652137 55.142488 
L 773.273672 55.026661 
L 773.888878 54.912014 
L 774.497882 54.798522 
" style="fill:none;stroke:#808080;stroke-dasharray:5.55,2.4;stroke-dashoffset:0;stroke-width:1.5;"/>
   </g>
   <g id="line2d_63">
    <path clip-path="url(#pe10a631e74)" d="M 474.745816 166.519507 
L 528.456644 146.500875 
L 556.432246 136.074051 
L 575.479534 128.974912 
L 589.939087 123.585673 
L 601.597441 119.240472 
L 611.365769 115.599706 
L 619.772247 112.466516 
L 627.150551 109.716539 
L 633.725 107.266168 
L 639.653669 105.056486 
L 645.052153 103.04441 
L 650.007543 101.19748 
L 654.587091 99.490631 
L 658.843809 97.904103 
L 662.820232 96.422046 
L 666.551004 95.031545 
L 670.064717 93.721944 
L 673.385247 92.484345 
L 676.532733 91.311241 
L 679.524321 90.196243 
L 682.374729 89.133863 
L 685.096684 88.11936 
L 687.701265 87.148603 
L 690.198177 86.217976 
L 692.595972 85.324291 
L 694.902217 84.464727 
L 697.123648 83.636775 
L 699.266281 82.838191 
L 701.335518 82.066963 
L 703.336218 81.321279 
L 705.272779 80.599501 
L 707.149183 79.900144 
L 708.969058 79.221856 
L 710.735708 78.563406 
L 712.45216 77.923665 
L 714.121187 77.301599 
L 715.74534 76.696259 
L 717.326969 76.106768 
L 718.868243 75.532318 
L 720.371171 74.97216 
L 721.837615 74.4256 
L 723.269303 73.891993 
L 724.667846 73.37074 
L 726.034744 72.861282 
L 727.371397 72.363096 
L 728.679114 71.875695 
L 729.959122 71.398622 
L 731.212571 70.931448 
L 732.44054 70.473769 
L 733.644045 70.02521 
L 734.824042 69.585411 
L 735.981431 69.154039 
L 737.117062 68.730777 
L 738.231739 68.315324 
L 739.326221 67.907399 
L 740.401226 67.506732 
L 741.457435 67.113071 
L 742.495495 66.726174 
L 743.516019 66.345813 
L 744.519589 65.971771 
L 745.50676 65.603842 
L 746.478058 65.241828 
L 747.433987 64.885542 
L 748.375025 64.534807 
L 749.301628 64.189451 
L 750.214234 63.849313 
L 751.113258 63.514236 
L 751.999099 63.184073 
L 752.872138 62.858682 
L 753.73274 62.537926 
L 754.581254 62.221675 
L 755.418015 61.909805 
L 756.243344 61.602195 
L 757.05755 61.298732 
L 757.860928 60.999304 
L 758.653762 60.703805 
L 759.436325 60.412135 
L 760.208881 60.124195 
L 760.971682 59.83989 
L 761.724971 59.559131 
L 762.468983 59.281829 
L 763.203943 59.007901 
L 763.930069 58.737266 
L 764.64757 58.469845 
L 765.35665 58.205563 
L 766.057504 57.944347 
L 766.750319 57.686127 
L 767.43528 57.430834 
L 768.112561 57.178404 
L 768.782333 56.928772 
L 769.444761 56.681878 
L 770.100004 56.437662 
L 770.748216 56.196066 
L 771.389546 55.957034 
L 772.02414 55.720514 
L 772.652137 55.486453 
L 773.273672 55.254799 
L 773.888878 55.025505 
L 774.497882 54.798522 
" style="fill:none;stroke:#808080;stroke-dasharray:9.6,2.4,1.5,2.4;stroke-dashoffset:0;stroke-width:1.5;"/>
   </g>
   <g id="line2d_64">
    <path clip-path="url(#pe10a631e74)" d="M 474.745816 222.38 
L 528.456644 192.352051 
L 556.432246 176.711816 
L 575.479534 166.063106 
L 589.939087 157.979248 
L 601.597441 151.461447 
L 611.365769 146.000298 
L 619.772247 141.300514 
L 627.150551 137.175548 
L 633.725 133.499991 
L 639.653669 130.185467 
L 645.052153 127.167353 
L 650.007543 124.396958 
L 654.587091 121.836685 
L 658.843809 119.456894 
L 662.820232 117.233807 
L 666.551004 115.148056 
L 670.064717 113.183655 
L 673.385247 111.327256 
L 676.532733 109.567601 
L 679.524321 107.895103 
L 682.374729 106.301534 
L 685.096684 104.779779 
L 687.701265 103.323644 
L 690.198177 101.927702 
L 692.595972 100.587175 
L 694.902217 99.297829 
L 697.123648 98.055901 
L 699.266281 96.858025 
L 701.335518 95.701184 
L 703.336218 94.582658 
L 705.272779 93.499991 
L 707.149183 92.450955 
L 708.969058 91.433523 
L 710.735708 90.445847 
L 712.45216 89.486236 
L 714.121187 88.553138 
L 715.74534 87.645128 
L 717.326969 86.760892 
L 718.868243 85.899216 
L 720.371171 85.058979 
L 721.837615 84.239138 
L 723.269303 83.438729 
L 724.667846 82.656849 
L 726.034744 81.892662 
L 727.371397 81.145384 
L 728.679114 80.414282 
L 729.959122 79.698672 
L 731.212571 78.99791 
L 732.44054 78.311393 
L 733.644045 77.638553 
L 734.824042 76.978856 
L 735.981431 76.331798 
L 737.117062 75.696904 
L 738.231739 75.073725 
L 739.326221 74.461837 
L 740.401226 73.860837 
L 741.457435 73.270345 
L 742.495495 72.69 
L 743.516019 72.119459 
L 744.519589 71.558396 
L 745.50676 71.006501 
L 746.478058 70.46348 
L 747.433987 69.929052 
L 748.375025 69.402949 
L 749.301628 68.884916 
L 750.214234 68.374708 
L 751.113258 67.872093 
L 751.999099 67.376849 
L 752.872138 66.888762 
L 753.73274 66.407627 
L 754.581254 65.933251 
L 755.418015 65.465446 
L 756.243344 65.004032 
L 757.05755 64.548836 
L 757.860928 64.099694 
L 758.653762 63.656447 
L 759.436325 63.218941 
L 760.208881 62.787031 
L 760.971682 62.360574 
L 761.724971 61.939435 
L 762.468983 61.523483 
L 763.203943 61.112591 
L 763.930069 60.706638 
L 764.64757 60.305506 
L 765.35665 59.909083 
L 766.057504 59.517259 
L 766.750319 59.129929 
L 767.43528 58.74699 
L 768.112561 58.368345 
L 768.782333 57.993897 
L 769.444761 57.623556 
L 770.100004 57.257231 
L 770.748216 56.894837 
L 771.389546 56.53629 
L 772.02414 56.18151 
L 772.652137 55.830418 
L 773.273672 55.482938 
L 773.888878 55.138997 
L 774.497882 54.798522 
" style="fill:none;stroke:#808080;stroke-dasharray:1.5,2.475;stroke-dashoffset:0;stroke-width:1.5;"/>
   </g>
   <g id="line2d_65">
    <path clip-path="url(#pe10a631e74)" d="M 774.497882 49.093431 
L 732.623883 64.836604 
L 690.749884 80.23691 
L 648.875884 95.819687 
L 607.001885 111.470146 
L 565.127886 127.099062 
L 523.253886 142.713131 
L 481.379887 158.32205 
" style="fill:none;stroke:#1f77b4;stroke-linecap:square;stroke-width:1.5;"/>
    <g clip-path="url(#pe10a631e74)">
     <use style="fill:#1f77b4;stroke:#1f77b4;" x="774.497882" xlink:href="#mc0f3c349ab" y="49.093431"/>
     <use style="fill:#1f77b4;stroke:#1f77b4;" x="732.623883" xlink:href="#mc0f3c349ab" y="64.836604"/>
     <use style="fill:#1f77b4;stroke:#1f77b4;" x="690.749884" xlink:href="#mc0f3c349ab" y="80.23691"/>
     <use style="fill:#1f77b4;stroke:#1f77b4;" x="648.875884" xlink:href="#mc0f3c349ab" y="95.819687"/>
     <use style="fill:#1f77b4;stroke:#1f77b4;" x="607.001885" xlink:href="#mc0f3c349ab" y="111.470146"/>
     <use style="fill:#1f77b4;stroke:#1f77b4;" x="565.127886" xlink:href="#mc0f3c349ab" y="127.099062"/>
     <use style="fill:#1f77b4;stroke:#1f77b4;" x="523.253886" xlink:href="#mc0f3c349ab" y="142.713131"/>
     <use style="fill:#1f77b4;stroke:#1f77b4;" x="481.379887" xlink:href="#mc0f3c349ab" y="158.32205"/>
    </g>
   </g>
   <g id="line2d_66">
    <path clip-path="url(#pe10a631e74)" d="M 774.497882 43.968931 
L 732.623883 57.414514 
L 690.749884 72.448571 
L 648.875884 88.002355 
L 607.001885 103.650873 
L 565.127886 119.279624 
L 523.253886 134.893668 
L 481.379887 150.502582 
" style="fill:none;stroke:#ff7f0e;stroke-linecap:square;stroke-width:1.5;"/>
    <g clip-path="url(#pe10a631e74)">
     <use style="fill:#ff7f0e;stroke:#ff7f0e;stroke-linejoin:miter;" x="774.497882" xlink:href="#m71c91310aa" y="43.968931"/>
     <use style="fill:#ff7f0e;stroke:#ff7f0e;stroke-linejoin:miter;" x="732.623883" xlink:href="#m71c91310aa" y="57.414514"/>
     <use style="fill:#ff7f0e;stroke:#ff7f0e;stroke-linejoin:miter;" x="690.749884" xlink:href="#m71c91310aa" y="72.448571"/>
     <use style="fill:#ff7f0e;stroke:#ff7f0e;stroke-linejoin:miter;" x="648.875884" xlink:href="#m71c91310aa" y="88.002355"/>
     <use style="fill:#ff7f0e;stroke:#ff7f0e;stroke-linejoin:miter;" x="607.001885" xlink:href="#m71c91310aa" y="103.650873"/>
     <use style="fill:#ff7f0e;stroke:#ff7f0e;stroke-linejoin:miter;" x="565.127886" xlink:href="#m71c91310aa" y="119.279624"/>
     <use style="fill:#ff7f0e;stroke:#ff7f0e;stroke-linejoin:miter;" x="523.253886" xlink:href="#m71c91310aa" y="134.893668"/>
     <use style="fill:#ff7f0e;stroke:#ff7f0e;stroke-linejoin:miter;" x="481.379887" xlink:href="#m71c91310aa" y="150.502582"/>
    </g>
   </g>
   <g id="line2d_67">
    <path clip-path="url(#pe10a631e74)" d="M 774.497882 35.742745 
L 732.623883 49.163681 
L 690.749884 64.343663 
L 648.875884 79.943781 
L 607.001885 95.597254 
L 565.127886 111.226118 
L 523.253886 126.840068 
L 481.379887 142.448945 
" style="fill:none;stroke:#2ca02c;stroke-linecap:square;stroke-width:1.5;"/>
    <g clip-path="url(#pe10a631e74)">
     <use style="fill:#2ca02c;stroke:#2ca02c;stroke-linejoin:miter;" x="774.497882" xlink:href="#m36d30fe56a" y="35.742745"/>
     <use style="fill:#2ca02c;stroke:#2ca02c;stroke-linejoin:miter;" x="732.623883" xlink:href="#m36d30fe56a" y="49.163681"/>
     <use style="fill:#2ca02c;stroke:#2ca02c;stroke-linejoin:miter;" x="690.749884" xlink:href="#m36d30fe56a" y="64.343663"/>
     <use style="fill:#2ca02c;stroke:#2ca02c;stroke-linejoin:miter;" x="648.875884" xlink:href="#m36d30fe56a" y="79.943781"/>
     <use style="fill:#2ca02c;stroke:#2ca02c;stroke-linejoin:miter;" x="607.001885" xlink:href="#m36d30fe56a" y="95.597254"/>
     <use style="fill:#2ca02c;stroke:#2ca02c;stroke-linejoin:miter;" x="565.127886" xlink:href="#m36d30fe56a" y="111.226118"/>
     <use style="fill:#2ca02c;stroke:#2ca02c;stroke-linejoin:miter;" x="523.253886" xlink:href="#m36d30fe56a" y="126.840068"/>
     <use style="fill:#2ca02c;stroke:#2ca02c;stroke-linejoin:miter;" x="481.379887" xlink:href="#m36d30fe56a" y="142.448945"/>
    </g>
   </g>
   <g id="line2d_68">
    <path clip-path="url(#pe10a631e74)" d="M 774.497882 20.78 
L 732.623883 34.557479 
L 690.749884 52.708674 
L 648.875884 69.013592 
L 607.001885 84.792788 
L 565.127886 100.444326 
L 523.253886 116.062941 
L 481.379887 131.672875 
" style="fill:none;stroke:#d62728;stroke-linecap:square;stroke-width:1.5;"/>
    <g clip-path="url(#pe10a631e74)">
     <use style="fill:#d62728;stroke:#d62728;stroke-linejoin:miter;" x="774.497882" xlink:href="#mdf6efa020a" y="20.78"/>
     <use style="fill:#d62728;stroke:#d62728;stroke-linejoin:miter;" x="732.623883" xlink:href="#mdf6efa020a" y="34.557479"/>
     <use style="fill:#d62728;stroke:#d62728;stroke-linejoin:miter;" x="690.749884" xlink:href="#mdf6efa020a" y="52.708674"/>
     <use style="fill:#d62728;stroke:#d62728;stroke-linejoin:miter;" x="648.875884" xlink:href="#mdf6efa020a" y="69.013592"/>
     <use style="fill:#d62728;stroke:#d62728;stroke-linejoin:miter;" x="607.001885" xlink:href="#mdf6efa020a" y="84.792788"/>
     <use style="fill:#d62728;stroke:#d62728;stroke-linejoin:miter;" x="565.127886" xlink:href="#mdf6efa020a" y="100.444326"/>
     <use style="fill:#d62728;stroke:#d62728;stroke-linejoin:miter;" x="523.253886" xlink:href="#mdf6efa020a" y="116.062941"/>
     <use style="fill:#d62728;stroke:#d62728;stroke-linejoin:miter;" x="481.379887" xlink:href="#mdf6efa020a" y="131.672875"/>
    </g>
   </g>
   <g id="patch_8">
    <path d="M 459.758213 232.46 
L 459.758213 10.7 
" style="fill:none;stroke:#000000;stroke-linecap:square;stroke-linejoin:miter;stroke-width:0.8;"/>
   </g>
   <g id="patch_9">
    <path d="M 789.485486 232.46 
L 789.485486 10.7 
" style="fill:none;stroke:#000000;stroke-linecap:square;stroke-linejoin:miter;stroke-width:0.8;"/>
   </g>
   <g id="patch_10">
    <path d="M 459.758213 232.46 
L 789.485486 232.46 
" style="fill:none;stroke:#000000;stroke-linecap:square;stroke-linejoin:miter;stroke-width:0.8;"/>
   </g>
   <g id="patch_11">
    <path d="M 459.758213 10.7 
L 789.485486 10.7 
" style="fill:none;stroke:#000000;stroke-linecap:square;stroke-linejoin:miter;stroke-width:0.8;"/>
   </g>
   <g id="legend_1">
    <g id="patch_12">
     <path d="M 809.171849 215.577905 
L 1014.34461 215.577905 
Q 1017.54461 215.577905 1017.54461 212.377905 
L 1017.54461 124.78 
Q 1017.54461 121.58 1014.34461 121.58 
L 809.171849 121.58 
Q 805.971849 121.58 805.971849 124.78 
L 805.971849 212.377905 
Q 805.971849 215.577905 809.171849 215.577905 
z
" style="fill:#ffffff;opacity:0.8;stroke:#cccccc;stroke-linejoin:miter;"/>
    </g>
    <g id="line2d_69">
     <path d="M 812.371849 133.58 
L 844.371849 133.58 
" style="fill:none;stroke:#808080;stroke-dasharray:5.55,2.4;stroke-dashoffset:0;stroke-width:1.5;"/>
    </g>
    <g id="line2d_70"/>
    <g id="text_19">
     <!-- $h$ -->
     <g transform="translate(857.171849 139.18)scale(0.16 -0.16)">
      <use transform="scale(0.996264)" xlink:href="#CMMI12-104"/>
     </g>
    </g>
    <g id="line2d_71">
     <path d="M 812.371849 155.879476 
L 844.371849 155.879476 
" style="fill:none;stroke:#808080;stroke-dasharray:9.6,2.4,1.5,2.4;stroke-dashoffset:0;stroke-width:1.5;"/>
    </g>
    <g id="line2d_72"/>
    <g id="text_20">
     <!-- $h^2$ -->
     <g transform="translate(857.171849 161.479476)scale(0.16 -0.16)">
      <use transform="scale(0.996264)" xlink:href="#CMMI12-104"/>
      <use transform="translate(56.154624 36.153639)scale(0.697382)" xlink:href="#CMR17-50"/>
     </g>
    </g>
    <g id="line2d_73">
     <path d="M 812.371849 178.178952 
L 844.371849 178.178952 
" style="fill:none;stroke:#808080;stroke-dasharray:1.5,2.475;stroke-dashoffset:0;stroke-width:1.5;"/>
    </g>
    <g id="line2d_74"/>
    <g id="text_21">
     <!-- $h^3$ -->
     <g transform="translate(857.171849 183.778952)scale(0.16 -0.16)">
      <use transform="scale(0.996264)" xlink:href="#CMMI12-104"/>
      <use transform="translate(56.154624 36.153639)scale(0.697382)" xlink:href="#CMR17-51"/>
     </g>
    </g>
    <g id="line2d_75">
     <path d="M 812.371849 200.478429 
L 844.371849 200.478429 
" style="fill:none;stroke:#1f77b4;stroke-linecap:square;stroke-width:1.5;"/>
    </g>
    <g id="line2d_76">
     <g>
      <use style="fill:#1f77b4;stroke:#1f77b4;" x="828.371849" xlink:href="#mc0f3c349ab" y="200.478429"/>
     </g>
    </g>
    <g id="text_22">
     <!-- k = 1 -->
     <defs>
      <path d="M 26.09375 26.140625 
C 26 26.34375 25.5 26.9375 25.5 27.234375 
C 25.5 27.4375 32.59375 33.921875 33.5 34.71875 
C 39.203125 39.5 42.796875 40 45.40625 40 
L 45.40625 42.703125 
C 44.796875 42.703125 44.59375 42.703125 44.5 42.5 
L 39.59375 42.5 
C 36.796875 42.5 32.5 42.5 29.796875 42.703125 
L 29.796875 40.09375 
C 31.203125 39.984375 32.203125 39.1875 32.203125 37.796875 
C 32.203125 35.796875 30.203125 33.90625 30.09375 33.90625 
L 15 20.140625 
L 15 68.6875 
L 3.09375 67.59375 
L 3.09375 65 
C 9 65 9.90625 64.40625 9.90625 59.640625 
L 9.90625 6.65625 
C 9.90625 2.875 9.5 2.390625 3.09375 2.390625 
L 3.09375 -0.203125 
C 5.5 0 9.90625 0 12.40625 0 
C 14.90625 0 19.296875 0 21.703125 -0.203125 
L 21.703125 2.390625 
C 15.296875 2.390625 14.90625 2.78125 14.90625 6.6875 
L 14.90625 17.65625 
L 21.796875 23.9375 
L 31.90625 8.96875 
C 33.09375 7.171875 34.09375 5.765625 34.09375 4.46875 
C 34.09375 2.6875 32.296875 2.390625 31.09375 2.390625 
L 31.09375 -0.203125 
C 33.5 0 37.796875 0 40.296875 0 
C 42.09375 0 45.796875 0 47.5 0 
L 47.5 2.390625 
C 42.796875 2.390625 41.703125 3.28125 38.703125 7.671875 
z
" id="CMR17-107"/>
      <path d="M 64.296875 31.515625 
C 65.796875 31.515625 67.296875 31.515625 67.296875 33.203125 
C 67.296875 35 65.59375 35 63.90625 35 
L 8 35 
C 6.296875 35 4.59375 35 4.59375 33.203125 
C 4.59375 31.515625 6.09375 31.515625 7.59375 31.515625 
z
M 63.90625 14 
C 65.59375 14 67.296875 14 67.296875 15.796875 
C 67.296875 17.484375 65.796875 17.484375 64.296875 17.484375 
L 7.59375 17.484375 
C 6.09375 17.484375 4.59375 17.484375 4.59375 15.796875 
C 4.59375 14 6.296875 14 8 14 
z
" id="CMR17-61"/>
     </defs>
     <g transform="translate(857.171849 206.078429)scale(0.16 -0.16)">
      <use transform="scale(0.996264)" xlink:href="#CMR17-107"/>
      <use transform="translate(78.368882 0)scale(0.996264)" xlink:href="#CMR17-61"/>
      <use transform="translate(180.159637 0)scale(0.996264)" xlink:href="#CMR17-49"/>
     </g>
    </g>
    <g id="line2d_77">
     <path d="M 927.758229 133.58 
L 959.758229 133.58 
" style="fill:none;stroke:#ff7f0e;stroke-linecap:square;stroke-width:1.5;"/>
    </g>
    <g id="line2d_78">
     <g>
      <use style="fill:#ff7f0e;stroke:#ff7f0e;stroke-linejoin:miter;" x="943.758229" xlink:href="#m71c91310aa" y="133.58"/>
     </g>
    </g>
    <g id="text_23">
     <!-- k = 2 -->
     <g transform="translate(972.558229 139.18)scale(0.16 -0.16)">
      <use transform="scale(0.996264)" xlink:href="#CMR17-107"/>
      <use transform="translate(78.368882 0)scale(0.996264)" xlink:href="#CMR17-61"/>
      <use transform="translate(180.159637 0)scale(0.996264)" xlink:href="#CMR17-50"/>
     </g>
    </g>
    <g id="line2d_79">
     <path d="M 927.758229 155.879476 
L 959.758229 155.879476 
" style="fill:none;stroke:#2ca02c;stroke-linecap:square;stroke-width:1.5;"/>
    </g>
    <g id="line2d_80">
     <g>
      <use style="fill:#2ca02c;stroke:#2ca02c;stroke-linejoin:miter;" x="943.758229" xlink:href="#m36d30fe56a" y="155.879476"/>
     </g>
    </g>
    <g id="text_24">
     <!-- k = 4 -->
     <g transform="translate(972.558229 161.479476)scale(0.16 -0.16)">
      <use transform="scale(0.996264)" xlink:href="#CMR17-107"/>
      <use transform="translate(78.368882 0)scale(0.996264)" xlink:href="#CMR17-61"/>
      <use transform="translate(180.159637 0)scale(0.996264)" xlink:href="#CMR17-52"/>
     </g>
    </g>
    <g id="line2d_81">
     <path d="M 927.758229 178.178952 
L 959.758229 178.178952 
" style="fill:none;stroke:#d62728;stroke-linecap:square;stroke-width:1.5;"/>
    </g>
    <g id="line2d_82">
     <g>
      <use style="fill:#d62728;stroke:#d62728;stroke-linejoin:miter;" x="943.758229" xlink:href="#mdf6efa020a" y="178.178952"/>
     </g>
    </g>
    <g id="text_25">
     <!-- k = 8 -->
     <defs>
      <path d="M 27.203125 35.375 
C 33.5 38.546875 39.90625 43.328125 39.90625 50.984375 
C 39.90625 60.015625 31.09375 65.296875 23 65.296875 
C 13.90625 65.296875 5.90625 58.734375 5.90625 49.6875 
C 5.90625 47.203125 6.5 42.921875 10.40625 39.140625 
C 11.40625 38.15625 15.59375 35.171875 18.296875 33.28125 
C 13.796875 30.984375 3.296875 25.53125 3.296875 14.59375 
C 3.296875 4.359375 13.09375 -2 22.796875 -2 
C 33.5 -2 42.5 5.65625 42.5 15.78125 
C 42.5 24.84375 36.40625 29.015625 32.40625 31.703125 
z
M 14.09375 44.09375 
C 13.296875 44.59375 9.296875 47.671875 9.296875 52.359375 
C 9.296875 58.421875 15.59375 63 22.796875 63 
C 30.703125 63 36.5 57.4375 36.5 50.96875 
C 36.5 41.703125 26.09375 36.421875 25.59375 36.421875 
C 25.5 36.421875 25.40625 36.421875 24.59375 37.03125 
z
M 32.5 23.734375 
C 34 22.640625 38.796875 19.375 38.796875 13.296875 
C 38.796875 5.953125 31.40625 0.390625 23 0.390625 
C 13.90625 0.390625 7 6.84375 7 14.6875 
C 7 22.546875 13.09375 29.09375 20 32.1875 
z
" id="CMR17-56"/>
     </defs>
     <g transform="translate(972.558229 183.778952)scale(0.16 -0.16)">
      <use transform="scale(0.996264)" xlink:href="#CMR17-107"/>
      <use transform="translate(78.368882 0)scale(0.996264)" xlink:href="#CMR17-61"/>
      <use transform="translate(180.159637 0)scale(0.996264)" xlink:href="#CMR17-56"/>
     </g>
    </g>
   </g>
  </g>
 </g>
 <defs>
  <clipPath id="p0f97a48034">
   <rect height="221.76" width="329.727273" x="64.085486" y="10.7"/>
  </clipPath>
  <clipPath id="pe10a631e74">
   <rect height="221.76" width="329.727273" x="459.758213" y="10.7"/>
  </clipPath>
 </defs>
</svg>
