<?xml version="1.0" encoding="UTF-8"?>
<svg xmlns="http://www.w3.org/2000/svg" xmlns:xlink="http://www.w3.org/1999/xlink" width="5381.986816pt" height="6999.13916pt" viewBox="0 0 5381.986816 6999.13916" version="1.1">
<g id="surface1">
<path style=" stroke:none;fill-rule:nonzero;fill:rgb(0%,0%,0%);fill-opacity:1;" d="M 3.730469 3641.777344 C -24.210938 3506.34375 217.167969 3465.570312 321.953125 3375.195312 C 353.140625 3348.296875 386.988281 3323.949219 414.339844 3293.171875 C 477.984375 3221.558594 538.253906 3144.21875 578.582031 3057.347656 C 623.277344 2961.082031 648.660156 2855.183594 660.707031 2749.753906 C 672.351562 2647.828125 649.707031 2544.746094 650.441406 2442.164062 C 651.464844 2298.460938 658.617188 2154.707031 670.96875 2011.53125 C 685.183594 1846.816406 711.113281 1683.316406 732.5625 1519.382812 C 742.40625 1444.136719 740.628906 1366.222656 763.355469 1293.8125 C 817.378906 1121.710938 901.972656 956.652344 1009.722656 811.917969 C 1077.59375 720.75 1170.847656 651.320312 1256.085938 576.097656 C 1398.257812 450.628906 1527.542969 301.449219 1697.492188 217.238281 C 1801.574219 165.664062 1923.566406 163.53125 2036.242188 135.210938 C 2193.992188 95.566406 2346.730469 29.75 2508.441406 12.175781 C 2685.460938 -7.0625 2867.277344 -0.390625 3042.234375 32.683594 C 3195.347656 61.625 3343.804688 117.785156 3483.636719 186.476562 C 3663.332031 274.75 3832.246094 387.191406 3986.632812 514.578125 C 4096.707031 605.398438 4202.464844 705.335938 4284.324219 822.171875 C 4365.050781 937.382812 4421.96875 1069.023438 4469.097656 1201.535156 C 4524.390625 1356.992188 4553.15625 1520.996094 4582.015625 1683.433594 C 4606.710938 1822.425781 4628.128906 1962.742188 4633.34375 2103.808594 C 4638.648438 2247.417969 4608.488281 2390.800781 4612.8125 2534.441406 C 4616.636719 2661.574219 4626.316406 2789.628906 4653.871094 2913.804688 C 4688.292969 3068.917969 4723.765625 3230.078125 4807.851562 3364.941406 C 4869.242188 3463.410156 4959.027344 3544.558594 5054.214844 3611.015625 C 5140.792969 3671.460938 5274.359375 3662.972656 5341.640625 3744.308594 C 5368.601562 3776.894531 5393.886719 3830.898438 5372.4375 3867.34375 C 5325.75 3946.679688 5197.46875 3945.28125 5105.542969 3939.117188 C 4990.777344 3931.417969 4899.5625 3830.925781 4787.320312 3805.824219 C 4710.449219 3788.632812 4598.25 3732.449219 4551.21875 3795.574219 C 4501.476562 3862.339844 4584.183594 3964.195312 4633.34375 4031.394531 C 4724.183594 4155.574219 4886.566406 4207.460938 5002.890625 4308.226562 C 5112.558594 4403.234375 5248.335938 4484.949219 5310.847656 4615.820312 C 5367.140625 4733.6875 5366.613281 4875.679688 5351.90625 5005.441406 C 5337.667969 5131.09375 5323.992188 5281.015625 5228.722656 5364.296875 C 5149.949219 5433.160156 5003.9375 5489.316406 4920.769531 5425.816406 C 4800.878906 5334.277344 4920.496094 5122.292969 4889.972656 4974.679688 C 4865.015625 4854 4835.199219 4728.621094 4766.789062 4626.074219 C 4687.53125 4507.265625 4539.066406 4449.496094 4448.566406 4338.988281 C 4380.578125 4255.960938 4325.148438 4161.363281 4284.324219 4062.152344 C 4252.144531 3983.953125 4275.074219 3882.527344 4222.734375 3816.078125 C 4172.574219 3752.402344 4082.484375 3733.378906 4007.164062 3703.292969 C 3984.035156 3694.054688 3955.734375 3668.550781 3935.308594 3682.789062 C 3859.335938 3735.742188 3908.691406 3867.292969 3914.777344 3959.621094 C 3925.796875 4126.832031 3948.066406 4299.191406 4017.429688 4451.773438 C 4097.214844 4627.285156 4282.722656 4739.488281 4366.445312 4913.160156 C 4432.335938 5049.835938 4472.492188 5202.507812 4479.363281 5354.046875 C 4484.226562 5461.253906 4509.839844 5602.308594 4428.039062 5671.890625 C 4339.464844 5747.234375 4183.484375 5723.035156 4079.019531 5671.890625 C 3923.53125 5595.769531 3826.347656 5421.855469 3760.800781 5261.765625 C 3694.285156 5099.320312 3709.492188 4914.0625 3699.207031 4738.859375 C 3688.796875 4561.441406 3720.949219 4382.085938 3699.207031 4205.695312 C 3685.417969 4093.808594 3630.875 3989.484375 3617.085938 3877.597656 C 3610.398438 3823.324219 3617.085938 3768.230469 3617.085938 3713.546875 C 3617.085938 3682.789062 3635.46875 3645.949219 3617.085938 3621.269531 C 3574.4375 3564.015625 3473.523438 3523.839844 3411.78125 3559.75 C 3305.621094 3621.496094 3366.730469 3801.625 3329.660156 3918.609375 C 3305.117188 3996.0625 3259.867188 4066.136719 3237.273438 4144.179688 C 3220.863281 4200.855469 3212.71875 4259.8125 3206.476562 4318.480469 C 3196.710938 4410.304688 3174.351562 4505.59375 3196.210938 4595.316406 C 3217.589844 4683.050781 3280.195312 4755.558594 3329.660156 4831.136719 C 3395.1875 4931.261719 3476.058594 5020.574219 3545.230469 5118.222656 C 3587.984375 5178.582031 3633.363281 5237.65625 3668.414062 5302.78125 C 3701.8125 5364.839844 3727.113281 5431.128906 3750.535156 5497.589844 C 3783.613281 5591.46875 3817.074219 5686.375 3832.65625 5784.675781 C 3847.644531 5879.253906 3844.398438 5976.015625 3842.921875 6071.761719 C 3841.332031 6174.507812 3845.589844 6279.242188 3822.390625 6379.355469 C 3804.050781 6458.5 3777.269531 6538.8125 3730.003906 6604.925781 C 3708.863281 6634.488281 3680.332031 6660.28125 3647.882812 6676.695312 C 3591.59375 6705.167969 3526.117188 6720.957031 3463.109375 6717.707031 C 3387.464844 6713.8125 3306.8125 6693.035156 3247.539062 6645.9375 C 3191.050781 6601.054688 3148.558594 6532.121094 3134.621094 6461.382812 C 3113.875 6356.082031 3174.3125 6250.222656 3185.949219 6143.535156 C 3198.9375 6024.425781 3203.054688 5904.441406 3206.476562 5784.675781 C 3208.625 5709.515625 3225.800781 5631.777344 3206.476562 5559.105469 C 3185.234375 5479.214844 3113.929688 5420.582031 3083.296875 5343.792969 C 3029.839844 5209.804688 3015.261719 5063.441406 2980.644531 4923.414062 C 2956.964844 4827.652344 2920.851562 4734.230469 2908.785156 4636.328125 C 2895.824219 4531.171875 2901.523438 4424.179688 2908.785156 4318.480469 C 2915.644531 4218.664062 2924.214844 4117.859375 2949.847656 4021.140625 C 2968.710938 3949.972656 3015.628906 3887.867188 3031.96875 3816.078125 C 3043.371094 3765.976562 3042.574219 3713.660156 3042.234375 3662.28125 C 3041.664062 3576.570312 3041.28125 3489.410156 3021.703125 3405.953125 C 3013.296875 3370.117188 3010.191406 3325.421875 2980.644531 3303.421875 C 2950.339844 3280.863281 2905.480469 3294.882812 2867.726562 3293.171875 C 2806.199219 3290.382812 2744.542969 3293.171875 2682.953125 3293.171875 C 2655.578125 3293.171875 2623.035156 3277.183594 2600.832031 3293.171875 C 2574.496094 3312.128906 2569.664062 3353.027344 2570.035156 3385.449219 C 2571.65625 3527.058594 2695.988281 3644.816406 2713.746094 3785.320312 C 2727.523438 3894.300781 2704.203125 4005.644531 2682.953125 4113.417969 C 2667.054688 4194.039062 2626.203125 4268.472656 2611.09375 4349.242188 C 2594.082031 4440.199219 2591.097656 4533.546875 2590.566406 4626.074219 C 2589.933594 4735.652344 2584.664062 4847.820312 2611.09375 4954.175781 C 2639.136719 5067.003906 2717.589844 5161.871094 2754.808594 5272.019531 C 2784.003906 5358.425781 2801.839844 5448.570312 2816.398438 5538.601562 C 2833.9375 5647.042969 2837.300781 5757.300781 2847.195312 5866.699219 C 2854.304688 5945.285156 2866.929688 6023.621094 2867.726562 6102.523438 C 2868.761719 6205.277344 2850.617188 6307.414062 2847.195312 6410.117188 C 2844.691406 6485.261719 2892.75 6575.824219 2847.195312 6635.683594 C 2808.511719 6686.515625 2724.648438 6701.5625 2662.421875 6686.949219 C 2572.796875 6665.902344 2503.71875 6581.703125 2457.117188 6502.394531 C 2378.96875 6369.394531 2369.605469 6204.726562 2354.464844 6051.257812 C 2342.042969 5925.363281 2344.648438 5796.792969 2364.730469 5671.890625 C 2376.058594 5601.429688 2417.085938 5537.59375 2426.320312 5466.828125 C 2440.039062 5361.714844 2429.988281 5254.070312 2416.054688 5148.984375 C 2408.210938 5089.8125 2393.457031 5031.449219 2374.996094 4974.679688 C 2339.460938 4865.414062 2264.234375 4769.464844 2241.546875 4656.832031 C 2226.023438 4579.769531 2238.640625 4499.566406 2241.546875 4421.011719 C 2244.972656 4328.542969 2263.269531 4236.703125 2262.078125 4144.179688 C 2261.195312 4075.488281 2249.234375 4007.378906 2241.546875 3939.117188 C 2235.378906 3884.351562 2235.066406 3828.359375 2221.015625 3775.066406 C 2205 3714.304688 2201.429688 3635.726562 2149.160156 3600.761719 C 2120.730469 3581.746094 2073.359375 3579.578125 2046.507812 3600.761719 C 1988.542969 3646.492188 2015.765625 3745.222656 1995.183594 3816.078125 C 1962.917969 3927.144531 1920.695312 4035.085938 1882.265625 4144.179688 C 1852.089844 4229.839844 1807.539062 4311.425781 1789.878906 4400.507812 C 1775.242188 4474.339844 1772.375 4551.15625 1779.613281 4626.074219 C 1790.773438 4741.589844 1825.59375 4854.132812 1861.734375 4964.425781 C 1903.246094 5091.105469 1981.777344 5204.628906 2015.714844 5333.539062 C 2037.621094 5416.765625 2034.289062 5504.679688 2046.507812 5589.867188 C 2070.121094 5754.5 2121.273438 5915.867188 2128.628906 6082.015625 C 2134.542969 6215.570312 2102.972656 6348.300781 2097.835938 6481.886719 C 2094.421875 6570.683594 2113.9375 6661.074219 2097.835938 6748.46875 C 2083.917969 6824.003906 2076.652344 6916.945312 2015.714844 6963.78125 C 1963.902344 7003.601562 1882.574219 7005.289062 1820.675781 6984.289062 C 1731.296875 6953.964844 1689.988281 6847.226562 1615.371094 6789.480469 C 1564.335938 6749.984375 1485.871094 6741.300781 1451.125 6686.949219 C 1391.738281 6594.054688 1411.5625 6469.058594 1410.066406 6358.851562 C 1408.15625 6218.070312 1423.628906 6076.558594 1451.125 5938.472656 C 1467.175781 5857.882812 1503.398438 5782.457031 1522.984375 5702.652344 C 1549.507812 5594.578125 1575.175781 5485.425781 1584.574219 5374.550781 C 1602.1875 5166.785156 1581.976562 4957.480469 1574.308594 4749.113281 C 1569.902344 4629.378906 1549.96875 4510.007812 1553.777344 4390.253906 C 1557.390625 4276.699219 1590.453125 4165.425781 1594.839844 4051.898438 C 1597.878906 3973.277344 1623.246094 3884.628906 1584.574219 3816.078125 C 1566.40625 3783.871094 1528.210938 3746.066406 1492.1875 3754.558594 C 1465.339844 3760.890625 1459.785156 3800.171875 1451.125 3826.332031 C 1424.082031 3908.039062 1449.226562 4001.585938 1420.332031 4082.660156 C 1379.582031 4196.996094 1267.722656 4276.527344 1225.292969 4390.253906 C 1201.125 4455.019531 1196.644531 4526.230469 1194.496094 4595.316406 C 1192.042969 4674.179688 1211.601562 4752.308594 1215.027344 4831.136719 C 1219.625 4936.984375 1210.792969 5043.117188 1215.027344 5148.984375 C 1218.453125 5234.628906 1236.144531 5319.597656 1235.558594 5405.3125 C 1234.808594 5515.152344 1261.605469 5639.375 1204.761719 5733.410156 C 1156.199219 5813.75 1058.027344 5858.226562 968.660156 5887.207031 C 903.488281 5908.339844 827.296875 5922.0625 763.355469 5897.460938 C 704.65625 5874.871094 667.792969 5814.332031 629.910156 5764.167969 C 587.480469 5707.984375 543.863281 5648.003906 527.257812 5579.613281 C 501.4375 5473.277344 522.441406 5359.890625 537.523438 5251.515625 C 558.886719 5097.984375 604.019531 4948.289062 650.441406 4800.378906 C 682.183594 4699.226562 736.511719 4605.59375 763.355469 4503.035156 C 780.859375 4436.164062 778.480469 4365.296875 794.152344 4297.976562 C 812.046875 4221.121094 848.574219 4149.363281 866.007812 4072.40625 C 888.121094 3974.824219 915.148438 3874.792969 907.070312 3775.066406 C 903.316406 3728.730469 905.988281 3665.574219 866.007812 3641.777344 C 821.046875 3615.011719 764.117188 3667.382812 712.03125 3672.535156 C 691.601562 3674.554688 667.578125 3661.246094 650.441406 3672.535156 C 606.929688 3701.191406 604.722656 3766.496094 588.847656 3816.078125 C 564.320312 3892.699219 534.714844 3971.507812 537.523438 4051.898438 C 540.503906 4137.289062 601.738281 4212.875 609.378906 4297.976562 C 615.21875 4363.007812 612.742188 4432.007812 588.847656 4492.785156 C 563.835938 4556.410156 522.273438 4618.421875 465.667969 4656.832031 C 401.125 4700.632812 316.476562 4732.964844 239.832031 4718.351562 C 172.609375 4705.535156 104.964844 4657.050781 75.589844 4595.316406 C 38.839844 4518.082031 64.523438 4421.800781 85.851562 4338.988281 C 114.449219 4227.96875 190.851562 4135.0625 239.832031 4031.394531 C 268.597656 3970.511719 296.734375 3909.269531 321.953125 3846.839844 C 336.9375 3809.742188 387.003906 3766.085938 363.015625 3734.054688 C 330.15625 3690.179688 251.1875 3760.460938 198.769531 3744.308594 C 161.492188 3732.816406 141.054688 3690.398438 106.382812 3672.535156 C 74.636719 3656.175781 10.941406 3676.722656 3.730469 3641.777344 Z M 3.730469 3641.777344 "/>
<path style="fill:none;stroke-width:3;stroke-linecap:butt;stroke-linejoin:miter;stroke:rgb(0%,0%,0%);stroke-opacity:1;stroke-miterlimit:4;" d="M 3.730469 3641.777344 C -24.210938 3506.34375 217.167969 3465.570312 321.953125 3375.195312 C 353.140625 3348.296875 386.988281 3323.949219 414.339844 3293.171875 C 477.984375 3221.558594 538.253906 3144.21875 578.582031 3057.347656 C 623.277344 2961.082031 648.660156 2855.183594 660.707031 2749.753906 C 672.351562 2647.828125 649.707031 2544.746094 650.441406 2442.164062 C 651.464844 2298.460938 658.617188 2154.707031 670.96875 2011.53125 C 685.183594 1846.816406 711.113281 1683.316406 732.5625 1519.382812 C 742.40625 1444.136719 740.628906 1366.222656 763.355469 1293.8125 C 817.378906 1121.710938 901.972656 956.652344 1009.722656 811.917969 C 1077.59375 720.75 1170.847656 651.320312 1256.085938 576.097656 C 1398.257812 450.628906 1527.542969 301.449219 1697.492188 217.238281 C 1801.574219 165.664062 1923.566406 163.53125 2036.242188 135.210938 C 2193.992188 95.566406 2346.730469 29.75 2508.441406 12.175781 C 2685.460938 -7.0625 2867.277344 -0.390625 3042.234375 32.683594 C 3195.347656 61.625 3343.804688 117.785156 3483.636719 186.476562 C 3663.332031 274.75 3832.246094 387.191406 3986.632812 514.578125 C 4096.707031 605.398438 4202.464844 705.335938 4284.324219 822.171875 C 4365.050781 937.382812 4421.96875 1069.023438 4469.097656 1201.535156 C 4524.390625 1356.992188 4553.15625 1520.996094 4582.015625 1683.433594 C 4606.710938 1822.425781 4628.128906 1962.742188 4633.34375 2103.808594 C 4638.648438 2247.417969 4608.488281 2390.800781 4612.8125 2534.441406 C 4616.636719 2661.574219 4626.316406 2789.628906 4653.871094 2913.804688 C 4688.292969 3068.917969 4723.765625 3230.078125 4807.851562 3364.941406 C 4869.242188 3463.410156 4959.027344 3544.558594 5054.214844 3611.015625 C 5140.792969 3671.460938 5274.359375 3662.972656 5341.640625 3744.308594 C 5368.601562 3776.894531 5393.886719 3830.898438 5372.4375 3867.34375 C 5325.75 3946.679688 5197.46875 3945.28125 5105.542969 3939.117188 C 4990.777344 3931.417969 4899.5625 3830.925781 4787.320312 3805.824219 C 4710.449219 3788.632812 4598.25 3732.449219 4551.21875 3795.574219 C 4501.476562 3862.339844 4584.183594 3964.195312 4633.34375 4031.394531 C 4724.183594 4155.574219 4886.566406 4207.460938 5002.890625 4308.226562 C 5112.558594 4403.234375 5248.335938 4484.949219 5310.847656 4615.820312 C 5367.140625 4733.6875 5366.613281 4875.679688 5351.90625 5005.441406 C 5337.667969 5131.09375 5323.992188 5281.015625 5228.722656 5364.296875 C 5149.949219 5433.160156 5003.9375 5489.316406 4920.769531 5425.816406 C 4800.878906 5334.277344 4920.496094 5122.292969 4889.972656 4974.679688 C 4865.015625 4854 4835.199219 4728.621094 4766.789062 4626.074219 C 4687.53125 4507.265625 4539.066406 4449.496094 4448.566406 4338.988281 C 4380.578125 4255.960938 4325.148438 4161.363281 4284.324219 4062.152344 C 4252.144531 3983.953125 4275.074219 3882.527344 4222.734375 3816.078125 C 4172.574219 3752.402344 4082.484375 3733.378906 4007.164062 3703.292969 C 3984.035156 3694.054688 3955.734375 3668.550781 3935.308594 3682.789062 C 3859.335938 3735.742188 3908.691406 3867.292969 3914.777344 3959.621094 C 3925.796875 4126.832031 3948.066406 4299.191406 4017.429688 4451.773438 C 4097.214844 4627.285156 4282.722656 4739.488281 4366.445312 4913.160156 C 4432.335938 5049.835938 4472.492188 5202.507812 4479.363281 5354.046875 C 4484.226562 5461.253906 4509.839844 5602.308594 4428.039062 5671.890625 C 4339.464844 5747.234375 4183.484375 5723.035156 4079.019531 5671.890625 C 3923.53125 5595.769531 3826.347656 5421.855469 3760.800781 5261.765625 C 3694.285156 5099.320312 3709.492188 4914.0625 3699.207031 4738.859375 C 3688.796875 4561.441406 3720.949219 4382.085938 3699.207031 4205.695312 C 3685.417969 4093.808594 3630.875 3989.484375 3617.085938 3877.597656 C 3610.398438 3823.324219 3617.085938 3768.230469 3617.085938 3713.546875 C 3617.085938 3682.789062 3635.46875 3645.949219 3617.085938 3621.269531 C 3574.4375 3564.015625 3473.523438 3523.839844 3411.78125 3559.75 C 3305.621094 3621.496094 3366.730469 3801.625 3329.660156 3918.609375 C 3305.117188 3996.0625 3259.867188 4066.136719 3237.273438 4144.179688 C 3220.863281 4200.855469 3212.71875 4259.8125 3206.476562 4318.480469 C 3196.710938 4410.304688 3174.351562 4505.59375 3196.210938 4595.316406 C 3217.589844 4683.050781 3280.195312 4755.558594 3329.660156 4831.136719 C 3395.1875 4931.261719 3476.058594 5020.574219 3545.230469 5118.222656 C 3587.984375 5178.582031 3633.363281 5237.65625 3668.414062 5302.78125 C 3701.8125 5364.839844 3727.113281 5431.128906 3750.535156 5497.589844 C 3783.613281 5591.46875 3817.074219 5686.375 3832.65625 5784.675781 C 3847.644531 5879.253906 3844.398438 5976.015625 3842.921875 6071.761719 C 3841.332031 6174.507812 3845.589844 6279.242188 3822.390625 6379.355469 C 3804.050781 6458.5 3777.269531 6538.8125 3730.003906 6604.925781 C 3708.863281 6634.488281 3680.332031 6660.28125 3647.882812 6676.695312 C 3591.59375 6705.167969 3526.117188 6720.957031 3463.109375 6717.707031 C 3387.464844 6713.8125 3306.8125 6693.035156 3247.539062 6645.9375 C 3191.050781 6601.054688 3148.558594 6532.121094 3134.621094 6461.382812 C 3113.875 6356.082031 3174.3125 6250.222656 3185.949219 6143.535156 C 3198.9375 6024.425781 3203.054688 5904.441406 3206.476562 5784.675781 C 3208.625 5709.515625 3225.800781 5631.777344 3206.476562 5559.105469 C 3185.234375 5479.214844 3113.929688 5420.582031 3083.296875 5343.792969 C 3029.839844 5209.804688 3015.261719 5063.441406 2980.644531 4923.414062 C 2956.964844 4827.652344 2920.851562 4734.230469 2908.785156 4636.328125 C 2895.824219 4531.171875 2901.523438 4424.179688 2908.785156 4318.480469 C 2915.644531 4218.664062 2924.214844 4117.859375 2949.847656 4021.140625 C 2968.710938 3949.972656 3015.628906 3887.867188 3031.96875 3816.078125 C 3043.371094 3765.976562 3042.574219 3713.660156 3042.234375 3662.28125 C 3041.664062 3576.570312 3041.28125 3489.410156 3021.703125 3405.953125 C 3013.296875 3370.117188 3010.191406 3325.421875 2980.644531 3303.421875 C 2950.339844 3280.863281 2905.480469 3294.882812 2867.726562 3293.171875 C 2806.199219 3290.382812 2744.542969 3293.171875 2682.953125 3293.171875 C 2655.578125 3293.171875 2623.035156 3277.183594 2600.832031 3293.171875 C 2574.496094 3312.128906 2569.664062 3353.027344 2570.035156 3385.449219 C 2571.65625 3527.058594 2695.988281 3644.816406 2713.746094 3785.320312 C 2727.523438 3894.300781 2704.203125 4005.644531 2682.953125 4113.417969 C 2667.054688 4194.039062 2626.203125 4268.472656 2611.09375 4349.242188 C 2594.082031 4440.199219 2591.097656 4533.546875 2590.566406 4626.074219 C 2589.933594 4735.652344 2584.664062 4847.820312 2611.09375 4954.175781 C 2639.136719 5067.003906 2717.589844 5161.871094 2754.808594 5272.019531 C 2784.003906 5358.425781 2801.839844 5448.570312 2816.398438 5538.601562 C 2833.9375 5647.042969 2837.300781 5757.300781 2847.195312 5866.699219 C 2854.304688 5945.285156 2866.929688 6023.621094 2867.726562 6102.523438 C 2868.761719 6205.277344 2850.617188 6307.414062 2847.195312 6410.117188 C 2844.691406 6485.261719 2892.75 6575.824219 2847.195312 6635.683594 C 2808.511719 6686.515625 2724.648438 6701.5625 2662.421875 6686.949219 C 2572.796875 6665.902344 2503.71875 6581.703125 2457.117188 6502.394531 C 2378.96875 6369.394531 2369.605469 6204.726562 2354.464844 6051.257812 C 2342.042969 5925.363281 2344.648438 5796.792969 2364.730469 5671.890625 C 2376.058594 5601.429688 2417.085938 5537.59375 2426.320312 5466.828125 C 2440.039062 5361.714844 2429.988281 5254.070312 2416.054688 5148.984375 C 2408.210938 5089.8125 2393.457031 5031.449219 2374.996094 4974.679688 C 2339.460938 4865.414062 2264.234375 4769.464844 2241.546875 4656.832031 C 2226.023438 4579.769531 2238.640625 4499.566406 2241.546875 4421.011719 C 2244.972656 4328.542969 2263.269531 4236.703125 2262.078125 4144.179688 C 2261.195312 4075.488281 2249.234375 4007.378906 2241.546875 3939.117188 C 2235.378906 3884.351562 2235.066406 3828.359375 2221.015625 3775.066406 C 2205 3714.304688 2201.429688 3635.726562 2149.160156 3600.761719 C 2120.730469 3581.746094 2073.359375 3579.578125 2046.507812 3600.761719 C 1988.542969 3646.492188 2015.765625 3745.222656 1995.183594 3816.078125 C 1962.917969 3927.144531 1920.695312 4035.085938 1882.265625 4144.179688 C 1852.089844 4229.839844 1807.539062 4311.425781 1789.878906 4400.507812 C 1775.242188 4474.339844 1772.375 4551.15625 1779.613281 4626.074219 C 1790.773438 4741.589844 1825.59375 4854.132812 1861.734375 4964.425781 C 1903.246094 5091.105469 1981.777344 5204.628906 2015.714844 5333.539062 C 2037.621094 5416.765625 2034.289062 5504.679688 2046.507812 5589.867188 C 2070.121094 5754.5 2121.273438 5915.867188 2128.628906 6082.015625 C 2134.542969 6215.570312 2102.972656 6348.300781 2097.835938 6481.886719 C 2094.421875 6570.683594 2113.9375 6661.074219 2097.835938 6748.46875 C 2083.917969 6824.003906 2076.652344 6916.945312 2015.714844 6963.78125 C 1963.902344 7003.601562 1882.574219 7005.289062 1820.675781 6984.289062 C 1731.296875 6953.964844 1689.988281 6847.226562 1615.371094 6789.480469 C 1564.335938 6749.984375 1485.871094 6741.300781 1451.125 6686.949219 C 1391.738281 6594.054688 1411.5625 6469.058594 1410.066406 6358.851562 C 1408.15625 6218.070312 1423.628906 6076.558594 1451.125 5938.472656 C 1467.175781 5857.882812 1503.398438 5782.457031 1522.984375 5702.652344 C 1549.507812 5594.578125 1575.175781 5485.425781 1584.574219 5374.550781 C 1602.1875 5166.785156 1581.976562 4957.480469 1574.308594 4749.113281 C 1569.902344 4629.378906 1549.96875 4510.007812 1553.777344 4390.253906 C 1557.390625 4276.699219 1590.453125 4165.425781 1594.839844 4051.898438 C 1597.878906 3973.277344 1623.246094 3884.628906 1584.574219 3816.078125 C 1566.40625 3783.871094 1528.210938 3746.066406 1492.1875 3754.558594 C 1465.339844 3760.890625 1459.785156 3800.171875 1451.125 3826.332031 C 1424.082031 3908.039062 1449.226562 4001.585938 1420.332031 4082.660156 C 1379.582031 4196.996094 1267.722656 4276.527344 1225.292969 4390.253906 C 1201.125 4455.019531 1196.644531 4526.230469 1194.496094 4595.316406 C 1192.042969 4674.179688 1211.601562 4752.308594 1215.027344 4831.136719 C 1219.625 4936.984375 1210.792969 5043.117188 1215.027344 5148.984375 C 1218.453125 5234.628906 1236.144531 5319.597656 1235.558594 5405.3125 C 1234.808594 5515.152344 1261.605469 5639.375 1204.761719 5733.410156 C 1156.199219 5813.75 1058.027344 5858.226562 968.660156 5887.207031 C 903.488281 5908.339844 827.296875 5922.0625 763.355469 5897.460938 C 704.65625 5874.871094 667.792969 5814.332031 629.910156 5764.167969 C 587.480469 5707.984375 543.863281 5648.003906 527.257812 5579.613281 C 501.4375 5473.277344 522.441406 5359.890625 537.523438 5251.515625 C 558.886719 5097.984375 604.019531 4948.289062 650.441406 4800.378906 C 682.183594 4699.226562 736.511719 4605.59375 763.355469 4503.035156 C 780.859375 4436.164062 778.480469 4365.296875 794.152344 4297.976562 C 812.046875 4221.121094 848.574219 4149.363281 866.007812 4072.40625 C 888.121094 3974.824219 915.148438 3874.792969 907.070312 3775.066406 C 903.316406 3728.730469 905.988281 3665.574219 866.007812 3641.777344 C 821.046875 3615.011719 764.117188 3667.382812 712.03125 3672.535156 C 691.601562 3674.554688 667.578125 3661.246094 650.441406 3672.535156 C 606.929688 3701.191406 604.722656 3766.496094 588.847656 3816.078125 C 564.320312 3892.699219 534.714844 3971.507812 537.523438 4051.898438 C 540.503906 4137.289062 601.738281 4212.875 609.378906 4297.976562 C 615.21875 4363.007812 612.742188 4432.007812 588.847656 4492.785156 C 563.835938 4556.410156 522.273438 4618.421875 465.667969 4656.832031 C 401.125 4700.632812 316.476562 4732.964844 239.832031 4718.351562 C 172.609375 4705.535156 104.964844 4657.050781 75.589844 4595.316406 C 38.839844 4518.082031 64.523438 4421.800781 85.851562 4338.988281 C 114.449219 4227.96875 190.851562 4135.0625 239.832031 4031.394531 C 268.597656 3970.511719 296.734375 3909.269531 321.953125 3846.839844 C 336.9375 3809.742188 387.003906 3766.085938 363.015625 3734.054688 C 330.15625 3690.179688 251.1875 3760.460938 198.769531 3744.308594 C 161.492188 3732.816406 141.054688 3690.398438 106.382812 3672.535156 C 74.636719 3656.175781 10.941406 3676.722656 3.730469 3641.777344 Z M 3.730469 3641.777344 "/>
<path style="fill-rule:nonzero;fill:rgb(100%,100%,100%);fill-opacity:1;stroke-width:3;stroke-linecap:butt;stroke-linejoin:miter;stroke:rgb(0%,0%,0%);stroke-opacity:1;stroke-miterlimit:4;" d="M 1774.632812 1050.15625 C 1519.511719 1050.15625 1312.570312 1256.597656 1312.570312 1511.417969 C 1312.570312 1766.238281 1519.511719 1972.933594 1774.632812 1972.933594 C 2029.75 1972.933594 2236.4375 1766.238281 2236.4375 1511.417969 C 2236.4375 1256.597656 2029.75 1050.15625 1774.632812 1050.15625 Z M 1720.015625 1112.320312 C 1882.324219 1112.320312 2013.917969 1233.15625 2013.917969 1382.273438 C 2013.917969 1531.394531 1882.324219 1652.230469 1720.015625 1652.230469 C 1557.710938 1652.230469 1426.117188 1531.394531 1426.117188 1382.273438 C 1426.117188 1233.15625 1557.710938 1112.320312 1720.015625 1112.320312 Z M 2005.535156 1621.023438 C 2059.921875 1621.023438 2104.09375 1655.695312 2104.09375 1698.410156 C 2104.09375 1741.125 2059.921875 1775.792969 2005.535156 1775.792969 C 1951.144531 1775.792969 1906.972656 1741.125 1906.972656 1698.410156 C 1906.972656 1655.695312 1951.144531 1621.023438 2005.535156 1621.023438 Z M 1689.789062 1675.320312 C 1769.082031 1675.320312 1833.5625 1727.742188 1833.5625 1792.285156 C 1833.5625 1856.828125 1769.082031 1909.25 1689.789062 1909.25 C 1610.496094 1909.25 1546.269531 1856.828125 1546.269531 1792.285156 C 1546.269531 1727.742188 1610.496094 1675.320312 1689.789062 1675.320312 Z M 1689.789062 1675.320312 "/>
<path style="fill-rule:nonzero;fill:rgb(100%,100%,100%);fill-opacity:1;stroke-width:3;stroke-linecap:butt;stroke-linejoin:miter;stroke:rgb(0%,0%,0%);stroke-opacity:1;stroke-miterlimit:4;" d="M 3370.878906 1065.886719 C 3113.902344 1065.886719 2905.519531 1278.601562 2905.519531 1540.847656 C 2905.519531 1803.097656 3113.902344 2015.558594 3370.878906 2015.558594 C 3627.859375 2015.558594 3835.988281 1803.097656 3835.988281 1540.847656 C 3835.988281 1278.601562 3627.859375 1065.886719 3370.878906 1065.886719 Z M 3383.328125 1151.898438 C 3540.097656 1151.898438 3667.066406 1270.476562 3667.066406 1416.78125 C 3667.066406 1563.085938 3540.097656 1681.664062 3383.328125 1681.664062 C 3226.554688 1681.664062 3099.589844 1563.085938 3099.589844 1416.78125 C 3099.589844 1270.476562 3226.554688 1151.898438 3383.328125 1151.898438 Z M 3122.707031 1660.859375 C 3171.5625 1660.859375 3211.355469 1699.796875 3211.355469 1747.882812 C 3211.355469 1795.96875 3171.5625 1834.910156 3122.707031 1834.910156 C 3073.847656 1834.910156 3034.308594 1795.96875 3034.308594 1747.882812 C 3034.308594 1699.796875 3073.847656 1660.859375 3122.707031 1660.859375 Z M 3448.355469 1729.871094 C 3524.882812 1729.871094 3587.050781 1782.125 3587.050781 1846.582031 C 3587.050781 1911.035156 3524.882812 1963.289062 3448.355469 1963.289062 C 3371.828125 1963.289062 3309.917969 1911.035156 3309.917969 1846.582031 C 3309.917969 1782.125 3371.828125 1729.871094 3448.355469 1729.871094 Z M 3448.355469 1729.871094 "/>
<path style="fill-rule:nonzero;fill:rgb(100%,100%,100%);fill-opacity:1;stroke-width:3;stroke-linecap:butt;stroke-linejoin:miter;stroke:rgb(0%,0%,0%);stroke-opacity:1;stroke-miterlimit:4;" d="M 2235.484375 2180.015625 C 2288.222656 2198.941406 2339.574219 2242.0625 2396.917969 2256.734375 C 2453.046875 2271.09375 2512.199219 2267.980469 2569.929688 2266.328125 C 2614.945312 2265.039062 2659.480469 2256.203125 2704.257812 2251.132812 C 2755.582031 2245.324219 2835.109375 2184.910156 2858.234375 2233.683594 C 2909.109375 2341 2750.957031 2469.316406 2626.34375 2497.507812 C 2540.699219 2516.882812 2465.53125 2474.707031 2403.980469 2361.328125 C 2342.425781 2247.953125 2193.367188 2164.902344 2235.484375 2180.015625 Z M 2235.484375 2180.015625 "/>
<path style=" stroke:none;fill-rule:nonzero;fill:rgb(0%,0%,0%);fill-opacity:1;" d="M 1722.304688 1101.410156 C 1552.914062 1101.410156 1415.449219 1227.324219 1415.449219 1382.527344 C 1415.449219 1537.734375 1552.914062 1663.648438 1722.304688 1663.648438 C 1891.691406 1663.648438 2028.902344 1537.734375 2028.902344 1382.527344 C 2028.902344 1227.324219 1891.691406 1101.410156 1722.304688 1101.410156 Z M 1722.304688 1101.410156 "/>
<path style=" stroke:none;fill-rule:nonzero;fill:rgb(0%,0%,0%);fill-opacity:1;" d="M 1686.765625 1665.988281 C 1605.5625 1665.988281 1539.664062 1721.597656 1539.664062 1790.140625 C 1539.664062 1858.683594 1605.5625 1914.292969 1686.765625 1914.292969 C 1767.964844 1914.292969 1833.742188 1858.683594 1833.742188 1790.140625 C 1833.742188 1721.597656 1767.964844 1665.988281 1686.765625 1665.988281 Z M 1686.765625 1665.988281 "/>
<path style=" stroke:none;fill-rule:nonzero;fill:rgb(0%,0%,0%);fill-opacity:1;" d="M 2006.125 1605.226562 C 1948.71875 1605.226562 1902.132812 1646.09375 1902.132812 1696.464844 C 1902.132812 1746.835938 1948.71875 1787.703125 2006.125 1787.703125 C 2063.527344 1787.703125 2110.027344 1746.835938 2110.027344 1696.464844 C 2110.027344 1646.09375 2063.527344 1605.226562 2006.125 1605.226562 Z M 2006.125 1605.226562 "/>
<path style=" stroke:none;fill-rule:nonzero;fill:rgb(0%,0%,0%);fill-opacity:1;" d="M 3382.566406 1149.511719 C 3221.578125 1149.511719 3090.925781 1268.621094 3090.925781 1415.441406 C 3090.925781 1562.257812 3221.578125 1681.371094 3382.566406 1681.371094 C 3543.554688 1681.371094 3673.964844 1562.257812 3673.964844 1415.441406 C 3673.964844 1268.621094 3543.554688 1149.511719 3382.566406 1149.511719 Z M 3382.566406 1149.511719 "/>
<path style=" stroke:none;fill-rule:nonzero;fill:rgb(0%,0%,0%);fill-opacity:1;" d="M 3453.480469 1721.6875 C 3372.277344 1721.6875 3306.378906 1777.292969 3306.378906 1845.839844 C 3306.378906 1914.382812 3372.277344 1969.988281 3453.480469 1969.988281 C 3534.679688 1969.988281 3600.457031 1914.382812 3600.457031 1845.839844 C 3600.457031 1777.292969 3534.679688 1721.6875 3453.480469 1721.6875 Z M 3453.480469 1721.6875 "/>
<path style=" stroke:none;fill-rule:nonzero;fill:rgb(0%,0%,0%);fill-opacity:1;" d="M 3121.40625 1658.394531 C 3068.203125 1658.394531 3025.023438 1699.257812 3025.023438 1749.632812 C 3025.023438 1800.003906 3068.203125 1840.871094 3121.40625 1840.871094 C 3174.613281 1840.871094 3217.710938 1800.003906 3217.710938 1749.632812 C 3217.710938 1699.257812 3174.613281 1658.394531 3121.40625 1658.394531 Z M 3121.40625 1658.394531 "/>
</g>
</svg>
