<?xml version="1.0" encoding="UTF-8" standalone="no"?>
<!-- Created with Inkscape (http://www.inkscape.org/) -->

<svg
   version="1.1"
   id="svg419"
   width="395.59451"
   height="368.39047"
   viewBox="0 0 395.59452 368.39048"
   xmlns="http://www.w3.org/2000/svg"
   xmlns:svg="http://www.w3.org/2000/svg">
  <defs
     id="defs423" />
  <g
     id="layer10"
     style="display:inline"
     transform="translate(458.22725,115.7285)">
    <path
       style="fill:#80c6db;fill-opacity:1;stroke:#000000;stroke-width:1px;stroke-linecap:butt;stroke-linejoin:miter;stroke-opacity:1"
       d="M -457.72725,132.17919 V -115.2285 h 394.5945 v 366.05292 l -113.0936,1.33449 -23.63704,-33.65156 -24.85157,-11.18899 -14.81981,5.50583 -6.24476,-27.20334 -47.88636,-23.88738 -53.94416,7.57249 -51.18638,-9.15803 -34.05546,2.51219 z"
       id="path280640" />
  </g>
  <g
     id="layer9"
     style="display:inline"
     transform="translate(458.22725,115.7285)">
    <path
       style="display:inline;fill:#feff72;fill-opacity:1;stroke:#000000;stroke-width:1.00911px;stroke-linecap:butt;stroke-linejoin:miter;stroke-opacity:1"
       d="m -175.72635,252.65891 -23.63704,-33.65156 -24.85157,-11.18899 -14.81981,5.50583 -6.24476,-27.20334 -47.88636,-23.88738 -53.94416,7.57249 -51.18638,-9.15803 -34.05546,2.51219 -24.87536,-30.48093 v 120.33543 z"
       id="path205776"
       transform="translate(-0.5,-0.5)" />
    <path
       style="fill:none;fill-opacity:1;stroke:#8b69d8;stroke-width:5;stroke-linecap:butt;stroke-linejoin:miter;stroke-miterlimit:4;stroke-dasharray:none;stroke-opacity:1"
       d="m -457.86882,-85.477726 45.44279,-3.769399 47.5988,-1.562952 45.19708,2.438947 18.58236,4.355225 22.06644,11.10555 9.98401,4.516826 15.32406,0.695388 5.29216,8.709232 8.33445,6.682273 13.77819,20.196426 20.12495,15.609299 7.60722,14.6760492 5.50132,25.4965848 20.51612,14.376758 14.74872,64.843369 1.32365,19.37355 -3.3758,23.42805 -13.40287,19.45356"
       id="path320850" />
    <path
       style="fill:#8b69d8;fill-opacity:1;stroke:none;stroke-width:1px;stroke-linecap:butt;stroke-linejoin:miter;stroke-opacity:1"
       d="m -436.59517,-87.123972 10.82396,10.177829 10.38427,-11.418673 z"
       id="path389798" />
    <path
       style="fill:#8b69d8;fill-opacity:1;stroke:none;stroke-width:1px;stroke-linecap:butt;stroke-linejoin:miter;stroke-opacity:1"
       d="m -378.38337,-89.854937 9.71642,9.970767 9.74491,-9.914405 z"
       id="path390261" />
    <path
       style="fill:#8b69d8;fill-opacity:1;stroke:none;stroke-width:1px;stroke-linecap:butt;stroke-linejoin:miter;stroke-opacity:1"
       d="m -321.14894,-88.449998 7.24199,12.53048 12.85916,-8.096387 z"
       id="path390329" />
    <path
       style="fill:#8b69d8;fill-opacity:1;stroke:none;stroke-width:1px;stroke-linecap:butt;stroke-linejoin:miter;stroke-opacity:1"
       d="m -238.19907,-49.77795 -2.91702,15.217158 14.02156,1.127678 z"
       id="path390397" />
    <path
       style="fill:#8b69d8;fill-opacity:1;stroke:none;stroke-width:1px;stroke-linecap:butt;stroke-linejoin:miter;stroke-opacity:1"
       d="m -200.85686,-6.7806237 -8.34579,11.1941283 13.44399,8.4602454 z"
       id="path390531" />
    <path
       style="fill:#8b69d8;fill-opacity:1;stroke:none;stroke-width:1px;stroke-linecap:butt;stroke-linejoin:miter;stroke-opacity:1"
       d="m -169.09964,52.77524 -9.14798,9.950751 13.27123,9.383154 z"
       id="path390599" />
    <path
       style="fill:#8b69d8;fill-opacity:1;stroke:none;stroke-width:1px;stroke-linecap:butt;stroke-linejoin:miter;stroke-opacity:1"
       d="m -158.15928,100.4688 -10.28165,11.84668 11.99443,9.94992 z"
       id="path390667" />
    <path
       style="fill:#8b69d8;fill-opacity:1;stroke:none;stroke-width:1px;stroke-linecap:butt;stroke-linejoin:miter;stroke-opacity:1"
       d="m -159.8223,145.69345 -17.69272,2.91955 4.28985,16.53401 z"
       id="path390735" />
    <path
       style="fill:none;stroke:#8b69d8;stroke-width:5;stroke-linecap:butt;stroke-linejoin:miter;stroke-miterlimit:4;stroke-dasharray:none;stroke-opacity:1"
       d="m -293.66589,161.73347 120.44072,3.41354"
       id="path390982" />
    <path
       style="fill:none;stroke:#8b69d8;stroke-width:5;stroke-linecap:butt;stroke-linejoin:miter;stroke-miterlimit:4;stroke-dasharray:none;stroke-opacity:1"
       d="m -268.99734,-68.393529 38.89788,-14.414917 63.21671,8.346273 18.99259,8.98499 31.15607,19.912272 20.621084,14.608298 32.973192,6.926514"
       id="path391017" />
    <path
       style="fill:#feff72;fill-opacity:1;stroke:#000000;stroke-width:1px;stroke-linecap:butt;stroke-linejoin:miter;stroke-opacity:1"
       d="m -375.77724,-53.062097 -4.15771,2.691884 -1.42166,-1.338297 -2.0349,1.29362 -2.6871,-0.964656 -2.44942,-1.667228 4.4292,-0.281077 2.28423,-0.240547 3.15255,0.09933 z"
       id="path391165" />
    <path
       style="fill:#feff72;fill-opacity:1;stroke:#000000;stroke-width:1px;stroke-linecap:butt;stroke-linejoin:miter;stroke-opacity:1"
       d="m -393.66705,-54.931414 -6.64904,-0.435426 -0.61301,5.274719 7.97285,-2.017185 z"
       id="path424459" />
    <path
       style="fill:#feff72;fill-opacity:1;stroke:#000000;stroke-width:1px;stroke-linecap:butt;stroke-linejoin:miter;stroke-opacity:1"
       d="m -406.52034,-41.96412 -2.52009,-0.347801 -2.01657,-1.19569 -1.09278,1.316929 2.26437,1.323971 2.92838,0.03657 z"
       id="path424494" />
    <path
       style="fill:#feff72;fill-opacity:1;stroke:#000000;stroke-width:1px;stroke-linecap:butt;stroke-linejoin:miter;stroke-opacity:1"
       d="m -413.60258,-53.246296 0.7132,2.13281 -1.46599,-0.02462 -0.76476,-1.575883 z"
       id="path424529" />
    <path
       style="fill:#feff72;fill-opacity:1;stroke:#000000;stroke-width:1px;stroke-linecap:butt;stroke-linejoin:miter;stroke-opacity:1"
       d="m -457.78447,-71.299486 v 18.062494 l 1.93229,1.089116 3.5201,-1.025128 2.62433,1.895008 2.85516,-0.950846 0.70022,-3.460063 2.4042,-1.974718 -2.24906,-3.851065 -5.40223,-4.598149 -2.63637,-1.921446 z"
       id="path424564" />
  </g>
  <g
     id="layer2"
     style="display:inline"
     transform="translate(457.72725,115.2285)">
    <path
       style="fill:#00ff1f;fill-opacity:1;stroke:none;stroke-width:1px;stroke-linecap:butt;stroke-linejoin:miter;stroke-opacity:1"
       d="m -340.01131,35.312023 171.28614,0.389386 17.388,79.444251 -17.388,44.50135 -171.28614,-0.28505 z"
       id="path6029" />
  </g>
  <g
     id="layer5"
     style="display:inline"
     transform="translate(457.72725,115.2285)">
    <path
       style="fill:#0019ff;fill-opacity:1;stroke:none;stroke-width:1px;stroke-linecap:butt;stroke-linejoin:miter;stroke-opacity:1"
       d="m -168.72517,159.64701 17.388,-44.50135 -17.388,-79.444251 78.26787,-0.389386 V 159.36196 Z"
       id="path42937" />
  </g>
  <g
     id="layer6"
     style="display:inline"
     transform="translate(457.72725,115.2285)">
    <path
       style="fill:none;fill-opacity:1;stroke:#cd00ff;stroke-width:5;stroke-linecap:butt;stroke-linejoin:miter;stroke-miterlimit:4;stroke-dasharray:none;stroke-opacity:1"
       d="m -168.72517,35.701409 17.388,79.444251 -17.388,44.50135"
       id="path72343" />
  </g>
  <g
     id="layer1"
     style="display:inline"
     transform="translate(457.72725,115.2285)">
    <rect
       style="display:inline;fill:none;fill-opacity:1;stroke:#000000;stroke-width:5;stroke-miterlimit:4;stroke-dasharray:none;stroke-opacity:1"
       id="rect3908"
       width="249.55402"
       height="124.04995"
       x="-340.01132"
       y="35.312023" />
  </g>
  <g
     id="layer7"
     style="display:inline"
     transform="translate(457.72725,115.2285)">
    <text
       xml:space="preserve"
       style="font-weight:bold;font-size:26.6667px;line-height:1.25;font-family:'Liberation Serif';-inkscape-font-specification:'Liberation Serif, Bold';display:inline"
       x="-97.720642"
       y="28.147694"
       id="text174467"><tspan
         x="-97.720642"
         y="28.147694"
         id="tspan174469">P3</tspan></text>
    <text
       xml:space="preserve"
       style="font-weight:bold;font-size:26.6667px;line-height:1.25;font-family:'Liberation Serif';-inkscape-font-specification:'Liberation Serif, Bold';display:inline"
       x="-185.24947"
       y="28.408112"
       id="text167531"><tspan
         id="tspan167529"
         x="-185.24947"
         y="28.408112">P2</tspan></text>
    <text
       xml:space="preserve"
       style="font-style:normal;font-weight:normal;font-size:40px;line-height:1.25;font-family:sans-serif;display:inline;fill:#000000;fill-opacity:1;stroke:none"
       x="-356.12756"
       y="28.408112"
       id="text139785"><tspan
         id="tspan139783"
         x="-356.12756"
         y="28.408112"
         style="font-style:normal;font-variant:normal;font-weight:bold;font-stretch:normal;font-size:26.6667px;font-family:'Liberation Serif';-inkscape-font-specification:'Liberation Serif, Bold';font-variant-ligatures:normal;font-variant-caps:normal;font-variant-numeric:normal;font-variant-east-asian:normal">P1</tspan></text>
    <text
       xml:space="preserve"
       style="font-weight:bold;font-size:26.6667px;line-height:1.25;font-family:'Liberation Serif';-inkscape-font-specification:'Liberation Serif, Bold';display:inline"
       x="-97.720642"
       y="184.14769"
       id="text177216"><tspan
         x="-97.720642"
         y="184.14769"
         id="tspan177214">P4</tspan></text>
    <text
       xml:space="preserve"
       style="font-weight:bold;font-size:26.6667px;line-height:1.25;font-family:'Liberation Serif';-inkscape-font-specification:'Liberation Serif, Bold';display:inline"
       x="-185.24947"
       y="184.40813"
       id="text177220"><tspan
         id="tspan177218"
         x="-185.24947"
         y="184.40813">P5</tspan></text>
    <text
       xml:space="preserve"
       style="font-style:normal;font-weight:normal;font-size:40px;line-height:1.25;font-family:sans-serif;display:inline;fill:#000000;fill-opacity:1;stroke:none"
       x="-356.12756"
       y="184.40813"
       id="text177224"><tspan
         id="tspan177222"
         x="-356.12756"
         y="184.40813"
         style="font-style:normal;font-variant:normal;font-weight:bold;font-stretch:normal;font-size:26.6667px;font-family:'Liberation Serif';-inkscape-font-specification:'Liberation Serif, Bold';font-variant-ligatures:normal;font-variant-caps:normal;font-variant-numeric:normal;font-variant-east-asian:normal">P6</tspan></text>
    <text
       xml:space="preserve"
       style="font-weight:bold;font-size:26.6667px;line-height:1.25;font-family:'Liberation Serif';-inkscape-font-specification:'Liberation Serif, Bold'"
       x="-164.79869"
       y="122.16718"
       id="text198612"><tspan
         id="tspan198610"
         x="-164.79869"
         y="122.16718">P7</tspan></text>
  </g>
</svg>
