<?xml version="1.0" encoding="UTF-8" standalone="no"?>
<!-- Created with Inkscape (http://www.inkscape.org/) -->

<svg
   xmlns:dc="http://purl.org/dc/elements/1.1/"
   xmlns:cc="http://creativecommons.org/ns#"
   xmlns:rdf="http://www.w3.org/1999/02/22-rdf-syntax-ns#"
   xmlns:svg="http://www.w3.org/2000/svg"
   xmlns="http://www.w3.org/2000/svg"
   xmlns:sodipodi="http://sodipodi.sourceforge.net/DTD/sodipodi-0.dtd"
   xmlns:inkscape="http://www.inkscape.org/namespaces/inkscape"
   version="1.1"
   id="svg2"
   xml:space="preserve"
   width="837.33331"
   height="641.33331"
   viewBox="0 0 837.33331 641.33331"
   sodipodi:docname="comparison.svg"
   inkscape:version="0.92.5 (2060ec1f9f, 2020-04-08)"><metadata
     id="metadata8"><rdf:RDF><cc:Work
         rdf:about=""><dc:format>image/svg+xml</dc:format><dc:type
           rdf:resource="http://purl.org/dc/dcmitype/StillImage" /><dc:title></dc:title></cc:Work></rdf:RDF></metadata><defs
     id="defs6"><clipPath
       clipPathUnits="userSpaceOnUse"
       id="clipPath28"><path
         d="M 0,0 H 837 V 641 H 0 Z"
         id="path26"
         inkscape:connector-curvature="0"
         style="clip-rule:evenodd" /></clipPath><clipPath
       clipPathUnits="userSpaceOnUse"
       id="clipPath434"><path
         d="M 0,0 H 837 V 641 H 0 Z"
         id="path432"
         inkscape:connector-curvature="0"
         style="clip-rule:evenodd" /></clipPath><clipPath
       clipPathUnits="userSpaceOnUse"
       id="clipPath440"><path
         d="M 463.75883,23.321206 H 735.61746 V 53.971933 H 463.75883 Z"
         id="path438"
         inkscape:connector-curvature="0"
         style="clip-rule:evenodd" /></clipPath><clipPath
       clipPathUnits="userSpaceOnUse"
       id="clipPath460"><path
         d="M 0,0 H 837 V 641 H 0 Z"
         id="path458"
         inkscape:connector-curvature="0"
         style="clip-rule:evenodd" /></clipPath><clipPath
       clipPathUnits="userSpaceOnUse"
       id="clipPath488"><path
         d="M 0,0 H 837 V 641 H 0 Z"
         id="path486"
         inkscape:connector-curvature="0"
         style="clip-rule:evenodd" /></clipPath><clipPath
       clipPathUnits="userSpaceOnUse"
       id="clipPath494"><path
         d="M 428.67291,43.310811 H 735.61746 V 73.961538 H 428.67291 Z"
         id="path492"
         inkscape:connector-curvature="0"
         style="clip-rule:evenodd" /></clipPath><clipPath
       clipPathUnits="userSpaceOnUse"
       id="clipPath514"><path
         d="M 0,0 H 837 V 641 H 0 Z"
         id="path512"
         inkscape:connector-curvature="0"
         style="clip-rule:evenodd" /></clipPath></defs><sodipodi:namedview
     pagecolor="#ffffff"
     bordercolor="#666666"
     borderopacity="1"
     objecttolerance="10"
     gridtolerance="10"
     guidetolerance="10"
     inkscape:pageopacity="0"
     inkscape:pageshadow="2"
     inkscape:window-width="1473"
     inkscape:window-height="726"
     id="namedview4"
     showgrid="false"
     inkscape:zoom="0.36798338"
     inkscape:cx="418.66666"
     inkscape:cy="320.66666"
     inkscape:window-x="72"
     inkscape:window-y="27"
     inkscape:window-maximized="0"
     inkscape:current-layer="g10" /><g
     id="g10"
     inkscape:groupmode="layer"
     inkscape:label="comparison"
     transform="matrix(1.3333333,0,0,-1.3333333,0,641.33333)"><g
       id="g12"
       transform="matrix(0.75,0,0,-0.75,0,481)"><g
         id="g14"><g
           id="g16" /></g><g
         id="g18"><g
           id="g20" /></g><g
         id="g22"><g
           id="g24"
           clip-path="url(#clipPath28)"><g
             id="g30" /><g
             id="g32" /><g
             id="g34"
             transform="scale(1.3326403)"><path
               d="m 67.5,15.5 h 6"
               style="fill:none;stroke:#000000;stroke-width:1;stroke-linecap:round;stroke-linejoin:round;stroke-miterlimit:10;stroke-dasharray:none;stroke-opacity:1"
               id="path36"
               inkscape:connector-curvature="0" /><path
               d="m 606.5,15.5 h -6"
               style="fill:none;stroke:#000000;stroke-width:1;stroke-linecap:round;stroke-linejoin:round;stroke-miterlimit:10;stroke-dasharray:none;stroke-opacity:1"
               id="path38"
               inkscape:connector-curvature="0" /></g><g
             id="g40"
             transform="matrix(1.3326403,0,0,1.3326403,66.632017,25.986486)" /><g
             id="g42"
             transform="matrix(1.3326403,0,0,1.3326403,66.632017,25.986486)" /><g
             id="g44"
             transform="matrix(1.3326403,0,0,1.3326403,66.632017,25.986486)"><g
               id="g46"><text
                 style="font-variant:normal;font-weight:normal;font-size:12px;font-family:'DejaVu Sans';-inkscape-font-specification:DejaVuSans;writing-mode:lr-tb;fill:#000000;fill-opacity:1;fill-rule:nonzero;stroke:none"
                 id="text50"><tspan
                   x="0 3.8125"
                   y="0"
                   sodipodi:role="line"
                   id="tspan48">	0</tspan></text>
</g></g><g
             id="g52"
             transform="scale(1.3326403)"><path
               d="m 67.5,84.5 h 6"
               style="fill:none;stroke:#000000;stroke-width:1;stroke-linecap:round;stroke-linejoin:round;stroke-miterlimit:10;stroke-dasharray:none;stroke-opacity:1"
               id="path54"
               inkscape:connector-curvature="0" /><path
               d="m 606.5,84.5 h -6"
               style="fill:none;stroke:#000000;stroke-width:1;stroke-linecap:round;stroke-linejoin:round;stroke-miterlimit:10;stroke-dasharray:none;stroke-opacity:1"
               id="path56"
               inkscape:connector-curvature="0" /></g><g
             id="g58"
             transform="matrix(1.3326403,0,0,1.3326403,45.309771,119.27131)" /><g
             id="g60"
             transform="matrix(1.3326403,0,0,1.3326403,45.309771,119.27131)" /><g
             id="g62"
             transform="matrix(1.3326403,0,0,1.3326403,45.309771,119.27131)"><g
               id="g64"><text
                 style="font-variant:normal;font-weight:normal;font-size:12px;font-family:'DejaVu Sans';-inkscape-font-specification:DejaVuSans;writing-mode:lr-tb;fill:#000000;fill-opacity:1;fill-rule:nonzero;stroke:none"
                 id="text68"><tspan
                   x="0 3.8125 11.4375 19.0625"
                   y="0"
                   sodipodi:role="line"
                   id="tspan66">	500</tspan></text>
</g></g><g
             id="g70"
             transform="scale(1.3326403)"><path
               d="m 67.5,154.5 h 6"
               style="fill:none;stroke:#000000;stroke-width:1;stroke-linecap:round;stroke-linejoin:round;stroke-miterlimit:10;stroke-dasharray:none;stroke-opacity:1"
               id="path72"
               inkscape:connector-curvature="0" /><path
               d="m 606.5,154.5 h -6"
               style="fill:none;stroke:#000000;stroke-width:1;stroke-linecap:round;stroke-linejoin:round;stroke-miterlimit:10;stroke-dasharray:none;stroke-opacity:1"
               id="path74"
               inkscape:connector-curvature="0" /></g><g
             id="g76"
             transform="matrix(1.3326403,0,0,1.3326403,34.648649,211.22349)" /><g
             id="g78"
             transform="matrix(1.3326403,0,0,1.3326403,34.648649,211.22349)" /><g
             id="g80"
             transform="matrix(1.3326403,0,0,1.3326403,34.648649,211.22349)"><g
               id="g82"><text
                 style="font-variant:normal;font-weight:normal;font-size:12px;font-family:'DejaVu Sans';-inkscape-font-specification:DejaVuSans;writing-mode:lr-tb;fill:#000000;fill-opacity:1;fill-rule:nonzero;stroke:none"
                 id="text86"><tspan
                   x="0 3.8125 11.4375 19.0625 26.6875"
                   y="0"
                   sodipodi:role="line"
                   id="tspan84">	1000</tspan></text>
</g></g><g
             id="g88"
             transform="scale(1.3326403)"><path
               d="m 67.5,223.5 h 6"
               style="fill:none;stroke:#000000;stroke-width:1;stroke-linecap:round;stroke-linejoin:round;stroke-miterlimit:10;stroke-dasharray:none;stroke-opacity:1"
               id="path90"
               inkscape:connector-curvature="0" /><path
               d="m 606.5,223.5 h -6"
               style="fill:none;stroke:#000000;stroke-width:1;stroke-linecap:round;stroke-linejoin:round;stroke-miterlimit:10;stroke-dasharray:none;stroke-opacity:1"
               id="path92"
               inkscape:connector-curvature="0" /></g><g
             id="g94"
             transform="matrix(1.3326403,0,0,1.3326403,34.648649,304.50832)" /><g
             id="g96"
             transform="matrix(1.3326403,0,0,1.3326403,34.648649,304.50832)" /><g
             id="g98"
             transform="matrix(1.3326403,0,0,1.3326403,34.648649,304.50832)"><g
               id="g100"><text
                 style="font-variant:normal;font-weight:normal;font-size:12px;font-family:'DejaVu Sans';-inkscape-font-specification:DejaVuSans;writing-mode:lr-tb;fill:#000000;fill-opacity:1;fill-rule:nonzero;stroke:none"
                 id="text104"><tspan
                   x="0 3.8125 11.4375 19.0625 26.6875"
                   y="0"
                   sodipodi:role="line"
                   id="tspan102">	1500</tspan></text>
</g></g><g
             id="g106"
             transform="scale(1.3326403)"><path
               d="m 67.5,293.5 h 6"
               style="fill:none;stroke:#000000;stroke-width:1;stroke-linecap:round;stroke-linejoin:round;stroke-miterlimit:10;stroke-dasharray:none;stroke-opacity:1"
               id="path108"
               inkscape:connector-curvature="0" /><path
               d="m 606.5,293.5 h -6"
               style="fill:none;stroke:#000000;stroke-width:1;stroke-linecap:round;stroke-linejoin:round;stroke-miterlimit:10;stroke-dasharray:none;stroke-opacity:1"
               id="path110"
               inkscape:connector-curvature="0" /></g><g
             id="g112"
             transform="matrix(1.3326403,0,0,1.3326403,34.648649,397.79314)" /><g
             id="g114"
             transform="matrix(1.3326403,0,0,1.3326403,34.648649,397.79314)" /><g
             id="g116"
             transform="matrix(1.3326403,0,0,1.3326403,34.648649,397.79314)"><g
               id="g118"><text
                 style="font-variant:normal;font-weight:normal;font-size:12px;font-family:'DejaVu Sans';-inkscape-font-specification:DejaVuSans;writing-mode:lr-tb;fill:#000000;fill-opacity:1;fill-rule:nonzero;stroke:none"
                 id="text122"><tspan
                   x="0 3.8125 11.4375 19.0625 26.6875"
                   y="0"
                   sodipodi:role="line"
                   id="tspan120">	2000</tspan></text>
</g></g><g
             id="g124"
             transform="scale(1.3326403)"><path
               d="m 67.5,363.5 h 6"
               style="fill:none;stroke:#000000;stroke-width:1;stroke-linecap:round;stroke-linejoin:round;stroke-miterlimit:10;stroke-dasharray:none;stroke-opacity:1"
               id="path126"
               inkscape:connector-curvature="0" /><path
               d="m 606.5,363.5 h -6"
               style="fill:none;stroke:#000000;stroke-width:1;stroke-linecap:round;stroke-linejoin:round;stroke-miterlimit:10;stroke-dasharray:none;stroke-opacity:1"
               id="path128"
               inkscape:connector-curvature="0" /></g><g
             id="g130"
             transform="matrix(1.3326403,0,0,1.3326403,34.648649,489.74532)" /><g
             id="g132"
             transform="matrix(1.3326403,0,0,1.3326403,34.648649,489.74532)" /><g
             id="g134"
             transform="matrix(1.3326403,0,0,1.3326403,34.648649,489.74532)"><g
               id="g136"><text
                 style="font-variant:normal;font-weight:normal;font-size:12px;font-family:'DejaVu Sans';-inkscape-font-specification:DejaVuSans;writing-mode:lr-tb;fill:#000000;fill-opacity:1;fill-rule:nonzero;stroke:none"
                 id="text140"><tspan
                   x="0 3.8125 11.4375 19.0625 26.6875"
                   y="0"
                   sodipodi:role="line"
                   id="tspan138">	2500</tspan></text>
</g></g><g
             id="g142"
             transform="scale(1.3326403)"><path
               d="m 67.5,432.5 h 6"
               style="fill:none;stroke:#000000;stroke-width:1;stroke-linecap:round;stroke-linejoin:round;stroke-miterlimit:10;stroke-dasharray:none;stroke-opacity:1"
               id="path144"
               inkscape:connector-curvature="0" /><path
               d="m 606.5,432.5 h -6"
               style="fill:none;stroke:#000000;stroke-width:1;stroke-linecap:round;stroke-linejoin:round;stroke-miterlimit:10;stroke-dasharray:none;stroke-opacity:1"
               id="path146"
               inkscape:connector-curvature="0" /></g><g
             id="g148"
             transform="matrix(1.3326403,0,0,1.3326403,34.648649,583.03014)" /><g
             id="g150"
             transform="matrix(1.3326403,0,0,1.3326403,34.648649,583.03014)" /><g
             id="g152"
             transform="matrix(1.3326403,0,0,1.3326403,34.648649,583.03014)"><g
               id="g154"><text
                 style="font-variant:normal;font-weight:normal;font-size:12px;font-family:'DejaVu Sans';-inkscape-font-specification:DejaVuSans;writing-mode:lr-tb;fill:#000000;fill-opacity:1;fill-rule:nonzero;stroke:none"
                 id="text158"><tspan
                   x="0 3.8125 11.4375 19.0625 26.6875"
                   y="0"
                   sodipodi:role="line"
                   id="tspan156">	3000</tspan></text>
</g></g><g
             id="g160"
             transform="scale(1.3326403)"><path
               d="m 68.5,432.5 v -3"
               style="fill:none;stroke:#000000;stroke-width:1;stroke-linecap:round;stroke-linejoin:round;stroke-miterlimit:10;stroke-dasharray:none;stroke-opacity:1"
               id="path162"
               inkscape:connector-curvature="0" /><path
               d="m 68.5,15.5 v 3"
               style="fill:none;stroke:#000000;stroke-width:1;stroke-linecap:round;stroke-linejoin:round;stroke-miterlimit:10;stroke-dasharray:none;stroke-opacity:1"
               id="path164"
               inkscape:connector-curvature="0" /><path
               d="m 76.5,432.5 v -6"
               style="fill:none;stroke:#000000;stroke-width:1;stroke-linecap:round;stroke-linejoin:round;stroke-miterlimit:10;stroke-dasharray:none;stroke-opacity:1"
               id="path166"
               inkscape:connector-curvature="0" /><path
               d="m 76.5,15.5 v 6"
               style="fill:none;stroke:#000000;stroke-width:1;stroke-linecap:round;stroke-linejoin:round;stroke-miterlimit:10;stroke-dasharray:none;stroke-opacity:1"
               id="path168"
               inkscape:connector-curvature="0" /></g><g
             id="g170"
             transform="matrix(1.3326403,0,0,1.3326403,70.775695,601.35395)" /><g
             id="g172"
             transform="matrix(1.3326403,0,0,1.3326403,70.775695,601.35395)" /><g
             id="g174"
             transform="matrix(1.3326403,0,0,1.3326403,70.775695,601.35395)"><g
               id="g176"><text
                 style="font-variant:normal;font-weight:normal;font-size:12px;font-family:'DejaVu Sans';-inkscape-font-specification:DejaVuSans;writing-mode:lr-tb;fill:#000000;fill-opacity:1;fill-rule:nonzero;stroke:none"
                 id="text180"><tspan
                   x="0 3.8125 11.4375 18.53125 26.15625"
                   y="0"
                   sodipodi:role="line"
                   id="tspan178">	1x10</tspan></text>
</g></g><g
             id="g182"
             transform="matrix(1.3326403,0,0,1.3326403,115.79395,601.35395)" /><g
             id="g184"
             transform="matrix(1.3326403,0,0,1.3326403,115.79395,601.35395)" /><g
             id="g186"
             transform="matrix(1.3326403,0,0,1.3326403,115.79395,595.35707)"><g
               id="g188"><text
                 style="font-variant:normal;font-weight:normal;font-size:9px;font-family:'DejaVu Sans';-inkscape-font-specification:DejaVuSans;writing-mode:lr-tb;fill:#000000;fill-opacity:1;fill-rule:nonzero;stroke:none"
                 id="text192"><tspan
                   x="0 5.71875"
                   y="0"
                   sodipodi:role="line"
                   id="tspan190">20</tspan></text>
</g></g><g
             id="g194"
             transform="matrix(1.3326403,0,0,1.3326403,131.03602,595.35707)" /><g
             id="g196"
             transform="matrix(1.3326403,0,0,1.3326403,131.03602,595.35707)" /><g
             id="g198"
             transform="scale(1.3326403)"><path
               d="m 128.5,432.5 v -3"
               style="fill:none;stroke:#000000;stroke-width:1;stroke-linecap:round;stroke-linejoin:round;stroke-miterlimit:10;stroke-dasharray:none;stroke-opacity:1"
               id="path200"
               inkscape:connector-curvature="0" /><path
               d="m 128.5,15.5 v 3"
               style="fill:none;stroke:#000000;stroke-width:1;stroke-linecap:round;stroke-linejoin:round;stroke-miterlimit:10;stroke-dasharray:none;stroke-opacity:1"
               id="path202"
               inkscape:connector-curvature="0" /><path
               d="m 159.5,432.5 v -3"
               style="fill:none;stroke:#000000;stroke-width:1;stroke-linecap:round;stroke-linejoin:round;stroke-miterlimit:10;stroke-dasharray:none;stroke-opacity:1"
               id="path204"
               inkscape:connector-curvature="0" /><path
               d="m 159.5,15.5 v 3"
               style="fill:none;stroke:#000000;stroke-width:1;stroke-linecap:round;stroke-linejoin:round;stroke-miterlimit:10;stroke-dasharray:none;stroke-opacity:1"
               id="path206"
               inkscape:connector-curvature="0" /><path
               d="m 181.5,432.5 v -3"
               style="fill:none;stroke:#000000;stroke-width:1;stroke-linecap:round;stroke-linejoin:round;stroke-miterlimit:10;stroke-dasharray:none;stroke-opacity:1"
               id="path208"
               inkscape:connector-curvature="0" /><path
               d="m 181.5,15.5 v 3"
               style="fill:none;stroke:#000000;stroke-width:1;stroke-linecap:round;stroke-linejoin:round;stroke-miterlimit:10;stroke-dasharray:none;stroke-opacity:1"
               id="path210"
               inkscape:connector-curvature="0" /><path
               d="m 197.5,432.5 v -3"
               style="fill:none;stroke:#000000;stroke-width:1;stroke-linecap:round;stroke-linejoin:round;stroke-miterlimit:10;stroke-dasharray:none;stroke-opacity:1"
               id="path212"
               inkscape:connector-curvature="0" /><path
               d="m 197.5,15.5 v 3"
               style="fill:none;stroke:#000000;stroke-width:1;stroke-linecap:round;stroke-linejoin:round;stroke-miterlimit:10;stroke-dasharray:none;stroke-opacity:1"
               id="path214"
               inkscape:connector-curvature="0" /><path
               d="m 211.5,432.5 v -3"
               style="fill:none;stroke:#000000;stroke-width:1;stroke-linecap:round;stroke-linejoin:round;stroke-miterlimit:10;stroke-dasharray:none;stroke-opacity:1"
               id="path216"
               inkscape:connector-curvature="0" /><path
               d="m 211.5,15.5 v 3"
               style="fill:none;stroke:#000000;stroke-width:1;stroke-linecap:round;stroke-linejoin:round;stroke-miterlimit:10;stroke-dasharray:none;stroke-opacity:1"
               id="path218"
               inkscape:connector-curvature="0" /><path
               d="m 223.5,432.5 v -3"
               style="fill:none;stroke:#000000;stroke-width:1;stroke-linecap:round;stroke-linejoin:round;stroke-miterlimit:10;stroke-dasharray:none;stroke-opacity:1"
               id="path220"
               inkscape:connector-curvature="0" /><path
               d="m 223.5,15.5 v 3"
               style="fill:none;stroke:#000000;stroke-width:1;stroke-linecap:round;stroke-linejoin:round;stroke-miterlimit:10;stroke-dasharray:none;stroke-opacity:1"
               id="path222"
               inkscape:connector-curvature="0" /><path
               d="m 233.5,432.5 v -3"
               style="fill:none;stroke:#000000;stroke-width:1;stroke-linecap:round;stroke-linejoin:round;stroke-miterlimit:10;stroke-dasharray:none;stroke-opacity:1"
               id="path224"
               inkscape:connector-curvature="0" /><path
               d="m 233.5,15.5 v 3"
               style="fill:none;stroke:#000000;stroke-width:1;stroke-linecap:round;stroke-linejoin:round;stroke-miterlimit:10;stroke-dasharray:none;stroke-opacity:1"
               id="path226"
               inkscape:connector-curvature="0" /><path
               d="m 242.5,432.5 v -3"
               style="fill:none;stroke:#000000;stroke-width:1;stroke-linecap:round;stroke-linejoin:round;stroke-miterlimit:10;stroke-dasharray:none;stroke-opacity:1"
               id="path228"
               inkscape:connector-curvature="0" /><path
               d="m 242.5,15.5 v 3"
               style="fill:none;stroke:#000000;stroke-width:1;stroke-linecap:round;stroke-linejoin:round;stroke-miterlimit:10;stroke-dasharray:none;stroke-opacity:1"
               id="path230"
               inkscape:connector-curvature="0" /><path
               d="m 250.5,432.5 v -6"
               style="fill:none;stroke:#000000;stroke-width:1;stroke-linecap:round;stroke-linejoin:round;stroke-miterlimit:10;stroke-dasharray:none;stroke-opacity:1"
               id="path232"
               inkscape:connector-curvature="0" /><path
               d="m 250.5,15.5 v 6"
               style="fill:none;stroke:#000000;stroke-width:1;stroke-linecap:round;stroke-linejoin:round;stroke-miterlimit:10;stroke-dasharray:none;stroke-opacity:1"
               id="path234"
               inkscape:connector-curvature="0" /></g><g
             id="g236"
             transform="matrix(1.3326403,0,0,1.3326403,303.32143,601.35395)" /><g
             id="g238"
             transform="matrix(1.3326403,0,0,1.3326403,303.32143,595.35707)" /><g
             id="g240"
             transform="matrix(1.3326403,0,0,1.3326403,303.32143,601.35395)"><g
               id="g242"><text
                 style="font-variant:normal;font-weight:normal;font-size:12px;font-family:'DejaVu Sans';-inkscape-font-specification:DejaVuSans;writing-mode:lr-tb;fill:#000000;fill-opacity:1;fill-rule:nonzero;stroke:none"
                 id="text246"><tspan
                   x="0 3.8125 11.4375 18.53125 26.15625"
                   y="0"
                   sodipodi:role="line"
                   id="tspan244">	1x10</tspan></text>
</g></g><g
             id="g248"
             transform="matrix(1.3326403,0,0,1.3326403,348.33969,601.35395)" /><g
             id="g250"
             transform="matrix(1.3326403,0,0,1.3326403,348.33969,601.35395)" /><g
             id="g252"
             transform="matrix(1.3326403,0,0,1.3326403,348.33969,595.35707)"><g
               id="g254"><text
                 style="font-variant:normal;font-weight:normal;font-size:9px;font-family:'DejaVu Sans';-inkscape-font-specification:DejaVuSans;writing-mode:lr-tb;fill:#000000;fill-opacity:1;fill-rule:nonzero;stroke:none"
                 id="text258"><tspan
                   x="0 5.71875"
                   y="0"
                   sodipodi:role="line"
                   id="tspan256">21</tspan></text>
</g></g><g
             id="g260"
             transform="matrix(1.3326403,0,0,1.3326403,363.58176,595.35707)" /><g
             id="g262"
             transform="matrix(1.3326403,0,0,1.3326403,363.58176,595.35707)" /><g
             id="g264"
             transform="scale(1.3326403)"><path
               d="m 302.5,432.5 v -3"
               style="fill:none;stroke:#000000;stroke-width:1;stroke-linecap:round;stroke-linejoin:round;stroke-miterlimit:10;stroke-dasharray:none;stroke-opacity:1"
               id="path266"
               inkscape:connector-curvature="0" /><path
               d="m 302.5,15.5 v 3"
               style="fill:none;stroke:#000000;stroke-width:1;stroke-linecap:round;stroke-linejoin:round;stroke-miterlimit:10;stroke-dasharray:none;stroke-opacity:1"
               id="path268"
               inkscape:connector-curvature="0" /><path
               d="m 333.5,432.5 v -3"
               style="fill:none;stroke:#000000;stroke-width:1;stroke-linecap:round;stroke-linejoin:round;stroke-miterlimit:10;stroke-dasharray:none;stroke-opacity:1"
               id="path270"
               inkscape:connector-curvature="0" /><path
               d="m 333.5,15.5 v 3"
               style="fill:none;stroke:#000000;stroke-width:1;stroke-linecap:round;stroke-linejoin:round;stroke-miterlimit:10;stroke-dasharray:none;stroke-opacity:1"
               id="path272"
               inkscape:connector-curvature="0" /><path
               d="m 354.5,432.5 v -3"
               style="fill:none;stroke:#000000;stroke-width:1;stroke-linecap:round;stroke-linejoin:round;stroke-miterlimit:10;stroke-dasharray:none;stroke-opacity:1"
               id="path274"
               inkscape:connector-curvature="0" /><path
               d="m 354.5,15.5 v 3"
               style="fill:none;stroke:#000000;stroke-width:1;stroke-linecap:round;stroke-linejoin:round;stroke-miterlimit:10;stroke-dasharray:none;stroke-opacity:1"
               id="path276"
               inkscape:connector-curvature="0" /><path
               d="m 371.5,432.5 v -3"
               style="fill:none;stroke:#000000;stroke-width:1;stroke-linecap:round;stroke-linejoin:round;stroke-miterlimit:10;stroke-dasharray:none;stroke-opacity:1"
               id="path278"
               inkscape:connector-curvature="0" /><path
               d="m 371.5,15.5 v 3"
               style="fill:none;stroke:#000000;stroke-width:1;stroke-linecap:round;stroke-linejoin:round;stroke-miterlimit:10;stroke-dasharray:none;stroke-opacity:1"
               id="path280"
               inkscape:connector-curvature="0" /><path
               d="m 385.5,432.5 v -3"
               style="fill:none;stroke:#000000;stroke-width:1;stroke-linecap:round;stroke-linejoin:round;stroke-miterlimit:10;stroke-dasharray:none;stroke-opacity:1"
               id="path282"
               inkscape:connector-curvature="0" /><path
               d="m 385.5,15.5 v 3"
               style="fill:none;stroke:#000000;stroke-width:1;stroke-linecap:round;stroke-linejoin:round;stroke-miterlimit:10;stroke-dasharray:none;stroke-opacity:1"
               id="path284"
               inkscape:connector-curvature="0" /><path
               d="m 397.5,432.5 v -3"
               style="fill:none;stroke:#000000;stroke-width:1;stroke-linecap:round;stroke-linejoin:round;stroke-miterlimit:10;stroke-dasharray:none;stroke-opacity:1"
               id="path286"
               inkscape:connector-curvature="0" /><path
               d="m 397.5,15.5 v 3"
               style="fill:none;stroke:#000000;stroke-width:1;stroke-linecap:round;stroke-linejoin:round;stroke-miterlimit:10;stroke-dasharray:none;stroke-opacity:1"
               id="path288"
               inkscape:connector-curvature="0" /><path
               d="m 407.5,432.5 v -3"
               style="fill:none;stroke:#000000;stroke-width:1;stroke-linecap:round;stroke-linejoin:round;stroke-miterlimit:10;stroke-dasharray:none;stroke-opacity:1"
               id="path290"
               inkscape:connector-curvature="0" /><path
               d="m 407.5,15.5 v 3"
               style="fill:none;stroke:#000000;stroke-width:1;stroke-linecap:round;stroke-linejoin:round;stroke-miterlimit:10;stroke-dasharray:none;stroke-opacity:1"
               id="path292"
               inkscape:connector-curvature="0" /><path
               d="m 416.5,432.5 v -3"
               style="fill:none;stroke:#000000;stroke-width:1;stroke-linecap:round;stroke-linejoin:round;stroke-miterlimit:10;stroke-dasharray:none;stroke-opacity:1"
               id="path294"
               inkscape:connector-curvature="0" /><path
               d="m 416.5,15.5 v 3"
               style="fill:none;stroke:#000000;stroke-width:1;stroke-linecap:round;stroke-linejoin:round;stroke-miterlimit:10;stroke-dasharray:none;stroke-opacity:1"
               id="path296"
               inkscape:connector-curvature="0" /><path
               d="m 423.5,432.5 v -6"
               style="fill:none;stroke:#000000;stroke-width:1;stroke-linecap:round;stroke-linejoin:round;stroke-miterlimit:10;stroke-dasharray:none;stroke-opacity:1"
               id="path298"
               inkscape:connector-curvature="0" /><path
               d="m 423.5,15.5 v 6"
               style="fill:none;stroke:#000000;stroke-width:1;stroke-linecap:round;stroke-linejoin:round;stroke-miterlimit:10;stroke-dasharray:none;stroke-opacity:1"
               id="path300"
               inkscape:connector-curvature="0" /></g><g
             id="g302"
             transform="matrix(1.3326403,0,0,1.3326403,535.20085,601.35395)" /><g
             id="g304"
             transform="matrix(1.3326403,0,0,1.3326403,535.20085,595.35707)" /><g
             id="g306"
             transform="matrix(1.3326403,0,0,1.3326403,535.20085,601.35395)"><g
               id="g308"><text
                 style="font-variant:normal;font-weight:normal;font-size:12px;font-family:'DejaVu Sans';-inkscape-font-specification:DejaVuSans;writing-mode:lr-tb;fill:#000000;fill-opacity:1;fill-rule:nonzero;stroke:none"
                 id="text312"><tspan
                   x="0 3.8125 11.4375 18.53125 26.15625"
                   y="0"
                   sodipodi:role="line"
                   id="tspan310">	1x10</tspan></text>
</g></g><g
             id="g314"
             transform="matrix(1.3326403,0,0,1.3326403,580.21911,601.35395)" /><g
             id="g316"
             transform="matrix(1.3326403,0,0,1.3326403,580.21911,601.35395)" /><g
             id="g318"
             transform="matrix(1.3326403,0,0,1.3326403,580.21911,595.35707)"><g
               id="g320"><text
                 style="font-variant:normal;font-weight:normal;font-size:9px;font-family:'DejaVu Sans';-inkscape-font-specification:DejaVuSans;writing-mode:lr-tb;fill:#000000;fill-opacity:1;fill-rule:nonzero;stroke:none"
                 id="text324"><tspan
                   x="0 5.71875"
                   y="0"
                   sodipodi:role="line"
                   id="tspan322">22</tspan></text>
</g></g><g
             id="g326"
             transform="matrix(1.3326403,0,0,1.3326403,595.46118,595.35707)" /><g
             id="g328"
             transform="matrix(1.3326403,0,0,1.3326403,595.46118,595.35707)" /><g
             id="g330"
             transform="scale(1.3326403)"><path
               d="m 476.5,432.5 v -3"
               style="fill:none;stroke:#000000;stroke-width:1;stroke-linecap:round;stroke-linejoin:round;stroke-miterlimit:10;stroke-dasharray:none;stroke-opacity:1"
               id="path332"
               inkscape:connector-curvature="0" /><path
               d="m 476.5,15.5 v 3"
               style="fill:none;stroke:#000000;stroke-width:1;stroke-linecap:round;stroke-linejoin:round;stroke-miterlimit:10;stroke-dasharray:none;stroke-opacity:1"
               id="path334"
               inkscape:connector-curvature="0" /><path
               d="m 506.5,432.5 v -3"
               style="fill:none;stroke:#000000;stroke-width:1;stroke-linecap:round;stroke-linejoin:round;stroke-miterlimit:10;stroke-dasharray:none;stroke-opacity:1"
               id="path336"
               inkscape:connector-curvature="0" /><path
               d="m 506.5,15.5 v 3"
               style="fill:none;stroke:#000000;stroke-width:1;stroke-linecap:round;stroke-linejoin:round;stroke-miterlimit:10;stroke-dasharray:none;stroke-opacity:1"
               id="path338"
               inkscape:connector-curvature="0" /><path
               d="m 528.5,432.5 v -3"
               style="fill:none;stroke:#000000;stroke-width:1;stroke-linecap:round;stroke-linejoin:round;stroke-miterlimit:10;stroke-dasharray:none;stroke-opacity:1"
               id="path340"
               inkscape:connector-curvature="0" /><path
               d="m 528.5,15.5 v 3"
               style="fill:none;stroke:#000000;stroke-width:1;stroke-linecap:round;stroke-linejoin:round;stroke-miterlimit:10;stroke-dasharray:none;stroke-opacity:1"
               id="path342"
               inkscape:connector-curvature="0" /><path
               d="m 545.5,432.5 v -3"
               style="fill:none;stroke:#000000;stroke-width:1;stroke-linecap:round;stroke-linejoin:round;stroke-miterlimit:10;stroke-dasharray:none;stroke-opacity:1"
               id="path344"
               inkscape:connector-curvature="0" /><path
               d="m 545.5,15.5 v 3"
               style="fill:none;stroke:#000000;stroke-width:1;stroke-linecap:round;stroke-linejoin:round;stroke-miterlimit:10;stroke-dasharray:none;stroke-opacity:1"
               id="path346"
               inkscape:connector-curvature="0" /><path
               d="m 559.5,432.5 v -3"
               style="fill:none;stroke:#000000;stroke-width:1;stroke-linecap:round;stroke-linejoin:round;stroke-miterlimit:10;stroke-dasharray:none;stroke-opacity:1"
               id="path348"
               inkscape:connector-curvature="0" /><path
               d="m 559.5,15.5 v 3"
               style="fill:none;stroke:#000000;stroke-width:1;stroke-linecap:round;stroke-linejoin:round;stroke-miterlimit:10;stroke-dasharray:none;stroke-opacity:1"
               id="path350"
               inkscape:connector-curvature="0" /><path
               d="m 570.5,432.5 v -3"
               style="fill:none;stroke:#000000;stroke-width:1;stroke-linecap:round;stroke-linejoin:round;stroke-miterlimit:10;stroke-dasharray:none;stroke-opacity:1"
               id="path352"
               inkscape:connector-curvature="0" /><path
               d="m 570.5,15.5 v 3"
               style="fill:none;stroke:#000000;stroke-width:1;stroke-linecap:round;stroke-linejoin:round;stroke-miterlimit:10;stroke-dasharray:none;stroke-opacity:1"
               id="path354"
               inkscape:connector-curvature="0" /><path
               d="m 580.5,432.5 v -3"
               style="fill:none;stroke:#000000;stroke-width:1;stroke-linecap:round;stroke-linejoin:round;stroke-miterlimit:10;stroke-dasharray:none;stroke-opacity:1"
               id="path356"
               inkscape:connector-curvature="0" /><path
               d="m 580.5,15.5 v 3"
               style="fill:none;stroke:#000000;stroke-width:1;stroke-linecap:round;stroke-linejoin:round;stroke-miterlimit:10;stroke-dasharray:none;stroke-opacity:1"
               id="path358"
               inkscape:connector-curvature="0" /><path
               d="m 589.5,432.5 v -3"
               style="fill:none;stroke:#000000;stroke-width:1;stroke-linecap:round;stroke-linejoin:round;stroke-miterlimit:10;stroke-dasharray:none;stroke-opacity:1"
               id="path360"
               inkscape:connector-curvature="0" /><path
               d="m 589.5,15.5 v 3"
               style="fill:none;stroke:#000000;stroke-width:1;stroke-linecap:round;stroke-linejoin:round;stroke-miterlimit:10;stroke-dasharray:none;stroke-opacity:1"
               id="path362"
               inkscape:connector-curvature="0" /><path
               d="m 597.5,432.5 v -6"
               style="fill:none;stroke:#000000;stroke-width:1;stroke-linecap:round;stroke-linejoin:round;stroke-miterlimit:10;stroke-dasharray:none;stroke-opacity:1"
               id="path364"
               inkscape:connector-curvature="0" /><path
               d="m 597.5,15.5 v 6"
               style="fill:none;stroke:#000000;stroke-width:1;stroke-linecap:round;stroke-linejoin:round;stroke-miterlimit:10;stroke-dasharray:none;stroke-opacity:1"
               id="path366"
               inkscape:connector-curvature="0" /></g><g
             id="g368"
             transform="matrix(1.3326403,0,0,1.3326403,767.08027,601.35395)" /><g
             id="g370"
             transform="matrix(1.3326403,0,0,1.3326403,767.08027,595.35707)" /><g
             id="g372"
             transform="matrix(1.3326403,0,0,1.3326403,767.08027,601.35395)"><g
               id="g374"><text
                 style="font-variant:normal;font-weight:normal;font-size:12px;font-family:'DejaVu Sans';-inkscape-font-specification:DejaVuSans;writing-mode:lr-tb;fill:#000000;fill-opacity:1;fill-rule:nonzero;stroke:none"
                 id="text378"><tspan
                   x="0 3.8125 11.4375 18.53125 26.15625"
                   y="0"
                   sodipodi:role="line"
                   id="tspan376">	1x10</tspan></text>
</g></g><g
             id="g380"
             transform="matrix(1.3326403,0,0,1.3326403,812.09852,601.35395)" /><g
             id="g382"
             transform="matrix(1.3326403,0,0,1.3326403,812.09852,601.35395)" /><g
             id="g384"
             transform="matrix(1.3326403,0,0,1.3326403,812.09852,595.35707)"><g
               id="g386"><text
                 style="font-variant:normal;font-weight:normal;font-size:9px;font-family:'DejaVu Sans';-inkscape-font-specification:DejaVuSans;writing-mode:lr-tb;fill:#000000;fill-opacity:1;fill-rule:nonzero;stroke:none"
                 id="text390"><tspan
                   x="0 5.71875"
                   y="0"
                   sodipodi:role="line"
                   id="tspan388">23</tspan></text>
</g></g><g
             id="g392"
             transform="matrix(1.3326403,0,0,1.3326403,827.3406,595.35707)" /><g
             id="g394"
             transform="matrix(1.3326403,0,0,1.3326403,827.3406,595.35707)" /><g
             id="g396"
             transform="scale(1.3326403)"><path
               d="m 67.5,15.5 v 417 h 539 v -417 z"
               style="fill:none;stroke:#000000;stroke-width:1;stroke-linecap:round;stroke-linejoin:round;stroke-miterlimit:10;stroke-dasharray:none;stroke-opacity:1"
               id="path398"
               inkscape:connector-curvature="0" /></g><g
             id="g400"
             transform="matrix(0,-1.3326403,1.3326403,0,23.321206,348.48545)" /><g
             id="g402"
             transform="matrix(0,-1.3326403,1.3326403,0,17.324324,348.48545)" /><g
             id="g404"
             transform="matrix(0,-1.3326403,1.3326403,0,23.321206,348.48545)"><g
               id="g406"><text
                 style="font-variant:normal;font-weight:normal;font-size:12px;font-family:'DejaVu Sans';-inkscape-font-specification:DejaVuSans;writing-mode:lr-tb;fill:#000000;fill-opacity:1;fill-rule:nonzero;stroke:none"
                 id="text410"><tspan
                   x="0 9.234375 16.609375 24.21875 28.921875 36.515625 40.328125 43.65625 51.25 55.0625 62"
                   y="0"
                   sodipodi:role="line"
                   id="tspan408">Depth	in	km</tspan></text>
</g></g><g
             id="g412"
             transform="matrix(1.3326403,0,0,1.3326403,385.79938,632.33784)" /><g
             id="g414"
             transform="matrix(1.3326403,0,0,1.3326403,385.79938,632.33784)" /><g
             id="g416"
             transform="matrix(1.3326403,0,0,1.3326403,385.79938,632.33784)"><g
               id="g418"><text
                 style="font-variant:normal;font-weight:normal;font-size:12px;font-family:'DejaVu Sans';-inkscape-font-specification:DejaVuSans;writing-mode:lr-tb;fill:#000000;fill-opacity:1;fill-rule:nonzero;stroke:none"
                 id="text422"><tspan
                   x="0 8.203125 11.53125 17.78125 24.375 31.703125 37.953125 41.28125 45.984375 53.078125 56.890625 60.21875 67.8125 71.625 78.859375 86.203125 90.015625"
                   y="0"
                   sodipodi:role="line"
                   id="tspan420">Viscosity	in	Pa	s</tspan></text>
</g></g><g
             id="g424"
             transform="matrix(1.3326403,0,0,1.3326403,463.75883,23.321206)" /><g
             id="g426"
             transform="matrix(1.3326403,0,0,1.3326403,463.75883,23.321206)" /></g></g><g
         id="g428"><g
           id="g430"
           clip-path="url(#clipPath434)"><g
             id="g436"
             clip-path="url(#clipPath440)"><g
               id="g442"
               transform="matrix(1.3326403,0,0,1.3326403,463.75883,23.321206)"><g
                 id="g444"><text
                   transform="translate(4,16)"
                   style="font-variant:normal;font-weight:normal;font-size:12px;font-family:'DejaVu Sans';-inkscape-font-specification:DejaVuSans;writing-mode:lr-tb;fill:#000000;fill-opacity:1;fill-rule:nonzero;stroke:none"
                   id="text448"><tspan
                     x="0 5.515625 10.4375 17.78125 25.390625 28.71875 36.0625 39.390625 43.71875 50.8125 54.140625 60.390625 66.984375 71.3125 77.5625 80.890625 92.578125 100.1875 103.51562 110.89062 114.70312 119.40625 126.5 131.20312 136.71875 140.53125 148.125 154.375 157.70312 165.29688 172.90625 176.71875 184.34375 188.375"
                     y="0"
                     sodipodi:role="line"
                     id="tspan446">&quot;radial-visc-simple.txt&quot;	using	1:2</tspan></text>
</g></g></g></g></g><g
         id="g450"><g
           id="g452"
           transform="matrix(1.3326403,0,0,1.3326403,463.75883,23.321206)" /></g><g
         id="g454"><g
           id="g456"
           clip-path="url(#clipPath460)"><g
             id="g462" /><g
             id="g464"
             transform="matrix(1.3326403,0,0,1.3326403,463.75883,23.321206)" /><g
             id="g466"
             transform="matrix(1.3326403,0,0,1.3326403,463.75883,23.321206)" /><g
             id="g468"
             transform="scale(1.3326403)"><path
               d="m 558.5,28.5 h 34"
               style="fill:none;stroke:#9400d3;stroke-width:3;stroke-linecap:round;stroke-linejoin:round;stroke-miterlimit:10;stroke-dasharray:none;stroke-opacity:1"
               id="path470"
               inkscape:connector-curvature="0" /></g><g
             id="g472"
             transform="scale(1.3326403)" /><g
             id="g474"
             transform="scale(1.3326403)"><path
               d="m 142.8,15.2 v 0.4 0.5 0.4 0.5 0.4 0.4 0.5 0.4 0.5 0.4 0.5 0.4 0.4 0.5 0.4 0.5 0.4 0.5 0.4 0.5 0.4 0.4 0.5 0.4 0.5 0.4 0.5 0.4 0.4 0.5 0.4 0.5 0.4 0.5 0.4 0.5 0.4 0.4 0.5 0.4 0.5 0.4 0.5 0.4 0.4 0.5 0.4 0.5 0.4 l 0.1,0.5 0.4,0.4 0.4,0.5 0.4,0.4 0.4,0.4 0.4,0.5 0.4,0.4 0.4,0.5 0.4,0.4 0.4,0.5 0.4,0.4 0.3,0.4 0.4,0.5 0.4,0.4 0.4,0.5 0.4,0.4 0.3,0.5 0.4,0.4 0.4,0.5 0.3,0.4 0.4,0.4 0.4,0.5 0.3,0.4 0.4,0.5 0.4,0.4 0.3,0.5 0.4,0.4 0.3,0.4 0.4,0.5 0.3,0.4 0.4,0.5 0.3,0.4 0.4,0.5 0.3,0.4 0.4,0.5 0.3,0.4 0.4,0.4 0.3,0.5 0.8,0.4 1.2,0.5 1.2,0.4 1.2,0.5 1.1,0.4 1.2,0.4 1.1,0.5 1.1,0.4 1.1,0.5 1.1,0.4 1,0.5 1.1,0.4 1,0.5 1,0.4 1.1,0.4 0.9,0.5 1,0.4 1,0.5 0.9,0.4 1,0.5 0.9,0.4 0.9,0.4 0.9,0.5 0.9,0.4 0.9,0.5 0.9,0.4 0.9,0.5 0.8,0.4 0.9,0.5 0.8,0.4 0.3,0.4 v 0.5 0.4 0.5 0.4 0.5 0.4 0.4 0.5 0.4 0.5 0.4 0.5 0.4 0.5 0.4 l -0.1,0.4 v 0.5 0.4 0.5 0.4 0.5 0.4 0.4 0.5 0.4 0.5 0.4 l 0.4,0.5 0.9,0.4 1,0.5 0.9,0.4 1,0.4 0.9,0.5 0.9,0.4 0.9,0.5 0.9,0.4 0.9,0.5 0.9,0.4 0.8,0.4 0.9,0.5 0.8,0.4 0.8,0.5 0.9,0.4 0.8,0.5 0.8,0.4 0.8,0.5 0.8,0.4 0.8,0.4 0.7,0.5 0.8,0.4 0.7,0.5 0.8,0.4 0.7,0.5 0.8,0.4 0.7,0.4 0.7,0.5 0.7,0.4 0.7,0.5 0.7,0.4 0.7,0.5 0.7,0.4 0.7,0.5 0.7,0.4 0.7,0.4 0.6,0.5 0.7,0.4 3.4,0.5 13,0.4 11,0.5 9.7,0.4 8.6,0.4 7.6,0.5 7,0.4 6.4,0.5 5.9,0.4 5.5,0.5 5,0.4 4.8,0.5 4.5,0.4 4.2,0.4 4,0.5 3.9,0.4 3.6,0.5 3.4,0.4 3.3,0.5 3.2,0.4 3.1,0.4 2.9,0.5 2.8,0.4 2.7,0.5 2.6,0.4 2.5,0.5 2.5,0.4 2.4,0.5 2.3,0.4 2.2,0.4 2.2,0.5 2.1,0.4 2,0.5 2,0.4 2,0.5 1.9,0.4 1.8,0.4 1.8,0.5 1.8,0.4 1.7,0.5 1.7,0.4 1.6,0.5 1.6,0.4 1.6,0.5 1.5,0.4 1.1,0.4 1.1,0.5 1,0.4 1.1,0.5 1.1,0.4 1,0.5 1,0.4 1,0.4 1,0.5 1,0.4 0.9,0.5 1,0.4 0.9,0.5 1,0.4 0.9,0.5 0.9,0.4 0.9,0.4 0.9,0.5 0.8,0.4 0.9,0.5 0.9,0.4 0.8,0.5 0.9,0.4 0.8,0.4 0.8,0.5 0.8,0.4 0.8,0.5 0.8,0.4 0.8,0.5 0.8,0.4 0.7,0.4 0.8,0.5 0.7,0.4 0.8,0.5 0.7,0.4 0.8,0.5 0.7,0.4 0.7,0.5 0.7,0.4 0.7,0.4 0.7,0.5 0.7,0.4 0.7,0.5 0.7,0.4 1,0.5 0.9,0.4 0.9,0.4 0.9,0.5 0.9,0.4 0.8,0.5 0.9,0.4 0.9,0.5 0.8,0.4 0.8,0.5 0.9,0.4 0.8,0.4 0.8,0.5 0.8,0.4 0.8,0.5 0.7,0.4 0.8,0.5 0.8,0.4 0.7,0.4 0.8,0.5 0.7,0.4 0.8,0.5 0.7,0.4 0.7,0.5 0.7,0.4 0.7,0.5 0.7,0.4 0.7,0.4 0.7,0.5 0.7,0.4 0.7,0.5 0.7,0.4 0.6,0.5 0.7,0.4 0.6,0.4 0.7,0.5 0.6,0.4 0.7,0.5 0.6,0.4 0.6,0.5 0.6,0.4 0.7,0.5 0.6,0.4 0.7,0.4 0.8,0.5 0.8,0.4 0.8,0.5 0.8,0.4 0.7,0.5 0.8,0.4 0.8,0.4 0.7,0.5 0.8,0.4 0.7,0.5 0.7,0.4 0.8,0.5 0.7,0.4 0.7,0.5 0.7,0.4 0.7,0.4 0.7,0.5 0.7,0.4 0.7,0.5 0.6,0.4 0.7,0.5 0.7,0.4 0.6,0.4 0.7,0.5 0.6,0.4 0.7,0.5 0.6,0.4 0.6,0.5 0.6,0.4 0.7,0.5 0.6,0.4 0.6,0.4 0.6,0.5 0.6,0.4 0.6,0.5 0.6,0.4 0.6,0.5 0.5,0.4 0.6,0.4 0.6,0.5 0.6,0.4 0.5,0.5 0.6,0.4 0.6,0.5 0.7,0.4 0.7,0.5 0.7,0.4 0.7,0.4 0.6,0.5 0.7,0.4 0.7,0.5 0.6,0.4 0.7,0.5 0.6,0.4 0.7,0.4 0.6,0.5 0.6,0.4 0.7,0.5 0.6,0.4 0.6,0.5 0.6,0.4 0.6,0.5 0.6,0.4 0.6,0.4 0.6,0.5 0.6,0.4 0.6,0.5 0.6,0.4 0.5,0.5 0.6,0.4 0.6,0.4 0.5,0.5 0.6,0.4 0.5,0.5 0.6,0.4 0.5,0.5 0.6,0.4 0.5,0.5 0.6,0.4 0.5,0.4 0.5,0.5 0.5,0.4 0.5,0.5 0.6,0.4 0.5,0.5 0.5,0.4 0.5,0.4 0.5,0.5 0.6,0.4 0.7,0.5 0.6,0.4 0.6,0.5 0.5,0.4 0.6,0.5 0.6,0.4 0.6,0.4 0.6,0.5 0.5,0.4 0.6,0.5 0.6,0.4 0.5,0.5 0.6,0.4 0.5,0.4 0.6,0.5 0.5,0.4 0.5,0.5 0.6,0.4 0.5,0.5 0.5,0.4 0.6,0.5 0.5,0.4 0.5,0.4 0.5,0.5 0.5,0.4 0.5,0.5 0.5,0.4 0.5,0.5 0.5,0.4 0.5,0.4 0.5,0.5 0.5,0.4 0.5,0.5 0.4,0.4 0.5,0.5 0.5,0.4 0.5,0.5 0.4,0.4 0.5,0.4 0.5,0.5 0.4,0.4 0.5,0.5 0.5,0.4 0.5,0.5 0.5,0.4 0.5,0.4 0.5,0.5 0.5,0.4 0.5,0.5 0.5,0.4 0.5,0.5 0.4,0.4 0.5,0.5 0.5,0.4 0.5,0.4 0.4,0.5 0.5,0.4 0.5,0.5 0.4,0.4 0.5,0.5 0.5,0.4 0.4,0.4 0.5,0.5 0.4,0.4 0.5,0.5 0.4,0.4 0.5,0.5 0.4,0.4 0.4,0.5 0.5,0.4 0.4,0.4 0.4,0.5 0.5,0.4 0.4,0.5 0.4,0.4 0.4,0.5 0.4,0.4 0.5,0.4 0.4,0.5 0.4,0.4 0.4,0.5 0.4,0.4 0.4,0.5 0.4,0.4 0.4,0.5 0.4,0.4 0.4,0.4 0.4,0.5 0.5,0.4 0.4,0.5 0.4,0.4 0.4,0.5 0.4,0.4 0.4,0.4 0.4,0.5 0.4,0.4 0.4,0.5 0.4,0.4 0.4,0.5 0.4,0.4 0.4,0.5 0.4,0.4 0.4,0.4 0.4,0.5 0.4,0.4 0.4,0.5 0.3,0.4 0.4,0.5 0.4,0.4 0.4,0.4 0.3,0.5 0.4,0.4 0.4,0.5 0.3,0.4 0.4,0.5 0.4,0.4 0.3,0.5 0.4,0.4 0.4,0.4 0.3,0.5 0.4,0.4 0.3,0.5 0.4,0.4 0.3,0.5 0.4,0.4 0.3,0.4 0.4,0.5 0.3,0.4 0.4,0.5 0.3,0.4 0.3,0.5 0.4,0.4 0.3,0.5 0.4,0.4 0.3,0.4 0.3,0.5 0.3,0.4 0.4,0.5 0.3,0.4 0.3,0.5 0.3,0.4 0.4,0.4 0.3,0.5 0.3,0.4 0.3,0.5 0.3,0.4 0.4,0.5 0.3,0.4 0.3,0.5 0.3,0.4 0.3,0.4 0.3,0.5 0.3,0.4 0.3,0.5 0.3,0.4 0.3,0.5 0.3,0.4 0.3,0.4 0.3,0.5 0.3,0.4 0.3,0.5 0.3,0.4 0.3,0.5 0.3,0.4 0.3,0.5 0.3,0.4 0.3,0.4 0.3,0.5 0.3,0.4 0.3,0.5 0.2,0.4 0.3,0.5 0.3,0.4 0.3,0.4 0.3,0.5 0.2,0.4 0.3,0.5 0.3,0.4 0.2,0.5 0.3,0.4 0.2,0.5 0.3,0.4 0.3,0.4 0.2,0.5 0.3,0.4 0.2,0.5 0.3,0.4 0.2,0.5 0.3,0.4 0.2,0.4 0.3,0.5 0.2,0.4 0.3,0.5 0.2,0.4 0.3,0.5 0.2,0.4 0.3,0.5 0.2,0.4 0.3,0.4 0.2,0.5 0.3,0.4 0.2,0.5 0.2,0.4 0.3,0.5 0.2,0.4 0.3,0.4 0.2,0.5 0.2,0.4 0.3,0.5 0.2,0.4 0.2,0.5 0.3,0.4 0.2,0.5 0.2,0.4 0.3,0.4 0.2,0.5 0.2,0.4 0.3,0.5 0.2,0.4 0.1,0.5 0.2,0.4 0.2,0.4 0.1,0.5 0.2,0.4 0.2,0.5 0.1,0.4 0.2,0.5 0.2,0.4 0.1,0.5 0.2,0.4 0.2,0.4 0.1,0.5 0.2,0.4 0.2,0.5 0.1,0.4 0.2,0.5 0.2,0.4 0.1,0.4 0.2,0.5 0.1,0.4 0.2,0.5 0.2,0.4 0.1,0.5 0.2,0.4 0.2,0.5 0.1,0.4 0.2,0.4 0.1,0.5 0.2,0.4 0.2,0.5 0.1,0.4 0.2,0.5 0.1,0.4 0.2,0.4 0.1,0.5 0.2,0.4 0.2,0.5 0.1,0.4 0.2,0.5 0.1,0.4 0.2,0.5 0.1,0.4 0.1,0.4 v 0.5 0.4 0.5 0.4 l 0.1,0.5 v 0.4 0.4 0.5 0.4 0.5 0.4 l 0.1,0.5 v 0.4 0.5 0.4 0.4 0.5 l 0.1,0.4 v 0.5 0.4 0.5 0.4 0.4 0.5 l 0.1,0.4 v 0.5 0.4 0.5 0.4 0.5 l 0.1,0.4 v 0.4 0.5 0.4 0.5 0.4 0.5 l 0.1,0.4 v 0.4 0.5 0.4 0.5 0.4 0.5 0.4 0.5 0.4 0.4 0.5 0.4 0.5 0.4 0.5 0.4 0.4 0.5 0.4 0.5 0.4 0.5 0.4 0.5 0.4 0.4 0.5 0.4 0.5 0.4 0.5 0.4 0.4 0.5 0.4 0.5 0.4 0.5 0.4 0.5 0.4 0.4 0.5 0.4 0.5 0.4 0.5 0.4 0.4 0.5 0.4 0.5 0.4 0.5 0.4 0.5 0.4 0.4 0.5 0.4 0.5 0.4 0.5 0.4 0.4 0.5 0.4 0.5 0.4 0.5 0.4 0.5 0.4 0.4 0.5 0.4 0.5 0.4 0.5 0.4 0.4 0.5 0.4 0.5 0.4 0.5 0.4 0.5 0.4 0.4 0.5 0.4 0.5 0.4 0.5 0.4 0.4 0.5 0.4 0.5 0.4 0.5 0.4 0.5 0.4 0.4 0.5 0.4 0.5 0.4 0.5 0.4 0.4 0.5 0.4 0.5 0.4 0.5 0.4 0.5 0.4 0.4 0.5 0.4 0.5 0.4 0.5 0.4 0.4 0.5 0.4 0.5 0.4 0.5 0.4 0.5 0.4 0.4 0.5 0.4 0.5 0.4 0.5 0.4 0.4 0.5 0.4 0.5 0.4 0.5 0.4 0.5 0.4 0.4 0.5 0.4 0.5 0.4 0.5 0.4 0.4 0.5 0.4 0.5 0.4 0.5 0.4 0.5 0.4 0.4 0.5 0.4 0.5 0.4 0.5 0.4 0.4 0.5 0.4 0.5 0.4"
               style="fill:none;stroke:#9400d3;stroke-width:3;stroke-linecap:round;stroke-linejoin:round;stroke-miterlimit:10;stroke-dasharray:none;stroke-opacity:1"
               id="path476"
               inkscape:connector-curvature="0" /></g><g
             id="g478"
             transform="matrix(1.3326403,0,0,1.3326403,428.67291,43.310811)" /><g
             id="g480"
             transform="matrix(1.3326403,0,0,1.3326403,428.67291,43.310811)" /></g></g><g
         id="g482"><g
           id="g484"
           clip-path="url(#clipPath488)"><g
             id="g490"
             clip-path="url(#clipPath494)"><g
               id="g496"
               transform="matrix(1.3326403,0,0,1.3326403,428.67291,43.310811)"><g
                 id="g498"><text
                   transform="translate(4,16)"
                   style="font-variant:normal;font-weight:normal;font-size:12px;font-family:'DejaVu Sans';-inkscape-font-specification:DejaVuSans;writing-mode:lr-tb;fill:#000000;fill-opacity:1;fill-rule:nonzero;stroke:none"
                   id="text502"><tspan
                     x="0 5.515625 10.4375 17.78125 25.390625 28.71875 36.0625 39.390625 43.71875 50.8125 54.140625 60.390625 66.984375 71.3125 77.90625 85.234375 92.828125 97.53125 100.85938 108.45312 116.04688 123.375 130.96875 137.21875 141.03125 145.73438 152.82812 157.53125 163.04688 166.85938 174.45312 180.70312 184.03125 191.625 199.23438 203.04688 210.67188 214.70312"
                     y="0"
                     sodipodi:role="line"
                     id="tspan500">&quot;radial-visc-continuous.txt&quot;	using	1:2</tspan></text>
</g></g></g></g></g><g
         id="g504"><g
           id="g506"
           transform="matrix(1.3326403,0,0,1.3326403,428.67291,43.310811)" /></g><g
         id="g508"><g
           id="g510"
           clip-path="url(#clipPath514)"><g
             id="g516" /><g
             id="g518"
             transform="matrix(1.3326403,0,0,1.3326403,428.67291,43.310811)" /><g
             id="g520"
             transform="matrix(1.3326403,0,0,1.3326403,428.67291,43.310811)" /><g
             id="g522"
             transform="scale(1.3326403)"><path
               d="m 558.5,43.5 h 34"
               style="fill:none;stroke:#009e73;stroke-width:3;stroke-linecap:round;stroke-linejoin:round;stroke-miterlimit:10;stroke-dasharray:none;stroke-opacity:1"
               id="path524"
               inkscape:connector-curvature="0" /></g><g
             id="g526"
             transform="scale(1.3326403)" /><g
             id="g528"
             transform="scale(1.3326403)"><path
               d="m 67.5,15.1 0.3,0.2 0.4,0.1 0.3,0.2 0.4,0.1 0.3,0.1 0.4,0.2 0.3,0.1 0.3,0.2 0.4,0.1 0.3,0.1 0.4,0.2 0.3,0.1 0.4,0.2 0.3,0.1 0.4,0.1 0.3,0.2 0.3,0.1 0.4,0.1 0.3,0.2 0.4,0.1 0.3,0.2 0.4,0.1 0.3,0.1 0.3,0.2 0.4,0.1 0.3,0.2 0.4,0.1 0.3,0.1 0.4,0.2 0.3,0.1 0.4,0.2 0.3,0.1 0.4,0.1 0.3,0.2 0.3,0.1 0.4,0.2 0.3,0.1 0.4,0.1 0.3,0.2 0.4,0.1 0.3,0.2 0.4,0.1 0.3,0.1 0.4,0.2 0.3,0.1 0.4,0.1 0.3,0.2 0.4,0.1 0.3,0.2 0.4,0.1 0.3,0.1 0.3,0.2 0.4,0.1 0.3,0.2 0.4,0.1 0.3,0.1 0.4,0.2 0.3,0.1 0.4,0.2 0.3,0.1 0.4,0.1 0.3,0.2 0.4,0.1 0.3,0.2 0.4,0.1 0.3,0.1 0.4,0.2 0.3,0.1 0.4,0.2 0.3,0.1 0.4,0.1 0.3,0.2 0.4,0.1 0.3,0.1 0.4,0.2 0.3,0.1 0.4,0.2 0.3,0.1 0.4,0.1 0.4,0.2 0.3,0.1 0.4,0.2 0.3,0.1 0.4,0.1 0.3,0.2 0.4,0.1 0.3,0.2 0.4,0.1 0.3,0.1 0.4,0.2 0.3,0.1 0.4,0.2 0.3,0.1 0.4,0.1 0.3,0.2 0.4,0.1 0.3,0.2 0.4,0.1 0.4,0.1 0.3,0.2 0.4,0.1 0.3,0.1 0.4,0.2 0.3,0.1 0.4,0.2 0.3,0.1 0.4,0.1 0.3,0.2 0.4,0.1 0.4,0.2 0.3,0.1 0.4,0.1 0.3,0.2 0.4,0.1 0.3,0.2 0.4,0.1 0.3,0.1 0.4,0.2 0.4,0.1 0.3,0.2 0.4,0.1 0.3,0.1 0.4,0.2 0.3,0.1 0.4,0.2 0.3,0.1 0.4,0.1 0.4,0.2 0.3,0.1 0.4,0.1 0.3,0.2 0.4,0.1 0.3,0.2 0.4,0.1 0.4,0.1 0.3,0.2 0.4,0.1 0.3,0.2 0.4,0.1 0.3,0.1 0.4,0.2 0.4,0.1 0.3,0.2 0.4,0.1 0.3,0.1 0.4,0.2 0.4,0.1 0.3,0.2 0.4,0.1 0.3,0.1 0.4,0.2 0.3,0.1 0.4,0.2 0.4,0.1 0.3,0.1 0.4,0.2 0.3,0.1 0.4,0.1 0.4,0.2 0.3,0.1 0.4,0.2 0.3,0.1 0.4,0.1 0.4,0.2 0.3,0.1 0.4,0.2 0.3,0.1 0.4,0.1 0.4,0.2 0.3,0.1 0.4,0.2 0.3,0.1 0.4,0.1 0.4,0.2 0.3,0.1 0.4,0.2 0.3,0.1 0.4,0.1 0.4,0.2 0.3,0.1 0.4,0.2 0.4,0.1 0.3,0.1 0.4,0.2 0.3,0.1 0.4,0.1 0.4,0.2 0.3,0.1 0.4,0.2 0.3,0.1 0.4,0.1 0.4,0.2 0.3,0.1 0.4,0.2 0.4,0.1 0.3,0.1 0.4,0.2 0.3,0.1 0.4,0.2 0.4,0.1 0.3,0.1 0.4,0.2 0.4,0.1 0.3,0.2 0.4,0.1 0.3,0.1 0.4,0.2 0.4,0.1 0.3,0.2 0.4,0.1 0.4,0.1 0.3,0.2 0.4,0.1 0.3,0.1 0.4,0.2 0.4,0.1 0.3,0.2 0.4,0.1 0.4,0.1 0.3,0.2 0.4,0.1 0.4,0.2 0.3,0.1 0.4,0.1 0.4,0.2 0.3,0.1 0.4,0.2 0.3,0.1 0.4,0.1 0.4,0.2 0.3,0.1 0.4,0.2 0.4,0.1 0.3,0.1 0.4,0.2 0.4,0.1 0.3,0.2 0.4,0.1 0.4,0.1 0.3,0.2 0.4,0.1 0.4,0.1 0.3,0.2 0.4,0.1 0.4,0.2 0.3,0.1 0.4,0.1 0.3,0.2 0.4,0.1 0.4,0.2 0.3,0.1 0.4,0.1 0.4,0.2 0.3,0.1 0.4,0.2 0.4,0.1 0.3,0.1 0.4,0.2 0.4,0.1 0.3,0.2 0.4,0.1 0.4,0.1 0.3,0.2 0.4,0.1 0.4,0.2 0.3,0.1 0.4,0.1 0.4,0.2 0.3,0.1 0.4,0.2 0.4,0.1 0.3,0.1 0.4,0.2 0.4,0.1 0.3,0.1 0.4,0.2 0.4,0.1 0.4,0.2 0.3,0.1 0.4,0.1 0.4,0.2 0.3,0.1 0.4,0.2 0.4,0.1 0.3,0.1 0.4,0.2 0.4,0.1 0.3,0.2 0.4,0.1 0.4,0.1 0.3,0.2 0.4,0.1 0.4,0.2 0.3,0.1 0.4,0.1 0.4,0.2 0.4,0.1 0.3,0.2 0.4,0.1 0.4,0.1 0.3,0.2 0.4,0.1 0.4,0.1 0.3,0.2 0.4,0.1 0.4,0.2 0.3,0.1 0.4,0.1 0.4,0.2 0.4,0.1 0.3,0.2 0.4,0.1 0.4,0.1 0.3,0.2 0.4,0.1 0.4,0.2 0.3,0.1 0.4,0.1 0.4,0.2 0.3,0.1 0.4,0.2 0.4,0.1 0.4,0.1 0.3,0.2 0.4,0.1 0.4,0.2 0.3,0.1 0.4,0.1 0.4,0.2 0.4,0.1 0.3,0.1 0.4,0.2 0.4,0.1 0.3,0.2 0.4,0.1 0.4,0.1 0.4,0.2 0.3,0.1 0.4,0.2 0.4,0.1 0.3,0.1 0.4,0.2 0.4,0.1 0.3,0.2 0.4,0.1 0.4,0.1 0.4,0.2 0.3,0.1 0.4,0.2 0.4,0.1 0.4,0.1 0.5,0.2 0.3,0.1 0.4,0.2 0.4,0.1 0.5,0.1 0.3,0.2 0.4,0.1 0.4,0.1 0.4,0.2 0.4,0.1 0.4,0.2 0.4,0.1 0.4,0.1 0.3,0.2 0.5,0.1 0.3,0.2 0.5,0.1 0.3,0.1 0.5,0.2 0.3,0.1 0.5,0.2 0.3,0.1 0.4,0.1 0.4,0.2 0.4,0.1 0.3,0.2 0.5,0.1 0.4,0.1 0.3,0.2 0.4,0.1 0.5,0.2 0.3,0.1 0.4,0.1 0.4,0.2 0.3,0.1 0.4,0.1 0.4,0.2 0.4,0.1 0.5,0.2 0.3,0.1 0.4,0.1 0.3,0.2 0.4,0.1 0.4,0.2 0.4,0.1 0.4,0.1 0.4,0.2 -31,0.1 0.4,0.2 0.5,0.1 0.4,0.1 0.3,0.2 0.2,0.1 0.2,0.2 0.1,0.1 0.2,0.1 0.2,0.2 0.3,0.1 0.1,0.2 0.3,0.1 0.2,0.1 0.3,0.2 3.9,0.1 -0.7,0.1 -0.7,0.2 -0.8,0.1 -0.7,0.2 -0.7,0.1 0.4,0.1 0.3,0.2 0.3,0.1 0.4,0.2 0.3,0.1 0.4,0.1 0.2,0.2 0.4,0.1 0.4,0.2 0.3,0.1 0.3,0.1 0.4,0.2 0.3,0.1 0.4,0.2 0.3,0.1 0.4,0.1 0.3,0.2 0.3,0.1 0.4,0.2 0.3,0.1 0.3,0.1 0.4,0.2 0.4,0.1 0.3,0.1 0.3,0.2 0.4,0.1 0.3,0.2 0.3,0.1 0.4,0.1 0.3,0.2 0.3,0.1 0.4,0.2 0.3,0.1 0.3,0.1 0.4,0.2 0.3,0.1 0.3,0.2 0.4,0.1 0.3,0.1 0.4,0.2 0.3,0.1 0.4,0.2 0.3,0.1 0.4,0.1 0.3,0.2 0.3,0.1 0.3,0.2 0.4,0.1 0.4,0.1 0.2,0.2 0.4,0.1 0.4,0.1 0.2,0.2 V 81 l 0.8,0.2 -0.1,0.1 0.8,0.1 -0.1,0.2 0.8,0.1 -0.1,0.2 0.8,0.1 -0.1,0.1 0.7,0.2 v 0.1 l 0.7,0.2 v 0.1 l 0.7,0.1 V 83 l 0.6,0.1 v 0.2 l 0.7,0.1 v 0.1 0.2 l 0.6,0.1 v 0.2 0.1 l 0.7,0.1 v 0.2 l 0.6,0.1 v 0.1 0.2 l 0.6,0.1 v 0.2 l 0.7,0.1 -0.1,0.1 v 0.2 l 0.7,0.1 -0.1,0.2 v 0.1 l 0.7,0.1 -0.1,0.2 0.7,0.1 v 0.2 l -0.1,0.1 0.7,0.1 v 0.2 l -0.1,0.1 0.7,0.2 -0.1,0.1 0.7,0.1 -0.1,0.2 v 0.1 l 0.6,0.2 v 0.1 0.1 0.2 0.1 0.2 l 0.6,0.1 -0.1,0.1 v 0.2 0.1 0.1 l 0.6,0.2 v 0.1 l 0.6,0.2 v 0.1 l 0.5,0.1 v 0.2 0.1 l 0.6,0.2 v 0.1 l 0.6,0.1 -0.1,0.2 0.6,0.1 v 0.2 l 0.6,0.1 v 0.1 l -0.1,0.2 0.6,0.1 v 0.2 l 0.6,0.1 -0.1,0.1 0.6,0.2 v 0.1 l 0.5,0.2 v 0.1 l 0.6,0.1 v 0.2 l -0.1,0.1 0.6,0.1 v 0.2 l 0.5,0.1 v 0.2 l 0.5,0.1 v 0.1 l 0.6,0.2 -0.1,0.1 0.6,0.2 v 0.1 l 0.5,0.1 v 0.2 l 0.5,0.1 V 95 l 0.5,0.1 v 0.1 l 0.5,0.2 v 0.1 l 0.5,0.2 v 0.1 0.1 l 0.5,0.2 v 0.1 l 0.5,0.2 -0.1,0.1 0.5,0.1 v 0.2 l 0.5,0.1 V 97 l 0.5,0.2 0.5,0.1 v 0.2 l 0.5,0.1 v 0.1 l 0.4,0.2 V 98 l 0.5,0.2 v 0.1 l 0.5,0.1 v 0.2 l 0.4,0.1 v 0.2 l 0.5,0.1 v 0.1 l 0.4,0.2 v 0.1 l 0.5,0.2 v 0.1 l 0.4,0.1 v 0.2 l 0.5,0.1 0.5,0.2 -0.1,0.1 0.5,0.1 v 0.2 l 0.4,0.1 v 0.1 l 0.5,0.2 v 0.1 l 0.4,0.2 v 0.1 l 0.4,0.1 0.5,0.2 v 0.1 l 0.4,0.2 v 0.1 l 0.4,0.1 v 0.2 l 0.4,0.1 0.5,0.2 v 0.1 l 0.4,0.1 v 0.2 l 0.4,0.1 v 0.2 l 0.4,0.1 0.4,0.1 v 0.2 l 0.4,0.1 v 0.2 l 0.4,0.1 0.4,0.1 v 0.2 l 0.4,0.1 v 0.1 l 0.4,0.2 0.4,0.1 v 0.2 l 0.4,0.1 v 0.1 l 0.4,0.2 0.4,0.1 v 0.2 l 0.4,0.1 v 0.1 l 0.4,0.2 0.4,0.1 v 0.2 l 0.4,0.1 1.1,0.1 -0.1,0.2 0.6,0.1 v 0.2 l -0.1,0.1 0.6,0.1 v 0.2 0.1 l 0.6,0.2 v 0.1 l 63.5,0.1 0.6,0.2 0.4,0.1 0.3,0.1 0.4,0.2 0.4,0.1 0.3,0.2 0.4,0.1 0.3,0.1 0.4,0.2 0.4,0.1 0.3,0.2 0.4,0.1 0.4,0.1 0.3,0.2 0.4,0.1 0.3,0.2 0.4,0.1 0.3,0.1 0.4,0.2 0.4,0.1 0.3,0.2 0.4,0.1 0.3,0.1 0.4,0.2 0.3,0.1 0.4,0.2 0.3,0.1 0.4,0.1 0.3,0.2 0.4,0.1 0.3,0.1 0.4,0.2 0.3,0.1 0.4,0.2 0.3,0.1 0.3,0.1 0.4,0.2 0.3,0.1 0.4,0.2 0.3,0.1 0.4,0.1 0.3,0.2 0.3,0.1 0.4,0.2 0.3,0.1 0.4,0.1 0.3,0.2 0.3,0.1 0.4,0.2 0.3,0.1 0.3,0.1 0.4,0.2 0.3,0.1 0.3,0.2 0.4,0.1 0.3,0.1 0.3,0.2 0.4,0.1 0.3,0.1 0.3,0.2 0.4,0.1 0.3,0.2 0.3,0.1 0.4,0.1 0.3,0.2 0.3,0.1 0.3,0.2 0.4,0.1 0.3,0.1 0.3,0.2 0.3,0.1 0.4,0.2 0.3,0.1 0.3,0.1 0.4,0.2 0.3,0.1 0.3,0.2 0.3,0.1 0.4,0.1 0.3,0.2 0.3,0.1 0.3,0.2 0.3,0.1 0.4,0.1 0.3,0.2 0.3,0.1 0.3,0.2 0.4,0.1 0.3,0.1 0.3,0.2 0.3,0.1 0.4,0.1 0.3,0.2 0.3,0.1 0.3,0.2 0.3,0.1 0.4,0.1 0.3,0.2 0.3,0.1 0.3,0.2 0.3,0.1 0.4,0.1 0.3,0.2 0.3,0.1 0.3,0.2 0.3,0.1 0.4,0.1 0.3,0.2 0.3,0.1 0.3,0.2 0.3,0.1 0.3,0.1 0.4,0.2 0.3,0.1 0.3,0.2 0.3,0.1 0.3,0.1 0.3,0.2 0.4,0.1 0.3,0.1 0.3,0.2 0.3,0.1 0.3,0.2 0.3,0.1 0.3,0.1 0.4,0.2 0.3,0.1 0.3,0.2 0.3,0.1 0.3,0.1 0.3,0.2 0.3,0.1 0.4,0.2 0.3,0.1 0.3,0.1 0.3,0.2 0.3,0.1 0.3,0.2 0.3,0.1 0.3,0.1 0.3,0.2 0.4,0.1 0.3,0.2 0.3,0.1 0.3,0.1 0.3,0.2 0.3,0.1 0.3,0.1 0.3,0.2 0.3,0.1 0.3,0.2 0.3,0.1 0.4,0.1 0.3,0.2 0.3,0.1 0.3,0.2 0.3,0.1 0.3,0.1 0.3,0.2 0.3,0.1 0.3,0.2 0.3,0.1 0.3,0.1 0.3,0.2 0.3,0.1 0.3,0.2 0.3,0.1 0.3,0.1 0.4,0.2 0.3,0.1 0.3,0.2 0.3,0.1 0.3,0.1 0.3,0.2 0.3,0.1 0.3,0.1 0.3,0.2 0.3,0.1 0.3,0.2 0.3,0.1 0.3,0.1 0.3,0.2 0.3,0.1 0.3,0.2 0.3,0.1 0.3,0.1 0.3,0.2 0.3,0.1 0.3,0.2 0.3,0.1 0.3,0.1 0.3,0.2 0.3,0.1 0.3,0.2 0.3,0.1 0.3,0.1 0.3,0.2 0.3,0.1 0.3,0.2 0.3,0.1 0.3,0.1 0.3,0.2 0.3,0.1 0.3,0.1 0.3,0.2 0.3,0.1 0.2,0.2 0.3,0.1 0.3,0.1 0.3,0.2 0.3,0.1 0.3,0.2 0.3,0.1 0.3,0.1 0.3,0.2 0.3,0.1 0.3,0.2 0.3,0.1 0.3,0.1 0.3,0.2 0.3,0.1 0.3,0.2 0.3,0.1 0.2,0.1 0.3,0.2 0.3,0.1 0.3,0.2 0.3,0.1 0.3,0.1 0.3,0.2 0.3,0.1 0.3,0.1 0.3,0.2 0.3,0.1 0.2,0.2 0.3,0.1 0.3,0.1 0.3,0.2 0.3,0.1 0.3,0.2 0.3,0.1 0.3,0.1 0.2,0.2 0.3,0.1 0.3,0.2 0.3,0.1 0.3,0.1 0.3,0.2 0.3,0.1 0.3,0.2 0.2,0.1 0.3,0.1 0.3,0.2 0.3,0.1 0.3,0.2 0.3,0.1 0.3,0.1 0.2,0.2 0.3,0.1 0.3,0.1 0.3,0.2 0.3,0.1 0.3,0.2 0.2,0.1 0.3,0.1 0.3,0.2 0.3,0.1 0.3,0.2 0.3,0.1 0.2,0.1 0.3,0.2 0.3,0.1 0.3,0.2 0.3,0.1 0.2,0.1 0.3,0.2 0.3,0.1 0.3,0.2 0.3,0.1 0.2,0.1 0.3,0.2 0.3,0.1 0.3,0.2 0.3,0.1 0.2,0.1 0.3,0.2 0.3,0.1 0.3,0.1 0.3,0.2 0.2,0.1 0.3,0.2 0.3,0.1 0.3,0.1 0.2,0.2 0.3,0.1 0.3,0.2 0.3,0.1 0.2,0.1 0.3,0.2 0.3,0.1 0.3,0.2 0.2,0.1 0.3,0.1 0.3,0.2 0.3,0.1 0.2,0.2 0.3,0.1 0.3,0.1 0.3,0.2 0.2,0.1 0.3,0.2 0.3,0.1 0.3,0.1 0.2,0.2 0.3,0.1 0.3,0.1 0.2,0.2 0.3,0.1 0.3,0.2 0.3,0.1 0.2,0.1 0.3,0.2 0.3,0.1 0.2,0.2 0.3,0.1 0.3,0.1 0.3,0.2 0.2,0.1 0.3,0.2 0.3,0.1 0.2,0.1 0.3,0.2 0.3,0.1 0.2,0.2 0.3,0.1 0.3,0.1 0.2,0.2 0.3,0.1 0.3,0.2 0.2,0.1 0.3,0.1 0.3,0.2 0.2,0.1 0.3,0.2 0.3,0.1 0.2,0.1 0.3,0.2 0.3,0.1 0.2,0.1 0.3,0.2 0.3,0.1 0.2,0.2 0.3,0.1 0.3,0.1 0.2,0.2 0.3,0.1 0.2,0.2 0.3,0.1 0.3,0.1 0.2,0.2 0.3,0.1 0.3,0.2 0.2,0.1 0.3,0.1 0.2,0.2 0.3,0.1 0.3,0.2 0.2,0.1 0.3,0.1 0.3,0.2 0.2,0.1 0.3,0.2 0.2,0.1 0.3,0.1 0.3,0.2 0.2,0.1 0.3,0.1 0.2,0.2 0.3,0.1 0.2,0.2 0.3,0.1 0.3,0.1 0.2,0.2 0.3,0.1 0.2,0.2 0.3,0.1 0.2,0.1 0.3,0.2 0.3,0.1 0.2,0.2 0.3,0.1 0.2,0.1 0.3,0.2 0.2,0.1 0.3,0.2 0.3,0.1 0.2,0.1 0.3,0.2 0.2,0.1 0.3,0.2 0.2,0.1 0.3,0.1 0.2,0.2 0.3,0.1 0.2,0.1 0.3,0.2 0.2,0.1 0.3,0.2 0.3,0.1 0.2,0.1 0.3,0.2 0.2,0.1 0.3,0.2 0.2,0.1 0.3,0.1 0.2,0.2 0.3,0.1 0.2,0.2 0.3,0.1 0.2,0.1 0.3,0.2 0.2,0.1 0.3,0.2 0.2,0.1 0.3,0.1 0.2,0.2 0.3,0.1 0.2,0.2 0.3,0.1 0.2,0.1 0.3,0.2 0.2,0.1 0.2,0.1 0.3,0.2 0.2,0.1 0.3,0.2 0.2,0.1 0.3,0.1 0.2,0.2 0.3,0.1 0.2,0.2 0.3,0.1 0.2,0.1 0.3,0.2 0.2,0.1 0.2,0.2 0.3,0.1 0.2,0.1 0.3,0.2 0.2,0.1 0.3,0.2 0.2,0.1 0.3,0.1 0.2,0.2 0.2,0.1 0.3,0.2 0.2,0.1 0.3,0.1 0.2,0.2 0.3,0.1 0.2,0.1 0.2,0.2 0.3,0.1 0.2,0.2 0.3,0.1 0.2,0.1 0.2,0.2 0.3,0.1 0.2,0.2 0.3,0.1 0.2,0.1 0.2,0.2 0.3,0.1 0.2,0.2 0.3,0.1 0.2,0.1 0.2,0.2 0.3,0.1 0.2,0.2 0.2,0.1 0.3,0.1 0.2,0.2 0.3,0.1 0.2,0.2 0.2,0.1 0.3,0.1 0.2,0.2 0.2,0.1 0.3,0.1 0.2,0.2 0.3,0.1 0.2,0.2 0.2,0.1 0.3,0.1 0.2,0.2 0.2,0.1 0.3,0.2 0.2,0.1 0.2,0.1 0.3,0.2 0.2,0.1 0.2,0.2 0.3,0.1 0.2,0.1 0.2,0.2 0.3,0.1 0.2,0.2 0.2,0.1 0.3,0.1 0.2,0.2 0.2,0.1 0.3,0.2 0.2,0.1 0.2,0.1 0.2,0.2 0.3,0.1 0.2,0.1 0.2,0.2 0.3,0.1 0.2,0.2 0.2,0.1 0.3,0.1 0.2,0.2 0.2,0.1 0.2,0.2 0.3,0.1 0.2,0.1 0.2,0.2 0.3,0.1 0.2,0.2 0.2,0.1 0.2,0.1 0.3,0.2 0.2,0.1 0.2,0.2 0.2,0.1 0.3,0.1 0.2,0.2 0.2,0.1 0.3,0.2 0.2,0.1 0.2,0.1 0.2,0.2 0.3,0.1 0.2,0.1 0.2,0.2 0.2,0.1 0.3,0.2 0.2,0.1 0.2,0.1 0.2,0.2 0.2,0.1 0.3,0.2 0.2,0.1 0.2,0.1 0.2,0.2 0.3,0.1 0.2,0.2 0.2,0.1 0.2,0.1 0.3,0.2 0.2,0.1 0.2,0.2 0.2,0.1 0.2,0.1 0.3,0.2 0.2,0.1 0.2,0.2 0.2,0.1 0.2,0.1 0.3,0.2 0.2,0.1 0.2,0.1 0.2,0.2 0.2,0.1 0.3,0.2 0.2,0.1 0.2,0.1 0.2,0.2 0.2,0.1 0.2,0.2 0.3,0.1 0.2,0.1 0.2,0.2 0.2,0.1 0.2,0.2 0.2,0.1 0.3,0.1 0.2,0.2 0.2,0.1 0.2,0.2 0.2,0.1 0.2,0.1 0.3,0.2 0.2,0.1 0.2,0.2 0.2,0.1 0.2,0.1 0.2,0.2 0.2,0.1 0.3,0.2 0.2,0.1 0.2,0.1 0.2,0.2 0.2,0.1 0.2,0.1 0.2,0.2 0.2,0.1 0.3,0.2 0.2,0.1 0.2,0.1 0.2,0.2 0.2,0.1 0.2,0.2 0.2,0.1 0.2,0.1 0.2,0.2 0.3,0.1 0.2,0.2 0.2,0.1 0.2,0.1 0.2,0.2 0.2,0.1 0.2,0.2 0.2,0.1 0.2,0.1 0.2,0.2 0.2,0.1 0.3,0.2 0.2,0.1 0.2,0.1 0.2,0.2 0.2,0.1 0.2,0.1 0.2,0.2 0.2,0.1 0.2,0.2 0.2,0.1 0.2,0.1 0.2,0.2 0.2,0.1 0.2,0.2 0.3,0.1 0.2,0.1 0.2,0.2 0.2,0.1 0.2,0.2 0.2,0.1 0.2,0.1 0.2,0.2 0.2,0.1 0.2,0.2 0.2,0.1 0.2,0.1 0.2,0.2 0.2,0.1 0.2,0.2 0.2,0.1 0.2,0.1 0.2,0.2 0.2,0.1 0.2,0.1 0.2,0.2 0.2,0.1 0.2,0.2 0.2,0.1 0.2,0.1 0.2,0.2 0.2,0.1 0.2,0.2 0.2,0.1 0.2,0.1 0.2,0.2 0.2,0.1 0.2,0.2 0.2,0.1 0.2,0.1 0.2,0.2 0.2,0.1 0.2,0.2 0.2,0.1 0.2,0.1 0.2,0.2 0.2,0.1 0.2,0.2 0.2,0.1 0.2,0.1 0.2,0.2 0.2,0.1 0.2,0.1 0.2,0.2 0.2,0.1 0.2,0.2 0.2,0.1 0.2,0.1 0.2,0.2 0.2,0.1 0.2,0.2 0.2,0.1 0.1,0.1 0.2,0.2 0.2,0.1 0.2,0.2 0.2,0.1 0.2,0.1 0.2,0.2 0.2,0.1 0.2,0.2 0.2,0.1 0.2,0.1 0.2,0.2 0.2,0.1 0.2,0.2 0.2,0.1 0.1,0.1 0.2,0.2 0.2,0.1 0.2,0.1 0.2,0.2 0.2,0.1 0.2,0.2 0.2,0.1 0.2,0.1 0.2,0.2 0.1,0.1 0.2,0.2 0.2,0.1 0.2,0.1 0.2,0.2 0.2,0.1 0.2,0.2 0.2,0.1 0.2,0.1 0.1,0.2 0.2,0.1 0.2,0.2 0.2,0.1 0.2,0.1 0.2,0.2 0.2,0.1 0.2,0.2 0.1,0.1 0.2,0.1 0.2,0.2 0.2,0.1 0.2,0.1 0.2,0.2 0.2,0.1 0.1,0.2 0.2,0.1 0.2,0.1 0.2,0.2 0.2,0.1 0.2,0.2 0.2,0.1 0.1,0.1 0.2,0.2 0.2,0.1 0.2,0.2 0.2,0.1 0.2,0.1 0.1,0.2 0.2,0.1 0.2,0.2 0.2,0.1 0.2,0.1 0.1,0.2 0.2,0.1 0.2,0.2 0.2,0.1 0.2,0.1 0.2,0.2 0.1,0.1 0.2,0.1 0.2,0.2 0.2,0.1 0.2,0.2 0.1,0.1 0.2,0.1 0.2,0.2 0.2,0.1 0.1,0.2 0.2,0.1 0.2,0.1 0.2,0.2 0.2,0.1 0.1,0.2 0.2,0.1 0.2,0.1 0.2,0.2 0.2,0.1 0.1,0.2 0.2,0.1 0.2,0.1 0.2,0.2 0.1,0.1 0.2,0.2 0.2,0.1 0.2,0.1 0.1,0.2 0.2,0.1 0.2,0.1 0.2,0.2 0.1,0.1 0.2,0.2 0.2,0.1 0.2,0.1 0.1,0.2 0.2,0.1 0.2,0.2 0.2,0.1 0.1,0.1 0.2,0.2 0.2,0.1 0.1,0.2 0.2,0.1 0.2,0.1 0.2,0.2 0.1,0.1 0.2,0.2 0.2,0.1 0.2,0.1 0.1,0.2 0.2,0.1 0.2,0.2 0.1,0.1 0.2,0.1 0.2,0.2 0.1,0.1 0.2,0.1 0.2,0.2 0.2,0.1 0.1,0.2 0.2,0.1 0.2,0.1 0.1,0.2 0.2,0.1 0.2,0.2 0.1,0.1 0.2,0.1 0.2,0.2 0.1,0.1 0.2,0.2 0.2,0.1 0.1,0.1 0.2,0.2 0.2,0.1 0.1,0.2 0.2,0.1 0.2,0.1 0.1,0.2 0.2,0.1 0.2,0.2 0.1,0.1 0.2,0.1 0.2,0.2 0.1,0.1 0.2,0.2 0.2,0.1 0.1,0.1 0.2,0.2 0.2,0.1 0.1,0.1 0.2,0.2 0.1,0.1 0.2,0.2 0.2,0.1 0.1,0.1 0.2,0.2 0.2,0.1 0.1,0.2 0.2,0.1 0.1,0.1 0.2,0.2 0.2,0.1 0.1,0.2 0.2,0.1 0.2,0.1 0.1,0.2 0.2,0.1 0.1,0.2 0.2,0.1 0.2,0.1 0.1,0.2 0.2,0.1 0.1,0.2 0.2,0.1 0.2,0.1 0.1,0.2 0.2,0.1 0.1,0.1 0.2,0.2 0.1,0.1 0.2,0.2 0.2,0.1 0.1,0.1 0.2,0.2 0.1,0.1 0.2,0.2 0.2,0.1 0.1,0.1 0.2,0.2 0.1,0.1 0.2,0.2 0.1,0.1 0.2,0.1 0.1,0.2 0.2,0.1 0.2,0.2 0.1,0.1 0.2,0.1 0.1,0.2 0.2,0.1 0.1,0.2 0.2,0.1 0.1,0.1 0.2,0.2 0.1,0.1 0.2,0.1 0.2,0.2 0.1,0.1 0.2,0.2 0.1,0.1 0.2,0.1 0.1,0.2 0.2,0.1 0.1,0.2 0.2,0.1 0.1,0.1 0.2,0.2 0.1,0.1 0.2,0.2 0.1,0.1 0.2,0.1 0.1,0.2 0.2,0.1 0.1,0.2 0.2,0.1 0.1,0.1 0.2,0.2 0.1,0.1 0.2,0.2 0.1,0.1 0.2,0.1 0.1,0.2 0.2,0.1 0.1,0.1 0.2,0.2 0.1,0.1 0.2,0.2 0.1,0.1 0.2,0.1 0.1,0.2 0.2,0.1 0.1,0.2 0.1,0.1 0.2,0.1 0.1,0.2 0.2,0.1 0.1,0.2 0.2,0.1 0.1,0.1 0.2,0.2 0.1,0.1 0.2,0.2 0.1,0.1 0.2,0.1 0.1,0.2 0.1,0.1 0.2,0.2 0.1,0.1 0.2,0.1 0.1,0.2 0.2,0.1 0.1,0.1 0.1,0.2 0.2,0.1 0.1,0.2 0.2,0.1 0.1,0.1 0.2,0.2 0.1,0.1 0.1,0.2 0.2,0.1 0.1,0.1 0.2,0.2 0.1,0.1 0.1,0.2 0.2,0.1 0.1,0.1 0.2,0.2 0.1,0.1 0.2,0.2 0.1,0.1 0.1,0.1 0.2,0.2 0.1,0.1 0.1,0.2 0.2,0.1 0.1,0.1 0.2,0.2 0.1,0.1 0.1,0.1 0.2,0.2 0.1,0.1 0.2,0.2 0.1,0.1 0.1,0.1 0.2,0.2 0.1,0.1 0.1,0.2 0.2,0.1 0.1,0.1 0.2,0.2 0.1,0.1 0.1,0.2 0.2,0.1 0.1,0.1 0.1,0.2 0.2,0.1 0.1,0.2 0.1,0.1 0.2,0.1 0.1,0.2 0.1,0.1 0.2,0.2 0.1,0.1 0.1,0.1 0.2,0.2 0.1,0.1 0.1,0.1 0.2,0.2 0.1,0.1 0.1,0.2 0.2,0.1 0.1,0.1 0.1,0.2 0.2,0.1 0.1,0.2 0.1,0.1 0.2,0.1 0.1,0.2 0.1,0.1 0.2,0.2 0.1,0.1 0.1,0.1 0.1,0.2 0.2,0.1 0.1,0.2 0.1,0.1 0.2,0.1 0.1,0.2 0.1,0.1 0.2,0.2 0.1,0.1 0.1,0.1 0.1,0.2 0.2,0.1 0.1,0.1 0.1,0.2 0.2,0.1 0.1,0.2 0.1,0.1 0.1,0.1 0.2,0.2 0.1,0.1 0.1,0.2 0.1,0.1 0.2,0.1 0.1,0.2 0.1,0.1 0.1,0.2 0.2,0.1 0.1,0.1 0.1,0.2 0.1,0.1 0.2,0.2 0.1,0.1 0.1,0.1 0.1,0.2 0.2,0.1 0.1,0.2 0.1,0.1 0.1,0.1 0.2,0.2 0.1,0.1 0.1,0.2 0.1,0.1 0.2,0.1 0.1,0.2 0.1,0.1 0.1,0.1 0.2,0.2 0.1,0.1 0.1,0.2 0.1,0.1 0.1,0.1 0.2,0.2 0.1,0.1 0.1,0.2 0.1,0.1 0.1,0.1 0.2,0.2 0.1,0.1 0.1,0.2 0.1,0.1 0.1,0.1 0.2,0.2 0.1,0.1 0.1,0.2 0.1,0.1 0.1,0.1 0.2,0.2 0.1,0.1 0.1,0.2 0.1,0.1 0.1,0.1 0.1,0.2 0.2,0.1 0.1,0.1 0.1,0.2 0.1,0.1 0.1,0.2 0.2,0.1 0.1,0.1 0.1,0.2 0.1,0.1 0.1,0.2 0.1,0.1 0.1,0.1 0.2,0.2 0.1,0.1 0.1,0.2 0.1,0.1 0.1,0.1 0.1,0.2 0.2,0.1 0.1,0.2 0.1,0.1 0.1,0.1 0.1,0.2 0.1,0.1 0.1,0.2 0.1,0.1 0.2,0.1 0.1,0.2 0.1,0.1 0.1,0.1 0.1,0.2 0.1,0.1 0.1,0.2 0.1,0.1 0.2,0.1 0.1,0.2 0.1,0.1 0.1,0.2 0.1,0.1 0.1,0.1 0.1,0.2 0.1,0.1 0.1,0.2 0.2,0.1 0.1,0.1 0.1,0.2 0.1,0.1 0.1,0.2 0.1,0.1 0.1,0.1 0.1,0.2 0.1,0.1 0.1,0.2 0.1,0.1 0.2,0.1 0.1,0.2 0.1,0.1 0.1,0.1 0.1,0.2 0.1,0.1 0.1,0.2 0.1,0.1 0.1,0.1 0.1,0.2 0.1,0.1 0.1,0.2 0.1,0.1 0.1,0.1 0.1,0.2 0.2,0.1 0.1,0.2 0.1,0.1 0.1,0.1 0.1,0.2 0.1,0.1 0.1,0.2 0.1,0.1 0.1,0.1 0.1,0.2 0.1,0.1 0.1,0.2 0.1,0.1 0.1,0.1 0.1,0.2 0.1,0.1 0.1,0.1 0.1,0.2 0.1,0.1 0.1,0.2 0.1,0.1 0.1,0.1 0.1,0.2 0.1,0.1 0.1,0.2 0.1,0.1 0.1,0.1 0.1,0.2 0.1,0.1 0.1,0.2 0.1,0.1 0.1,0.1 0.1,0.2 0.1,0.1 0.1,0.2 0.1,0.1 0.1,0.1 0.1,0.2 0.1,0.1 0.1,0.2 0.1,0.1 0.1,0.1 0.1,0.2 0.1,0.1 0.1,0.1 0.1,0.2 0.1,0.1 0.1,0.2 0.1,0.1 0.1,0.1 0.1,0.2 0.1,0.1 0.1,0.2 0.1,0.1 0.1,0.1 0.1,0.2 0.1,0.1 0.1,0.2 0.1,0.1 0.1,0.1 0.1,0.2 0.1,0.1 0.1,0.2 v 0.1 l 0.1,0.1 0.1,0.2 0.1,0.1 0.1,0.2 0.1,0.1 0.1,0.1 0.1,0.2 0.1,0.1 0.1,0.1 0.1,0.2 0.1,0.1 0.1,0.2 0.1,0.1 0.1,0.1 v 0.2 l 0.1,0.1 0.1,0.2 0.1,0.1 0.1,0.1 0.1,0.2 0.1,0.1 0.1,0.2 0.1,0.1 0.1,0.1 0.1,0.2 v 0.1 l 0.1,0.2 0.1,0.1 0.1,0.1 0.1,0.2 0.1,0.1 0.1,0.2 0.1,0.1 0.1,0.1 v 0.2 l 0.1,0.1 0.1,0.1 0.1,0.2 0.1,0.1 0.1,0.2 0.1,0.1 0.1,0.1 v 0.2 l 0.1,0.1 0.1,0.2 0.1,0.1 0.1,0.1 0.1,0.2 0.1,0.1 0.1,0.2 v 0.1 l 0.1,0.1 0.1,0.2 0.1,0.1 0.1,0.2 0.1,0.1 v 0.1 l 0.1,0.2 0.1,0.1 0.1,0.2 0.1,0.1 0.1,0.1 0.1,0.2 v 0.1 l 0.1,0.1 0.1,0.2 0.1,0.1 0.1,0.2 0.1,0.1 v 0.1 l 0.1,0.2 0.1,0.1 0.1,0.2 0.1,0.1 v 0.1 l 0.1,0.2 0.1,0.1 0.1,0.2 0.1,0.1 v 0.1 l 0.1,0.2 0.1,0.1 0.1,0.2 0.1,0.1 0.1,0.1 v 0.2 l 0.1,0.1 0.1,0.2 0.1,0.1 v 0.1 l 0.1,0.2 0.1,0.1 0.1,0.2 0.1,0.1 v 0.1 l 0.1,0.2 0.1,0.1 0.1,0.1 0.1,0.2 v 0.1 l 0.1,0.2 0.1,0.1 0.1,0.1 v 0.2 l 0.1,0.1 0.1,0.2 0.1,0.1 v 0.1 l 0.1,0.2 0.1,0.1 0.1,0.2 v 0.1 l 0.1,0.1 0.1,0.2 0.1,0.1 v 0.2 l 0.1,0.1 0.1,0.1 0.1,0.2 v 0.1 l 0.1,0.2 0.1,0.1 0.1,0.1 v 0.2 l 0.1,0.1 0.1,0.1 0.1,0.2 v 0.1 l 0.1,0.2 0.1,0.1 v 0.1 l 0.1,0.2 0.1,0.1 0.1,0.2 v 0.1 l 0.1,0.1 0.1,0.2 v 0.1 l 0.1,0.2 0.1,0.1 0.1,0.1 v 0.2 l 0.1,0.1 0.1,0.2 v 0.1 l 0.1,0.1 0.1,0.2 v 0.1 l 0.1,0.2 0.1,0.1 v 0.1 l 0.1,0.2 0.1,0.1 0.1,0.1 v 0.2 l 0.1,0.1 0.1,0.2 v 0.1 l 0.1,0.1 0.1,0.2 v 0.1 l 0.1,0.2 0.1,0.1 v 0.1 l 0.1,0.2 0.1,0.1 v 0.2 l 0.1,0.1 0.1,0.1 v 0.2 l 0.1,0.1 0.1,0.2 v 0.1 l 0.1,0.1 v 0.2 l 0.1,0.1 0.1,0.2 v 0.1 l 0.1,0.1 0.1,0.2 v 0.1 l 0.1,0.1 0.1,0.2 v 0.1 l 0.1,0.2 v 0.1 l 0.1,0.1 0.1,0.2 v 0.1 l 0.1,0.2 0.1,0.1 v 0.1 l 0.1,0.2 v 0.1 l 0.1,0.2 0.1,0.1 v 0.1 l 0.1,0.2 v 0.1 l 0.1,0.2 0.1,0.1 v 0.1 l 0.1,0.2 v 0.1 l 0.1,0.2 0.1,0.1 v 0.1 l 0.1,0.2 v 0.1 l 0.1,0.1 0.1,0.2 v 0.1 l 0.1,0.2 v 0.1 l 0.1,0.1 0.1,0.2 v 0.1 l 0.1,0.2 v 0.1 l 0.1,0.1 v 0.2 l 0.1,0.1 0.1,0.2 v 0.1 l 0.1,0.1 v 0.2 l 0.1,0.1 v 0.2 l 0.1,0.1 v 0.1 l 0.1,0.2 0.1,0.1 v 0.2 l 0.1,0.1 v 0.1 l 0.1,0.2 v 0.1 l 0.1,0.1 v 0.2 l 0.1,0.1 v 0.2 l 0.1,0.1 v 0.1 l 0.1,0.2 0.1,0.1 v 0.2 l 0.1,0.1 v 0.1 l 0.1,0.2 v 0.1 l 0.1,0.2 v 0.1 l 0.1,0.1 v 0.2 l 0.1,0.1 v 0.2 l 0.1,0.1 v 0.1 l 0.1,0.2 v 0.1 l 0.1,0.2 v 0.1 l 0.1,0.1 v 0.2 l 0.1,0.1 v 0.1 l 0.1,0.2 v 0.1 l 0.1,0.2 v 0.1 l 0.1,0.1 v 0.2 l 0.1,0.1 v 0.2 l 0.1,0.1 v 0.1 l 0.1,0.2 v 0.1 l 0.1,0.2 v 0.1 0.1 l 0.1,0.2 v 0.1 l 0.1,0.2 v 0.1 l 0.1,0.1 v 0.2 l 0.1,0.1 v 0.2 l 0.1,0.1 v 0.1 l 0.1,0.2 v 0.1 0.1 l 0.1,0.2 v 0.1 l 0.1,0.2 v 0.1 l 0.1,0.1 v 0.2 l 0.1,0.1 v 0.2 0.1 l 0.1,0.1 v 0.2 l 0.1,0.1 v 0.2 l 0.1,0.1 v 0.1 0.2 l 0.1,0.1 v 0.2 l 0.1,0.1 v 0.1 0.2 l 0.1,0.1 v 0.2 l 0.1,0.1 v 0.1 0.2 l 0.1,0.1 v 0.1 l 0.1,0.2 v 0.1 0.2 l 0.1,0.1 v 0.1 l 0.1,0.2 v 0.1 0.2 l 0.1,0.1 v 0.1 l 0.1,0.2 v 0.1 0.2 l 0.1,0.1 v 0.1 0.2 l 0.1,0.1 v 0.2 l 0.1,0.1 v 0.1 0.2 l 0.1,0.1 v 0.2 0.1 l 0.1,0.1 v 0.2 0.1 l 0.1,0.2 v 0.1 l 0.1,0.1 v 0.2 0.1 l 0.1,0.1 v 0.2 0.1 l 0.1,0.2 v 0.1 0.1 l 0.1,0.2 v 0.1 0.2 l 0.1,0.1 v 0.1 0.2 l 0.1,0.1 v 0.2 0.1 l 0.1,0.1 v 0.2 0.1 l 0.1,0.2 v 0.1 0.1 0.2 l 0.1,0.1 v 0.2 0.1 l 0.1,0.1 v 0.2 0.1 l 0.1,0.1 v 0.2 0.1 0.2 l 0.1,0.1 v 0.1 0.2 l 0.1,0.1 v 0.2 0.1 l 0.1,0.1 v 0.2 0.1 0.2 l 0.1,0.1 v 0.1 0.2 0.1 l 0.1,0.2 v 0.1 0.1 l 0.1,0.2 v 0.1 0.2 0.1 l 0.1,0.1 v 0.2 0.1 0.1 l 0.1,0.2 v 0.1 0.2 0.1 l 0.1,0.1 v 0.2 0.1 0.2 l 0.1,0.1 v 0.1 0.2 0.1 0.2 l 0.1,0.1 v 0.1 0.2 0.1 l 0.1,0.2 v 0.1 0.1 0.2 l 0.1,0.1 v 0.2 0.1 0.1 0.2 l 0.1,0.1 v 0.1 0.2 0.1 0.2 l 0.1,0.1 v 0.1 0.2 0.1 0.2 l 0.1,0.1 v 0.1 0.2 0.1 0.2 l 0.1,0.1 v 0.1 0.2 0.1 0.2 0.1 l 0.1,0.1 v 0.2 0.1 0.2 0.1 0.1 l 0.1,0.2 v 0.1 0.1 0.2 0.1 0.2 l 0.1,0.1 v 0.1 0.2 0.1 0.2 0.1 0.1 l 0.1,0.2 v 0.1 0.2 0.1 0.1 0.2 0.1 l 0.1,0.2 v 0.1 0.1 0.2 0.1 0.2 0.1 0.1 l 0.1,0.2 v 0.1 0.1 0.2 0.1 0.2 0.1 0.1 l 0.1,0.2 v 0.1 0.2 0.1 0.1 0.2 0.1 0.2 0.1 0.1 0.2 l 0.1,0.1 v 0.2 0.1 0.1 0.2 0.1 0.2 0.1 0.1 0.2 0.1 0.1 l 0.1,0.2 v 0.1 0.2 0.1 0.1 0.2 0.1 0.2 0.1 0.1 0.2 0.1 0.2 0.1 0.1 0.2 0.1 0.2 l 0.1,0.1 v 0.1 0.2 0.1 0.2 0.1 0.1 0.2 0.1 0.1 0.2 0.1 0.2 0.1 0.1 0.2 0.1 0.2 0.1 0.1 0.2 0.1 0.2 0.1 0.1 0.2 0.1 0.2 0.1 0.1 0.2 0.1 0.2 0.1 0.1 0.2 0.1 0.1 0.2 0.1 0.2 0.1 0.1 0.2 0.1 0.2 0.1 0.1 0.2 0.1 l -0.1,0.2 v 0.1 0.1 0.2 0.1 0.2 0.1 0.1 0.2 0.1 0.2 0.1 0.1 0.2 0.1 0.2 0.1 0.1 l -0.1,0.2 v 0.1 0.1 0.2 0.1 0.2 0.1 0.1 0.2 0.1 0.2 0.1 0.1 l -0.1,0.2 v 0.1 0.2 0.1 0.1 0.2 0.1 0.2 0.1 0.1 l -0.1,0.2 v 0.1 0.2 0.1 0.1 0.2 0.1 0.1 0.2 l -0.1,0.1 v 0.2 0.1 0.1 0.2 0.1 0.2 0.1 l -0.1,0.1 v 0.2 0.1 0.2 0.1 0.1 0.2 l -0.1,0.1 v 0.2 0.1 0.1 0.2 0.1 0.2 l -0.1,0.1 v 0.1 0.2 0.1 0.1 0.2 l -0.1,0.1 v 0.2 0.1 0.1 0.2 0.1 l -0.1,0.2 v 0.1 0.1 0.2 0.1 l -0.1,0.2 v 0.1 0.1 0.2 0.1 0.2 l -0.1,0.1 v 0.1 0.2 0.1 0.2 l -0.1,0.1 v 0.1 0.2 0.1 0.1 l -0.1,0.2 v 0.1 0.2 0.1 l -0.1,0.1 v 0.2 0.1 0.2 0.1 l -0.1,0.1 v 0.2 0.1 0.2 l -0.1,0.1 v 0.1 0.2 0.1 0.2 l -0.1,0.1 v 0.1 0.2 0.1 l -0.1,0.2 v 0.1 0.1 0.2 l -0.1,0.1 v 0.1 0.2 0.1 l -0.1,0.2 v 0.1 0.1 0.2 l -0.1,0.1 v 0.2 0.1 l -0.1,0.1 v 0.2 0.1 0.2 l -0.1,0.1 v 0.1 0.2 0.1 l -0.1,0.2 v 0.1 0.1 l -0.1,0.2 v 0.1 0.2 0.1 l -0.1,0.1 v 0.2 0.1 l -0.1,0.1 v 0.2 0.1 l -0.1,0.2 v 0.1 0.1 0.2 l -0.1,0.1 v 0.2 0.1 l -0.1,0.1 v 0.2 0.1 l -0.1,0.2 v 0.1 0.1 l -0.1,0.2 v 0.1 0.2 l -0.1,0.1 v 0.1 0.2 l -0.1,0.1 v 0.2 0.1 l -0.1,0.1 v 0.2 0.1 l -0.1,0.1 v 0.2 0.1 l -0.1,0.2 v 0.1 0.1 l -0.1,0.2 v 0.1 0.2 l -0.1,0.1 v 0.1 0.2 l -0.1,0.1 v 0.2 0.1 l -0.1,0.1 v 0.2 l -0.1,0.1 v 0.2 0.1 l -0.1,0.1 v 0.2 0.1 l -0.1,0.2 v 0.1 l -0.1,0.1 v 0.2 0.1 l -0.1,0.1 v 0.2 l -0.1,0.1 v 0.2 0.1 l -0.1,0.1 v 0.2 0.1 l -0.1,0.2 v 0.1 l -0.1,0.1 v 0.2 0.1 l -0.1,0.2 v 0.1 l -0.1,0.1 v 0.2 l -0.1,0.1 v 0.2 0.1 l -0.1,0.1 v 0.2 l -0.1,0.1 v 0.2 0.1 l -0.1,0.1 v 0.2 l -0.1,0.1 v 0.2 l -0.1,0.1 v 0.1 0.2 l -0.1,0.1 v 0.1 l -0.1,0.2 v 0.1 l -0.1,0.2 v 0.1 l -0.1,0.1 v 0.2 0.1 l -0.1,0.2 v 0.1 l -0.1,0.1 v 0.2 l -0.1,0.1 v 0.2 l -0.1,0.1 v 0.1 l -0.1,0.2 v 0.1 0.2 l -0.1,0.1 v 0.1 l -0.1,0.2 v 0.1 l -0.1,0.2 v 0.1 l -0.1,0.1 v 0.2 l -0.1,0.1 v 0.1 l -0.1,0.2 v 0.1 l -0.1,0.2 v 0.1 l -0.1,0.1 v 0.2 l -0.1,0.1 v 0.2 l -0.1,0.1 v 0.1 l -0.1,0.2 v 0.1 l -0.1,0.2 v 0.1 l -0.1,0.1 v 0.2 l -0.1,0.1 v 0.2 l -0.1,0.1 v 0.1 l -0.1,0.2 v 0.1 l -0.1,0.2 v 0.1 l -0.1,0.1 v 0.2 l -0.1,0.1 v 0.1 l -0.1,0.2 v 0.1 L 598,408 v 0.1 l -0.1,0.1 -0.1,0.2 v 0.1 l -0.1,0.2 v 0.1 l -0.1,0.1 v 0.2 l -0.1,0.1 v 0.2 l -0.1,0.1 v 0.1 l -0.1,0.2 -0.1,0.1 v 0.2 l -0.1,0.1 v 0.1 l -0.1,0.2 v 0.1 l -0.1,0.2 v 0.1 l -0.1,0.1 -0.1,0.2 v 0.1 l -0.1,0.1 v 0.2 l -0.1,0.1 v 0.2 l -0.1,0.1 -0.1,0.1 v 0.2 l -0.1,0.1 v 0.2 l -0.1,0.1 -0.1,0.1 v 0.2 l -0.1,0.1 v 0.2 l -0.1,0.1 v 0.1 l -0.1,0.2 -0.1,0.1 v 0.2 l -0.1,0.1 v 0.1 l -0.1,0.2 -0.1,0.1 v 0.2 l -0.1,0.1 v 0.1 l -0.1,0.2 -0.1,0.1 v 0.1 l -0.1,0.2 -0.1,0.1 v 0.2 l -0.1,0.1 v 0.1 l -0.1,0.2 -0.1,0.1 v 0.2 l -0.1,0.1 -0.1,0.1 v 0.2 l -0.1,0.1 v 0.2 l -0.1,0.1 -0.1,0.1 v 0.2"
               style="fill:none;stroke:#009e73;stroke-width:3;stroke-linecap:round;stroke-linejoin:round;stroke-miterlimit:10;stroke-dasharray:none;stroke-opacity:1"
               id="path530"
               inkscape:connector-curvature="0" /></g><g
             id="g532"
             transform="scale(1.3326403)"><path
               d="m 67.5,15.5 v 417 h 539 v -417 z"
               style="fill:none;stroke:#000000;stroke-width:1;stroke-linecap:round;stroke-linejoin:round;stroke-miterlimit:10;stroke-dasharray:none;stroke-opacity:1"
               id="path534"
               inkscape:connector-curvature="0" /></g></g></g><g
         id="g536"><g
           id="g538" /></g></g></g></svg>